SplineFontDB: 3.2
FontName: CardFont
FullName: CardFont
FamilyName: CardFont
Weight: Medium
Copyright: Originally traced with Glyphtracer
UComments: "No comments"
Version: 001.000
ItalicAngle: 0
UnderlinePosition: -100
UnderlineWidth: 50
Ascent: 1638
Descent: 410
InvalidEm: 0
LayerCount: 2
Layer: 0 0 "Back" 1
Layer: 1 0 "Fore" 0
XUID: [1021 397 1238052781 15881202]
OS2Version: 0
OS2_WeightWidthSlopeOnly: 0
OS2_UseTypoMetrics: 1
CreationTime: 1270926697
ModificationTime: 1734395600
OS2TypoAscent: 0
OS2TypoAOffset: 1
OS2TypoDescent: 0
OS2TypoDOffset: 1
OS2TypoLinegap: 0
OS2WinAscent: 0
OS2WinAOffset: 1
OS2WinDescent: 0
OS2WinDOffset: 1
HheadAscent: 0
HheadAOffset: 1
HheadDescent: 0
HheadDOffset: 1
OS2Vendor: 'GlTr'
DEI: 91125
Encoding: UnicodeBmp
UnicodeInterp: none
NameList: Adobe Glyph List
DisplaySize: -36
AntiAlias: 1
FitToEm: 1
WinInfo: 0 67 23
BeginChars: 65536 73

StartChar: a
Encoding: 97 97 0
Width: 725
VWidth: 0
Flags: HW
LayerCount: 2
Fore
SplineSet
153.5625 681.259090909 m 0
 155.796136364 685.167954545 182.599772727 686.843181818 225.038863636 685.726363636 c 0
 290.372727273 684.051136364 293.164772727 683.492727273 294.84 671.766136364 c 0
 296.515227273 662.273181818 300.9825 658.922727273 317.176363636 657.805909091 c 0
 333.928636364 656.689090909 338.395909091 653.338636364 339.512727273 643.845681818 c 0
 341.187954545 633.235909091 345.096818182 631.002272727 360.732272727 631.002272727 c 2
 379.718181818 631.002272727 l 1
 379.718181818 600.289772727 l 2
 379.718181818 573.486136364 378.601363636 569.577272727 368.55 569.577272727 c 0
 361.290681818 569.577272727 357.381818182 565.668409091 357.381818182 558.409090909 c 0
 357.381818182 551.149772727 361.290681818 547.240909091 368.55 547.240909091 c 0
 378.042954545 547.240909091 379.718181818 543.332045455 379.718181818 524.904545455 c 0
 379.718181818 506.477045455 378.042954545 502.568181818 368.55 502.568181818 c 0
 358.498636364 502.568181818 357.381818182 498.659318182 357.381818182 460.6875 c 0
 357.381818182 422.715681818 358.498636364 418.806818182 368.55 418.806818182 c 0
 376.926136364 418.806818182 379.718181818 414.897954545 379.718181818 404.846590909 c 0
 379.718181818 393.678409091 382.510227273 390.886363636 393.678409091 390.886363636 c 0
 402.612954545 390.886363636 407.638636364 387.535909091 407.638636364 382.510227273 c 0
 407.638636364 376.367727273 414.339545455 374.134090909 435.559090909 374.134090909 c 0
 456.778636364 374.134090909 463.479545455 376.367727273 463.479545455 382.510227273 c 0
 463.479545455 388.652727273 469.622045455 390.886363636 485.815909091 390.886363636 c 0
 505.918636364 390.886363636 508.152272727 392.561590909 508.152272727 404.846590909 c 0
 508.152272727 418.248409091 509.8275 418.806818182 541.656818182 418.806818182 c 2
 575.161363636 418.806818182 l 1
 575.161363636 393.678409091 l 2
 575.161363636 379.718181818 572.927727273 368.55 569.577272727 368.55 c 0
 566.785227273 368.55 563.993181818 363.524318182 563.993181818 357.381818182 c 0
 563.993181818 349.005681818 560.084318182 346.213636364 550.032954545 346.213636364 c 0
 538.864772727 346.213636364 536.072727273 343.421590909 536.072727273 332.253409091 c 0
 536.072727273 318.851590909 534.3975 318.293181818 502.568181818 318.293181818 c 0
 476.322954545 318.293181818 469.063636364 316.617954545 469.063636364 309.917045455 c 0
 469.063636364 303.774545455 462.921136364 301.540909091 446.727272727 301.540909091 c 0
 430.533409091 301.540909091 424.390909091 303.774545455 424.390909091 309.917045455 c 0
 424.390909091 316.617954545 415.456363636 318.293181818 379.718181818 318.293181818 c 0
 335.603863636 318.293181818 335.045454545 318.293181818 335.045454545 332.253409091 c 0
 335.045454545 343.421590909 332.253409091 346.213636364 321.085227273 346.213636364 c 0
 311.033863636 346.213636364 307.125 349.005681818 307.125 357.381818182 c 0
 307.125 363.524318182 304.891363636 368.55 301.540909091 368.55 c 0
 298.748863636 368.55 295.956818182 363.524318182 295.956818182 357.381818182 c 0
 295.956818182 347.888863636 292.047954545 346.213636364 273.620454545 346.213636364 c 0
 253.517727273 346.213636364 251.284090909 345.096818182 251.284090909 332.253409091 c 2
 251.284090909 318.293181818 l 1
 146.861590909 319.41 l 2
 42.9975 321.085227273 41.8806818182 321.085227273 40.2054545455 333.928636364 c 0
 39.0886363636 340.629545455 34.6213636364 346.213636364 30.1540909091 346.213636364 c 0
 25.6868181818 346.213636364 22.3363636364 351.239318182 22.3363636364 357.381818182 c 0
 22.3363636364 364.641136364 18.4275 368.55 11.1681818182 368.55 c 0
 1.11681818182 368.55 0 372.458863636 0 413.222727273 c 0
 0 453.986590909 1.11681818182 457.895454545 11.1681818182 457.895454545 c 0
 21.2195454545 457.895454545 22.3363636364 461.804318182 22.3363636364 502.568181818 c 0
 22.3363636364 537.747954545 24.0115909091 547.240909091 30.1540909091 547.240909091 c 0
 34.6213636364 547.240909091 39.0886363636 552.825 40.2054545455 560.084318182 c 0
 41.3222727273 567.902045455 46.3479545455 572.927727273 54.7240909091 574.044545455 c 0
 64.7754545455 575.719772727 67.0090909091 579.628636364 67.0090909091 595.264090909 c 0
 67.0090909091 608.665909091 69.8011363636 614.25 75.3852272727 614.25 c 0
 79.8525 614.25 83.7613636364 618.158863636 83.7613636364 622.626136364 c 0
 83.7613636364 628.768636364 90.4622727273 631.002272727 108.889772727 631.002272727 c 0
 131.784545455 631.002272727 134.018181818 632.119090909 134.018181818 644.404090909 c 0
 134.018181818 653.338636364 137.927045455 658.922727273 145.744772727 660.597954545 c 0
 152.445681818 662.273181818 155.796136364 666.182045455 153.5625 669.5325 c 0
 151.887272727 672.882954545 151.887272727 678.467045455 153.5625 681.259090909 c 0
290.372727273 603.081818182 m 0
 290.372727273 613.691590909 287.022272727 614.25 237.882272727 614.25 c 0
 187.625454545 614.25 184.833409091 613.691590909 183.158181818 601.965 c 0
 182.041363636 593.588863636 177.015681818 588.563181818 169.197954545 587.446363636 c 0
 161.938636364 586.329545455 156.354545455 581.862272727 156.354545455 577.395 c 0
 156.354545455 572.927727273 153.004090909 569.577272727 148.536818182 569.577272727 c 0
 144.069545455 569.577272727 139.602272727 563.993181818 138.485454545 557.292272727 c 0
 137.368636364 548.916136364 132.342954545 543.890454545 124.525227273 542.773636364 c 0
 117.265909091 541.656818182 111.681818182 537.189545455 111.681818182 532.722272727 c 0
 111.681818182 528.255 106.656136364 524.904545455 100.513636364 524.904545455 c 0
 90.4622727273 524.904545455 89.3454545455 520.995681818 89.3454545455 479.673409091 c 0
 89.3454545455 441.143181818 87.6702272727 433.883863636 79.8525 432.208636364 c 0
 72.5931818182 429.975 69.8011363636 424.390909091 70.3595454545 411.5475 c 0
 70.9179545455 395.353636364 72.5931818182 393.678409091 91.0206818182 392.003181818 c 0
 104.4225 390.886363636 111.681818182 387.535909091 111.681818182 381.951818182 c 0
 111.681818182 375.809318182 119.499545455 374.134090909 145.186363636 374.134090909 c 0
 171.431590909 374.134090909 178.690909091 375.809318182 178.690909091 382.510227273 c 0
 178.690909091 388.652727273 184.833409091 390.886363636 201.027272727 390.886363636 c 0
 221.13 390.886363636 223.363636364 392.561590909 223.363636364 404.846590909 c 0
 223.363636364 416.014772727 226.155681818 418.806818182 237.323863636 418.806818182 c 0
 246.258409091 418.806818182 251.284090909 422.157272727 251.284090909 427.182954545 c 0
 251.284090909 431.650227273 255.192954545 435.559090909 259.660227273 435.559090909 c 0
 265.802727273 435.559090909 268.036363636 441.701590909 268.036363636 457.895454545 c 0
 268.036363636 476.322954545 269.711590909 480.231818182 279.204545455 480.231818182 c 0
 288.6975 480.231818182 290.372727273 484.140681818 290.372727273 502.568181818 c 0
 290.372727273 517.645227273 293.164772727 526.579772727 298.748863636 528.255 c 0
 304.332954545 530.488636364 307.125 539.981590909 307.125 558.409090909 c 0
 307.125 576.836590909 304.332954545 586.329545455 298.748863636 588.563181818 c 0
 294.281590909 590.238409091 290.372727273 596.939318182 290.372727273 603.081818182 c 0
EndSplineSet
EndChar

StartChar: b
Encoding: 98 98 1
Width: 596
VWidth: 0
Flags: HW
LayerCount: 2
Fore
SplineSet
156.354545455 1176.00954545 m 0
 156.354545455 1200.57954545 l 1
 178.690909091 1200.57954545 l 2
 198.793636364 1200.57954545 201.027272727 1199.46272727 201.027272727 1186.61931818 c 0
 201.027272727 1175.45113636 203.819318182 1172.65909091 214.9875 1172.65909091 c 0
 227.830909091 1172.65909091 228.947727273 1170.42545455 228.947727273 1150.32272727 c 0
 228.947727273 1130.22 227.830909091 1127.98636364 214.9875 1127.98636364 c 2
 201.027272727 1127.98636364 l 1
 201.027272727 1016.30454545 l 2
 201.027272727 920.816590909 199.910454545 904.622727273 192.651136364 904.622727273 c 0
 185.391818182 904.622727273 184.275 891.220909091 184.275 815.277272727 c 0
 184.275 739.333636364 185.391818182 725.931818182 192.651136364 725.931818182 c 0
 197.118409091 725.931818182 201.027272727 730.9575 201.027272727 737.1 c 0
 201.027272727 747.709772727 204.936136364 748.268181818 293.164772727 748.268181818 c 0
 381.393409091 748.268181818 385.302272727 747.709772727 385.302272727 737.1 c 0
 385.302272727 728.165454545 389.211136364 725.931818182 404.846590909 725.931818182 c 0
 418.248409091 725.931818182 424.390909091 723.139772727 424.390909091 717.555681818 c 0
 424.390909091 713.088409091 429.416590909 709.179545455 435.559090909 709.179545455 c 0
 446.168863636 709.179545455 446.727272727 705.270681818 446.727272727 605.873863636 c 0
 446.727272727 506.477045455 446.168863636 502.568181818 435.559090909 502.568181818 c 0
 426.066136364 502.568181818 424.390909091 498.659318182 424.390909091 477.439772727 c 0
 424.390909091 456.220227273 422.715681818 452.311363636 413.222727273 452.311363636 c 0
 404.288181818 452.311363636 402.054545455 448.4025 402.054545455 434.442272727 c 0
 402.054545455 414.897954545 382.510227273 390.886363636 366.316363636 390.886363636 c 0
 361.290681818 390.886363636 357.381818182 386.419090909 357.381818182 379.718181818 c 0
 357.381818182 373.575681818 354.031363636 368.55 349.564090909 368.55 c 0
 345.655227273 368.55 340.629545455 363.524318182 338.954318182 357.381818182 c 0
 336.720681818 348.447272727 331.136590909 346.213636364 313.2675 346.213636364 c 0
 294.281590909 346.213636364 290.372727273 344.538409091 290.372727273 335.045454545 c 0
 290.372727273 324.994090909 286.463863636 323.877272727 260.218636364 323.877272727 c 0
 232.856590909 323.877272727 229.506136364 322.760454545 227.830909091 311.033863636 c 0
 226.714090909 300.9825 222.246818182 298.190454545 205.494545455 297.073636364 c 0
 191.534318182 295.956818182 184.275 292.606363636 184.275 287.022272727 c 0
 184.275 282.555 178.690909091 279.204545455 170.314772727 279.204545455 c 0
 161.380227273 279.204545455 156.354545455 282.555 156.354545455 287.580681818 c 0
 156.354545455 292.606363636 151.328863636 295.956818182 142.394318182 295.956818182 c 0
 129.550909091 295.956818182 128.434090909 297.632045455 128.434090909 323.877272727 c 2
 128.434090909 351.797727273 l 1
 153.004090909 351.797727273 l 2
 169.756363636 351.797727273 178.690909091 354.589772727 180.924545455 360.173863636 c 0
 182.599772727 365.199545455 190.975909091 368.55 203.260909091 368.55 c 0
 218.896363636 368.55 222.805227273 370.783636364 224.480454545 381.393409091 c 0
 225.597272727 391.444772727 230.064545455 394.236818182 247.375227273 395.353636364 c 0
 260.777045455 396.470454545 268.036363636 399.820909091 268.036363636 405.405 c 0
 268.036363636 409.872272727 271.945227273 413.222727273 276.4125 413.222727273 c 0
 280.879772727 413.222727273 284.788636364 418.248409091 284.788636364 424.390909091 c 0
 284.788636364 432.208636364 288.6975 435.559090909 296.515227273 435.559090909 c 0
 303.216136364 435.559090909 309.358636364 440.026363636 311.033863636 446.727272727 c 0
 313.2675 455.103409091 318.851590909 457.895454545 334.487045455 457.895454545 c 2
 355.148181818 457.895454545 l 1
 354.589772727 490.283181818 l 2
 354.589772727 519.320454545 355.706590909 522.1125 367.433181818 523.787727273 c 0
 379.159772727 525.462954545 379.718181818 527.696590909 379.718181818 591.913636364 c 0
 379.718181818 656.130681818 379.159772727 658.364318182 367.433181818 660.039545455 c 0
 360.173863636 661.156363636 355.148181818 665.065227273 355.706590909 668.974090909 c 0
 356.823409091 673.999772727 341.187954545 675.675 293.723181818 675.675 c 0
 242.349545455 675.675 229.506136364 673.999772727 226.714090909 667.298863636 c 0
 225.038863636 662.273181818 216.104318182 658.922727273 203.819318182 658.922727273 c 0
 184.275 658.922727273 184.275 658.922727273 184.275 633.794318182 c 0
 184.275 610.899545455 183.158181818 608.665909091 170.314772727 608.665909091 c 0
 158.029772727 608.665909091 156.354545455 606.432272727 156.354545455 586.329545455 c 0
 156.354545455 567.902045455 154.679318182 563.993181818 145.186363636 563.993181818 c 0
 136.251818182 563.993181818 134.018181818 560.084318182 134.018181818 544.448863636 c 0
 134.018181818 533.839090909 130.667727273 523.787727273 126.200454545 520.995681818 c 0
 121.174772727 518.203636364 117.265909091 505.360227273 116.149090909 485.815909091 c 0
 114.473863636 459.012272727 112.798636364 455.103409091 102.188863636 453.428181818 c 0
 89.9038636364 451.752954545 89.3454545455 448.960909091 89.3454545455 409.872272727 c 0
 89.3454545455 376.926136364 87.6702272727 368.55 80.9693181818 368.55 c 0
 74.2684090909 368.55 72.5931818182 360.732272727 72.5931818182 332.253409091 c 0
 72.5931818182 297.073636364 72.0347727273 295.956818182 58.6329545455 295.956818182 c 0
 49.6984090909 295.956818182 44.6727272727 292.606363636 44.6727272727 287.580681818 c 0
 44.6727272727 281.438181818 38.5302272727 279.204545455 22.3363636364 279.204545455 c 2
 0 279.204545455 l 1
 0 337.8375 l 2
 0 385.302272727 1.67522727273 396.470454545 7.81772727273 396.470454545 c 0
 13.9602272727 396.470454545 16.7522727273 404.846590909 17.8690909091 425.507727273 c 0
 19.5443181818 451.194545455 21.2195454545 455.103409091 32.3877272727 456.778636364 c 0
 44.1143181818 458.453863636 44.6727272727 461.245909091 44.6727272727 505.918636364 c 0
 44.6727272727 548.916136364 45.7895454545 552.825 55.8409090909 552.825 c 0
 65.3338636364 552.825 67.0090909091 556.733863636 67.0090909091 580.745454545 c 0
 67.0090909091 601.965 69.2427272727 608.665909091 75.3852272727 608.665909091 c 0
 82.6445454545 608.665909091 83.7613636364 620.3925 83.7613636364 678.467045455 c 2
 83.7613636364 748.268181818 l 1
 97.7215909091 748.268181818 l 1
 111.681818182 748.268181818 l 1
 111.681818182 826.445454545 l 2
 111.681818182 891.779318182 112.798636364 904.622727273 120.057954545 904.622727273 c 0
 126.758863636 904.622727273 128.434090909 923.050227273 129.550909091 1026.35590909 c 0
 131.226136364 1147.53068182 131.226136364 1147.53068182 144.069545455 1149.20590909 c 0
 154.679318182 1150.88113636 156.354545455 1154.23159091 156.354545455 1176.00954545 c 0
EndSplineSet
EndChar

StartChar: c
Encoding: 99 99 2
Width: 501
VWidth: 0
Flags: HW
LayerCount: 2
Fore
SplineSet
70.9179545455 744.359318182 m 0
 72.5931818182 746.592954545 102.747272727 748.268181818 137.927045455 748.268181818 c 2
 201.027272727 748.268181818 l 1
 201.027272727 734.307954545 l 2
 201.027272727 722.022954545 203.260909091 720.347727273 223.363636364 720.347727273 c 0
 243.466363636 720.347727273 245.7 719.230909091 245.7 706.3875 c 0
 245.7 696.336136364 248.492045455 692.427272727 256.309772727 692.427272727 c 0
 261.893863636 692.427272727 268.036363636 688.518409091 270.27 684.051136364 c 0
 271.945227273 679.583863636 278.646136364 675.675 284.788636364 675.675 c 0
 293.164772727 675.675 295.956818182 671.766136364 295.956818182 661.714772727 c 0
 295.956818182 650.546590909 293.164772727 647.754545455 281.996590909 647.754545455 c 0
 273.062045455 647.754545455 268.036363636 644.404090909 268.036363636 639.378409091 c 0
 268.036363636 633.235909091 261.893863636 631.002272727 245.7 631.002272727 c 0
 230.064545455 631.002272727 223.363636364 633.235909091 223.363636364 638.82 c 0
 223.363636364 644.404090909 216.104318182 647.754545455 202.7025 648.871363636 c 0
 185.391818182 649.988181818 180.924545455 652.780227273 179.807727273 663.39 c 0
 178.1325 675.116590909 175.340454545 675.675 133.459772727 675.675 c 0
 92.6959090909 675.675 89.3454545455 674.558181818 89.3454545455 664.506818182 c 0
 89.3454545455 658.364318182 85.4365909091 651.663409091 80.9693181818 649.988181818 c 0
 68.6843181818 644.9625 68.6843181818 519.320454545 80.9693181818 519.320454545 c 0
 85.4365909091 519.320454545 89.3454545455 514.294772727 89.3454545455 508.152272727 c 0
 89.3454545455 500.892954545 93.2543181818 496.984090909 100.513636364 496.984090909 c 0
 106.656136364 496.984090909 111.681818182 493.075227273 111.681818182 488.607954545 c 0
 111.681818182 476.322954545 175.898863636 476.322954545 180.924545455 488.607954545 c 0
 183.158181818 494.750454545 192.092727273 496.984090909 212.195454545 496.984090909 c 0
 236.207045455 496.984090909 240.115909091 498.659318182 240.115909091 508.152272727 c 0
 240.115909091 517.645227273 244.024772727 519.320454545 265.802727273 519.320454545 c 0
 286.463863636 519.320454545 292.047954545 521.554090909 294.281590909 530.488636364 c 0
 296.515227273 539.981590909 302.099318182 541.656818182 324.435681818 541.656818182 c 2
 351.797727273 541.656818182 l 1
 351.797727273 508.152272727 l 1
 351.797727273 474.647727273 l 1
 332.253409091 474.647727273 l 2
 316.617954545 474.647727273 312.709090909 472.414090909 312.709090909 463.479545455 c 0
 312.709090909 453.428181818 308.800227273 452.311363636 279.762954545 452.311363636 c 0
 251.8425 452.311363636 246.816818182 450.636136364 244.024772727 441.143181818 c 0
 241.791136364 432.767045455 236.207045455 429.975 221.13 429.975 c 0
 204.936136364 429.975 201.027272727 427.741363636 201.027272727 418.806818182 c 0
 201.027272727 408.755454545 197.118409091 407.638636364 156.354545455 407.638636364 c 0
 115.590681818 407.638636364 111.681818182 408.755454545 111.681818182 418.806818182 c 0
 111.681818182 427.741363636 107.772954545 429.975 91.5790909091 429.975 c 0
 76.5020454545 429.975 70.9179545455 432.767045455 68.6843181818 441.143181818 c 0
 66.4506818182 450.077727273 60.8665909091 452.311363636 43.5559090909 452.311363636 c 0
 21.2195454545 452.311363636 21.2195454545 452.311363636 23.4531818182 471.855681818 c 0
 25.6868181818 489.166363636 24.0115909091 491.4 12.8434090909 491.4 c 2
 0 491.4 l 1
 0 582.979090909 l 2
 0 673.999772727 0 675.116590909 12.285 676.791818182 c 0
 19.5443181818 677.908636364 24.57 680.700681818 23.4531818182 684.051136364 c 0
 22.3363636364 686.843181818 26.8036363636 690.752045455 32.9461363636 693.544090909 c 0
 39.6470454545 695.777727273 44.6727272727 702.478636364 44.6727272727 709.179545455 c 0
 44.6727272727 716.438863636 48.5815909091 720.347727273 55.8409090909 720.347727273 c 0
 63.1002272727 720.347727273 67.0090909091 724.256590909 67.0090909091 730.399090909 c 0
 67.0090909091 735.983181818 68.6843181818 742.684090909 70.9179545455 744.359318182 c 0
EndSplineSet
EndChar

StartChar: d
Encoding: 100 100 3
Width: 613
VWidth: 0
Flags: HW
LayerCount: 2
Fore
SplineSet
426.066136364 1160.9325 m 0
 429.416590909 1164.28295455 439.467954545 1167.075 447.844090909 1167.075 c 2
 463.479545455 1167.075 l 1
 463.479545455 1108.44204545 l 2
 463.479545455 1073.26227273 461.245909091 1049.80909091 457.895454545 1049.80909091 c 0
 454.545 1049.80909091 452.311363636 1027.47272727 452.311363636 993.968181818 c 2
 452.311363636 938.127272727 l 1
 438.351136364 938.127272727 l 1
 424.390909091 938.127272727 l 1
 424.390909091 845.989772727 l 2
 424.390909091 767.8125 423.274090909 753.852272727 416.014772727 753.852272727 c 0
 409.313863636 753.852272727 407.638636364 745.476136364 407.638636364 712.53 c 0
 407.638636364 673.441363636 407.080227273 670.649318182 395.353636364 668.974090909 c 0
 383.068636364 667.298863636 382.510227273 664.506818182 380.835 612.016363636 c 0
 379.718181818 562.876363636 378.042954545 556.733863636 368.55 554.500227273 c 0
 358.498636364 551.708181818 357.381818182 546.6825 357.381818182 499.217727273 c 0
 357.381818182 453.986590909 355.706590909 445.610454545 347.888863636 442.26 c 0
 340.071136364 439.467954545 337.8375 431.650227273 337.8375 410.430681818 c 2
 337.8375 382.510227273 l 1
 303.216136364 380.835 l 1
 268.036363636 379.159772727 l 1
 268.036363636 413.222727273 l 2
 268.036363636 442.818409091 269.153181818 446.727272727 279.204545455 446.727272727 c 0
 289.814318182 446.727272727 290.372727273 450.636136364 290.372727273 502.568181818 c 0
 290.372727273 548.357727273 292.047954545 558.409090909 298.748863636 558.409090909 c 0
 305.449772727 558.409090909 307.125 568.460454545 307.125 614.25 c 2
 307.125 670.090909091 l 1
 321.085227273 670.090909091 l 2
 331.136590909 670.090909091 335.045454545 672.882954545 335.045454545 681.259090909 c 0
 335.045454545 690.193636364 331.136590909 692.427272727 315.501136364 692.427272727 c 0
 303.216136364 692.427272727 294.281590909 695.777727273 292.606363636 700.803409091 c 0
 290.372727273 705.270681818 284.230227273 709.179545455 278.646136364 709.179545455 c 0
 270.828409091 709.179545455 268.036363636 713.088409091 268.036363636 723.139772727 c 0
 268.036363636 735.983181818 265.802727273 737.1 245.7 737.1 c 0
 229.506136364 737.1 223.363636364 739.333636364 223.363636364 745.476136364 c 0
 223.363636364 751.060227273 217.779545455 753.852272727 204.377727273 753.852272727 c 0
 192.651136364 753.852272727 184.275 750.501818182 182.041363636 745.476136364 c 0
 180.366136364 740.450454545 171.99 737.1 159.705 737.1 c 0
 144.069545455 737.1 140.160681818 734.866363636 138.485454545 724.815 c 0
 137.368636364 716.438863636 132.342954545 711.413181818 124.525227273 710.296363636 c 0
 113.915454545 708.621136364 111.681818182 704.712272727 111.681818182 689.635227273 c 0
 111.681818182 674.558181818 109.448181818 670.649318182 99.3968181818 668.974090909 c 0
 88.2286363636 667.298863636 87.1118181818 664.506818182 88.7870454545 634.911136364 c 0
 89.9038636364 605.873863636 88.7870454545 601.965 78.7356818182 599.172954545 c 0
 68.1259090909 596.380909091 67.0090909091 591.913636364 67.0090909091 557.850681818 c 0
 67.0090909091 524.904545455 68.6843181818 518.762045455 78.7356818182 513.736363636 c 0
 85.4365909091 509.8275 88.7870454545 503.685 87.1118181818 499.217727273 c 0
 85.4365909091 494.192045455 87.6702272727 491.4 94.9295454545 491.4 c 0
 101.072045455 491.4 108.331363636 486.374318182 111.681818182 480.231818182 c 0
 116.149090909 472.414090909 123.408409091 469.063636364 136.810227273 469.063636364 c 0
 152.445681818 469.063636364 156.354545455 466.83 156.354545455 457.895454545 c 0
 156.354545455 450.636136364 160.263409091 446.727272727 167.522727273 446.727272727 c 0
 174.782045455 446.727272727 178.690909091 450.636136364 178.690909091 457.895454545 c 0
 178.690909091 465.154772727 182.599772727 469.063636364 189.859090909 469.063636364 c 0
 197.118409091 469.063636364 201.027272727 465.154772727 201.027272727 457.895454545 c 0
 201.027272727 450.636136364 204.936136364 446.727272727 212.195454545 446.727272727 c 0
 221.688409091 446.727272727 223.363636364 442.818409091 223.363636364 424.390909091 c 0
 223.363636364 402.612954545 222.805227273 402.054545455 204.377727273 402.054545455 c 0
 190.4175 402.054545455 184.833409091 399.2625 182.599772727 390.886363636 c 0
 178.690909091 375.809318182 156.354545455 375.809318182 152.445681818 390.886363636 c 0
 149.653636364 400.937727273 144.627954545 402.054545455 108.331363636 402.054545455 c 0
 71.4763636364 402.054545455 67.0090909091 403.171363636 67.0090909091 412.664318182 c 0
 67.0090909091 419.923636364 62.5418181818 424.390909091 54.7240909091 425.507727273 c 0
 44.1143181818 426.624545455 41.3222727273 431.091818182 40.2054545455 448.4025 c 0
 39.0886363636 461.804318182 35.7381818182 469.063636364 30.1540909091 469.063636364 c 0
 24.0115909091 469.063636364 22.3363636364 476.881363636 22.3363636364 502.568181818 c 0
 22.3363636364 532.163863636 21.2195454545 536.072727273 11.1681818182 536.072727273 c 0
 1.67522727273 536.072727273 0 539.981590909 0 561.201136364 c 0
 0 582.420681818 1.67522727273 586.329545455 11.1681818182 586.329545455 c 0
 21.7779545455 586.329545455 22.3363636364 590.238409091 22.3363636364 639.378409091 c 0
 22.3363636364 679.025454545 24.0115909091 692.985681818 30.1540909091 696.336136364 c 0
 34.6213636364 698.569772727 39.0886363636 709.737954545 40.2054545455 720.347727273 c 0
 41.3222727273 735.424772727 44.6727272727 740.450454545 54.7240909091 741.567272727 c 0
 61.425 742.684090909 67.0090909091 747.151363636 67.0090909091 751.618636364 c 0
 67.0090909091 756.085909091 70.9179545455 759.436363636 75.3852272727 759.436363636 c 0
 79.8525 759.436363636 83.7613636364 764.462045455 83.7613636364 770.604545455 c 0
 83.7613636364 780.0975 87.6702272727 781.772727273 108.331363636 781.772727273 c 0
 130.109318182 781.772727273 133.459772727 783.447954545 135.135 794.616136364 c 0
 136.251818182 804.6675 140.719090909 807.459545455 158.029772727 808.576363636 c 0
 171.431590909 809.693181818 178.690909091 813.043636364 178.690909091 818.627727273 c 0
 178.690909091 824.211818182 185.391818182 826.445454545 201.027272727 826.445454545 c 0
 217.221136364 826.445454545 223.363636364 824.211818182 223.363636364 818.069318182 c 0
 223.363636364 811.368409091 231.181363636 809.693181818 259.660227273 809.693181818 c 0
 294.84 809.693181818 295.956818182 809.134772727 295.956818182 795.732954545 c 0
 295.956818182 786.798409091 299.307272727 781.772727273 304.332954545 781.772727273 c 0
 308.800227273 781.772727273 312.709090909 776.747045455 312.709090909 770.604545455 c 0
 312.709090909 761.67 316.617954545 759.436363636 332.253409091 759.436363636 c 2
 351.797727273 759.436363636 l 1
 351.797727273 848.781818182 l 1
 351.797727273 938.127272727 l 1
 365.757954545 938.127272727 l 1
 379.718181818 938.127272727 l 1
 379.718181818 993.968181818 l 2
 379.718181818 1045.90022727 380.276590909 1049.80909091 390.886363636 1049.80909091 c 0
 400.937727273 1049.80909091 402.054545455 1053.71795455 402.054545455 1092.24818182 c 0
 402.054545455 1130.22 403.171363636 1134.68727273 413.781136364 1137.47931818 c 0
 419.923636364 1139.15454545 423.8325 1143.62181818 422.157272727 1147.53068182 c 0
 421.040454545 1151.43954545 422.715681818 1157.58204545 426.066136364 1160.9325 c 0
EndSplineSet
EndChar

StartChar: e
Encoding: 101 101 4
Width: 624
VWidth: 0
Flags: HW
LayerCount: 2
Fore
SplineSet
206.611363636 745.476136364 m 0
 206.611363636 752.177045455 215.545909091 753.852272727 251.284090909 753.852272727 c 0
 287.022272727 753.852272727 295.956818182 752.177045455 295.956818182 745.476136364 c 0
 295.956818182 738.775227273 303.774545455 737.1 332.253409091 737.1 c 0
 366.874772727 737.1 368.55 736.541590909 368.55 723.698181818 c 0
 368.55 711.971590909 371.342045455 709.737954545 389.769545455 708.062727273 c 0
 405.405 706.945909091 409.872272727 704.153863636 408.755454545 697.452954545 c 0
 408.197045455 691.868863636 412.105909091 686.843181818 418.806818182 685.167954545 c 0
 427.182954545 682.934318182 429.975 677.908636364 429.975 662.273181818 c 0
 429.975 646.079318182 432.208636364 642.170454545 441.143181818 642.170454545 c 0
 451.194545455 642.170454545 452.311363636 638.261590909 452.311363636 608.1075 c 0
 452.311363636 579.070227273 453.986590909 573.486136364 463.479545455 571.2525 c 0
 469.622045455 569.577272727 474.647727273 564.551590909 474.647727273 560.642727273 c 0
 474.647727273 556.175454545 469.622045455 552.825 463.479545455 552.825 c 0
 455.103409091 552.825 452.311363636 548.916136364 452.311363636 538.864772727 c 0
 452.311363636 526.579772727 450.077727273 524.904545455 429.975 524.904545455 c 0
 413.781136364 524.904545455 407.638636364 522.670909091 407.638636364 516.528409091 c 0
 407.638636364 509.8275 397.587272727 508.152272727 352.356136364 508.152272727 c 0
 298.748863636 508.152272727 296.515227273 507.593863636 294.84 495.867272727 c 0
 293.164772727 484.140681818 289.814318182 483.023863636 254.076136364 481.348636364 c 0
 227.2725 480.231818182 213.870681818 476.881363636 210.520227273 471.297272727 c 0
 207.169772727 465.713181818 196.001590909 463.479545455 173.106818182 463.479545455 c 2
 139.602272727 463.479545455 l 1
 139.602272727 496.984090909 l 1
 139.602272727 530.488636364 l 1
 173.106818182 530.488636364 l 2
 202.7025 530.488636364 206.611363636 531.605454545 206.611363636 541.656818182 c 0
 206.611363636 551.708181818 210.520227273 552.825 237.323863636 552.825 c 0
 260.777045455 552.825 268.036363636 554.500227273 268.036363636 561.201136364 c 0
 268.036363636 567.902045455 278.087727273 569.577272727 323.877272727 569.577272727 c 2
 379.718181818 569.577272727 l 1
 379.718181818 591.913636364 l 2
 379.718181818 615.366818182 365.199545455 636.586363636 349.005681818 636.586363636 c 0
 343.98 636.586363636 340.629545455 641.612045455 340.629545455 650.546590909 c 0
 340.629545455 663.948409091 339.512727273 664.506818182 304.332954545 664.506818182 c 0
 275.854090909 664.506818182 268.036363636 666.182045455 268.036363636 672.882954545 c 0
 268.036363636 679.025454545 261.335454545 681.259090909 240.115909091 681.259090909 c 0
 218.896363636 681.259090909 212.195454545 679.025454545 212.195454545 672.882954545 c 0
 212.195454545 666.740454545 206.052954545 664.506818182 189.859090909 664.506818182 c 0
 169.756363636 664.506818182 167.522727273 663.39 167.522727273 650.546590909 c 0
 167.522727273 639.378409091 164.730681818 636.586363636 153.5625 636.586363636 c 0
 144.627954545 636.586363636 139.602272727 633.235909091 139.602272727 628.210227273 c 0
 139.602272727 623.742954545 134.576590909 619.834090909 128.434090909 619.834090909 c 0
 121.174772727 619.834090909 117.265909091 615.925227273 117.265909091 608.665909091 c 0
 117.265909091 602.523409091 113.357045455 597.497727273 108.889772727 597.497727273 c 0
 102.747272727 597.497727273 100.513636364 591.355227273 100.513636364 575.161363636 c 0
 100.513636364 555.058636364 99.3968181818 552.825 86.5534090909 552.825 c 2
 72.5931818182 552.825 l 1
 72.5931818182 485.815909091 l 2
 72.5931818182 421.598863636 73.1515909091 418.806818182 84.3197727273 418.806818182 c 0
 91.0206818182 418.806818182 97.1631818182 414.339545455 98.8384090909 407.638636364 c 0
 100.513636364 401.496136364 105.539318182 396.470454545 109.448181818 396.470454545 c 0
 113.915454545 396.470454545 117.265909091 391.444772727 117.265909091 385.302272727 c 0
 117.265909091 375.809318182 121.174772727 374.134090909 142.394318182 374.134090909 c 0
 160.821818182 374.134090909 167.522727273 371.900454545 167.522727273 365.757954545 c 0
 167.522727273 358.498636364 180.924545455 357.381818182 254.076136364 357.381818182 c 0
 327.227727273 357.381818182 340.629545455 358.498636364 340.629545455 365.757954545 c 0
 340.629545455 372.458863636 347.888863636 374.134090909 374.134090909 374.134090909 c 0
 403.729772727 374.134090909 407.638636364 375.250909091 407.638636364 385.302272727 c 0
 407.638636364 395.353636364 411.5475 396.470454545 441.143181818 396.470454545 c 2
 474.647727273 396.470454545 l 1
 474.647727273 374.134090909 l 2
 474.647727273 355.706590909 472.9725 351.797727273 463.479545455 351.797727273 c 0
 456.220227273 351.797727273 452.311363636 347.888863636 452.311363636 340.629545455 c 0
 452.311363636 333.370227273 448.4025 329.461363636 441.701590909 329.461363636 c 0
 436.1175 329.461363636 429.975 324.435681818 428.299772727 318.293181818 c 0
 426.066136364 308.800227273 420.482045455 307.125 397.028863636 307.125 c 0
 372.458863636 307.125 368.55 305.449772727 368.55 295.956818182 c 0
 368.55 285.347045455 364.641136364 284.788636364 254.076136364 284.788636364 c 0
 143.511136364 284.788636364 139.602272727 285.347045455 139.602272727 295.956818182 c 0
 139.602272727 304.891363636 135.693409091 307.125 119.499545455 307.125 c 0
 104.4225 307.125 98.8384090909 309.917045455 96.6047727273 318.293181818 c 0
 94.3711363636 327.227727273 88.7870454545 329.461363636 72.0347727273 329.461363636 c 0
 50.8152272727 329.461363636 50.2568181818 330.019772727 50.2568181818 349.005681818 c 0
 50.2568181818 364.641136364 48.0231818182 368.55 39.0886363636 368.55 c 0
 29.5956818182 368.55 27.9204545455 372.458863636 27.9204545455 390.886363636 c 0
 27.9204545455 410.989090909 26.8036363636 413.222727273 13.9602272727 413.222727273 c 2
 0 413.222727273 l 1
 0 482.465454545 l 2
 0 550.591363636 0.558409090909 552.266590909 12.8434090909 553.941818182 c 0
 24.0115909091 555.617045455 25.1284090909 558.9675 26.8036363636 590.796818182 c 0
 28.4788636364 620.950909091 30.1540909091 625.418181818 39.0886363636 625.418181818 c 0
 48.0231818182 625.418181818 50.2568181818 629.327045455 50.2568181818 644.9625 c 0
 50.2568181818 660.597954545 53.0488636364 665.623636364 62.5418181818 669.5325 c 0
 69.8011363636 672.324545455 74.8268181818 676.233409091 73.71 679.025454545 c 0
 73.1515909091 681.8175 77.0604545455 684.609545455 83.7613636364 685.726363636 c 0
 90.4622727273 686.843181818 94.9295454545 691.868863636 94.9295454545 698.569772727 c 0
 94.9295454545 707.504318182 98.8384090909 709.179545455 117.265909091 709.179545455 c 0
 137.368636364 709.179545455 139.602272727 710.854772727 139.602272727 723.139772727 c 0
 139.602272727 736.541590909 141.2775 737.1 173.106818182 737.1 c 0
 199.352045455 737.1 206.611363636 738.775227273 206.611363636 745.476136364 c 0
EndSplineSet
EndChar

StartChar: f
Encoding: 102 102 5
Width: 485
VWidth: 0
Flags: HW
LayerCount: 2
Fore
SplineSet
201.027272727 1030.26477273 m 0
 201.027272727 1044.225 l 1
 259.660227273 1044.225 l 1
 318.293181818 1044.225 l 1
 318.293181818 1021.88863636 l 2
 318.293181818 1005.69477273 320.526818182 999.552272727 326.669318182 999.552272727 c 0
 333.370227273 999.552272727 335.045454545 991.734545455 335.045454545 963.255681818 c 2
 335.045454545 926.959090909 l 1
 304.332954545 926.959090909 l 1
 273.620454545 926.959090909 l 1
 273.620454545 949.295454545 l 1
 273.620454545 971.631818182 l 1
 251.284090909 971.631818182 l 2
 235.090227273 971.631818182 228.947727273 969.398181818 228.947727273 963.255681818 c 0
 228.947727273 958.788409091 223.922045455 954.879545455 217.779545455 954.879545455 c 0
 210.520227273 954.879545455 206.611363636 950.970681818 206.611363636 943.711363636 c 0
 206.611363636 937.568863636 202.144090909 930.309545455 197.118409091 928.075909091 c 0
 189.300681818 925.283863636 187.067045455 917.466136364 187.067045455 893.454545455 c 0
 187.067045455 866.0925 185.950227273 862.742045455 174.782045455 861.066818182 c 0
 161.938636364 859.391590909 161.938636364 857.716363636 161.938636364 784.006363636 c 2
 161.938636364 709.179545455 l 1
 204.377727273 709.179545455 l 2
 256.309772727 709.179545455 273.620454545 697.452954545 273.620454545 663.39 c 2
 273.620454545 642.170454545 l 1
 217.779545455 642.170454545 l 2
 165.8475 642.170454545 161.938636364 641.612045455 161.938636364 631.002272727 c 0
 161.938636364 624.859772727 158.029772727 619.834090909 153.5625 619.834090909 c 0
 146.303181818 619.834090909 145.186363636 607.549090909 145.186363636 541.656818182 c 2
 145.186363636 463.479545455 l 1
 131.226136364 463.479545455 l 2
 117.265909091 463.479545455 117.265909091 462.921136364 117.265909091 418.806818182 c 0
 117.265909091 383.068636364 115.590681818 374.134090909 108.889772727 374.134090909 c 0
 104.4225 374.134090909 100.513636364 369.108409091 100.513636364 362.965909091 c 0
 100.513636364 353.472954545 96.6047727273 351.797727273 72.5931818182 351.797727273 c 2
 44.6727272727 351.797727273 l 1
 44.6727272727 421.598863636 l 1
 44.6727272727 491.4 l 1
 58.6329545455 491.4 l 1
 72.5931818182 491.4 l 1
 72.5931818182 555.617045455 l 1
 72.5931818182 619.834090909 l 1
 35.7381818182 619.834090909 l 1
 -0.558409090909 619.834090909 l 1
 1.11681818182 641.053636364 l 2
 2.23363636364 657.2475 5.58409090909 662.273181818 15.0770454545 663.39 c 0
 22.8947727273 664.506818182 27.9204545455 669.5325 29.0372727273 677.350227273 c 0
 30.7125 688.518409091 34.6213636364 689.635227273 65.8922727273 691.310454545 c 2
 101.072045455 692.985681818 l 1
 99.9552272727 789.032045455 l 2
 99.3968181818 872.793409091 100.513636364 885.078409091 108.331363636 886.753636364 c 0
 115.590681818 888.428863636 117.265909091 896.246590909 117.265909091 924.725454545 c 0
 117.265909091 956.554772727 118.382727273 960.463636364 128.434090909 960.463636364 c 0
 137.368636364 960.463636364 139.602272727 964.3725 139.602272727 980.007954545 c 0
 139.602272727 993.409772727 142.394318182 999.552272727 147.978409091 999.552272727 c 0
 152.445681818 999.552272727 156.354545455 1003.46113636 156.354545455 1007.92840909 c 0
 156.354545455 1014.07090909 162.497045455 1016.30454545 178.690909091 1016.30454545 c 0
 198.793636364 1016.30454545 201.027272727 1017.97977273 201.027272727 1030.26477273 c 0
EndSplineSet
EndChar

StartChar: g
Encoding: 103 103 6
Width: 574
VWidth: 0
Flags: HW
LayerCount: 2
Fore
SplineSet
178.690909091 701.361818182 m 0
 178.690909091 707.504318182 193.767954545 709.179545455 256.868181818 709.179545455 c 0
 321.085227273 709.179545455 335.045454545 707.504318182 335.045454545 701.361818182 c 0
 335.045454545 696.894545455 340.629545455 692.427272727 347.888863636 691.310454545 c 0
 355.706590909 690.193636364 360.732272727 685.167954545 361.849090909 677.350227273 c 0
 362.965909091 670.090909091 367.433181818 664.506818182 371.900454545 664.506818182 c 0
 376.367727273 664.506818182 379.718181818 658.922727273 379.718181818 650.546590909 c 0
 379.718181818 640.495227273 382.510227273 636.586363636 390.327954545 636.586363636 c 0
 395.912045455 636.586363636 402.054545455 632.6775 404.288181818 628.210227273 c 0
 405.963409091 623.742954545 410.989090909 619.834090909 416.014772727 619.834090909 c 0
 423.274090909 619.834090909 424.390909091 608.1075 424.390909091 541.656818182 c 0
 424.390909091 467.388409091 423.8325 463.479545455 413.222727273 463.479545455 c 0
 402.612954545 463.479545455 402.054545455 459.570681818 402.054545455 362.965909091 c 0
 402.054545455 266.361136364 401.496136364 262.452272727 390.886363636 262.452272727 c 0
 380.835 262.452272727 379.718181818 258.543409091 379.718181818 217.779545455 c 0
 379.718181818 185.391818182 377.484545455 172.548409091 371.900454545 169.197954545 c 0
 366.874772727 166.405909091 362.965909091 153.5625 361.849090909 136.810227273 c 0
 360.173863636 112.798636364 358.498636364 108.889772727 347.888863636 107.214545455 c 0
 339.512727273 106.097727273 335.045454545 101.630454545 335.045454545 94.3711363636 c 0
 335.045454545 88.7870454545 331.136590909 83.7613636364 326.669318182 83.7613636364 c 0
 321.643636364 83.7613636364 318.293181818 78.7356818182 318.293181818 69.8011363636 c 0
 318.293181818 58.6329545455 315.501136364 55.8409090909 304.332954545 55.8409090909 c 0
 295.398409091 55.8409090909 290.372727273 52.4904545455 290.372727273 47.4647727273 c 0
 290.372727273 41.3222727273 284.230227273 39.0886363636 268.036363636 39.0886363636 c 0
 247.933636364 39.0886363636 245.7 37.9718181818 245.7 25.1284090909 c 0
 245.7 12.8434090909 243.466363636 11.1681818182 226.155681818 11.1681818182 c 0
 215.545909091 11.1681818182 206.611363636 8.93454545455 206.611363636 5.58409090909 c 0
 206.611363636 2.23363636364 183.158181818 0 147.978409091 0 c 0
 112.798636364 0 89.3454545455 2.23363636364 89.3454545455 5.58409090909 c 0
 89.3454545455 8.93454545455 74.2684090909 11.1681818182 55.8409090909 11.1681818182 c 0
 24.0115909091 11.1681818182 22.3363636364 11.7265909091 22.3363636364 24.57 c 0
 22.3363636364 32.9461363636 18.4275 39.0886363636 13.4018181818 40.2054545455 c 0
 6.1425 41.3222727273 3.90886363636 49.14 3.90886363636 75.3852272727 c 2
 3.90886363636 108.889772727 l 1
 27.3620454545 110.565 l 2
 48.5815909091 112.240227273 50.2568181818 111.123409091 50.2568181818 98.28 c 0
 50.2568181818 86.5534090909 53.0488636364 84.3197727273 71.4763636364 82.6445454545 c 0
 87.1118181818 81.5277272727 92.1375 78.7356818182 91.5790909091 71.4763636364 c 0
 90.4622727273 62.5418181818 96.0463636364 61.425 135.135 61.425 c 0
 174.223636364 61.425 179.249318182 62.5418181818 177.574090909 71.4763636364 c 0
 176.457272727 78.7356818182 180.366136364 81.5277272727 196.56 82.6445454545 c 0
 212.753863636 83.7613636364 217.221136364 87.1118181818 218.896363636 96.6047727273 c 0
 220.013181818 106.097727273 225.038863636 109.448181818 241.791136364 110.565 c 0
 255.192954545 111.681818182 262.452272727 115.032272727 262.452272727 120.616363636 c 0
 262.452272727 125.083636364 268.036363636 128.434090909 276.4125 128.434090909 c 0
 289.255909091 128.434090909 290.372727273 130.667727273 290.372727273 150.770454545 c 0
 290.372727273 169.197954545 292.047954545 173.106818182 301.540909091 173.106818182 c 0
 312.150681818 173.106818182 312.709090909 177.015681818 312.709090909 226.155681818 c 0
 312.709090909 266.361136364 314.384318182 279.762954545 321.085227273 283.113409091 c 0
 327.786136364 287.022272727 329.461363636 306.566590909 330.578181818 385.302272727 c 0
 332.253409091 481.907045455 332.253409091 483.023863636 345.096818182 484.699090909 c 0
 356.823409091 486.374318182 357.381818182 489.166363636 357.381818182 538.864772727 c 0
 357.381818182 588.563181818 356.823409091 591.355227273 345.096818182 593.030454545 c 0
 336.720681818 594.147272727 331.695 599.172954545 330.578181818 607.549090909 c 0
 329.461363636 614.25 324.994090909 619.834090909 320.526818182 619.834090909 c 0
 316.059545455 619.834090909 312.709090909 623.742954545 312.709090909 628.210227273 c 0
 312.709090909 634.911136364 303.216136364 636.586363636 259.660227273 636.586363636 c 0
 216.104318182 636.586363636 206.611363636 634.911136364 206.611363636 628.210227273 c 0
 206.611363636 623.184545455 201.585681818 619.834090909 192.651136364 619.834090909 c 0
 180.366136364 619.834090909 178.690909091 617.600454545 178.690909091 597.497727273 c 0
 178.690909091 581.303863636 176.457272727 575.161363636 170.314772727 575.161363636 c 0
 163.055454545 575.161363636 161.938636364 562.876363636 161.938636364 499.776136364 c 0
 161.938636364 436.675909091 163.055454545 424.390909091 170.314772727 424.390909091 c 0
 175.340454545 424.390909091 178.690909091 419.365227273 178.690909091 410.430681818 c 2
 178.690909091 396.470454545 l 1
 234.531818182 396.470454545 l 2
 280.321363636 396.470454545 290.372727273 394.795227273 290.372727273 388.094318182 c 0
 290.372727273 383.068636364 295.398409091 379.718181818 304.332954545 379.718181818 c 0
 315.501136364 379.718181818 318.293181818 376.926136364 318.293181818 365.757954545 c 0
 318.293181818 354.589772727 315.501136364 351.797727273 304.332954545 351.797727273 c 0
 293.164772727 351.797727273 290.372727273 349.005681818 290.372727273 337.8375 c 2
 290.372727273 323.318863636 l 1
 233.415 324.994090909 l 2
 180.366136364 326.669318182 175.898863636 327.227727273 175.898863636 337.8375 c 0
 175.898863636 346.772045455 171.431590909 349.564090909 155.237727273 350.680909091 c 0
 138.485454545 352.356136364 134.018181818 354.589772727 134.018181818 363.524318182 c 0
 134.018181818 370.783636364 130.109318182 374.134090909 122.291590909 374.134090909 c 0
 115.590681818 374.134090909 109.448181818 378.601363636 107.772954545 385.302272727 c 0
 106.097727273 391.444772727 101.072045455 396.470454545 97.1631818182 396.470454545 c 0
 84.8781818182 396.470454545 85.995 574.044545455 97.7215909091 578.511818182 c 0
 103.305681818 580.745454545 106.097727273 590.238409091 106.097727273 608.665909091 c 0
 106.097727273 632.6775 107.772954545 636.027954545 118.941136364 637.703181818 c 0
 126.758863636 638.82 131.784545455 643.845681818 132.901363636 652.221818182 c 0
 134.018181818 660.039545455 138.485454545 664.506818182 145.744772727 664.506818182 c 0
 153.004090909 664.506818182 156.354545455 668.415681818 156.354545455 676.233409091 c 0
 156.354545455 682.934318182 160.821818182 689.076818182 167.522727273 690.752045455 c 0
 173.665227273 692.427272727 178.690909091 697.452954545 178.690909091 701.361818182 c 0
EndSplineSet
EndChar

StartChar: h
Encoding: 104 104 7
Width: 641
VWidth: 0
Flags: HW
LayerCount: 2
Fore
SplineSet
156.354545455 1262.00454545 m 0
 156.354545455 1307.23568182 l 1
 191.534318182 1305.56045455 l 1
 226.155681818 1303.88522727 l 1
 227.830909091 1246.9275 l 1
 229.506136364 1189.41136364 l 1
 214.9875 1189.41136364 l 1
 201.027272727 1189.41136364 l 1
 201.027272727 1136.3625 l 2
 201.027272727 1093.365 199.352045455 1083.31363636 192.651136364 1083.31363636 c 0
 185.950227273 1083.31363636 184.275 1069.91181818 183.158181818 1006.81159091 c 0
 181.482954545 931.426363636 180.924545455 929.751136364 169.197954545 928.075909091 c 0
 156.912954545 926.400681818 156.354545455 923.608636364 156.354545455 878.935909091 c 0
 156.354545455 835.938409091 155.237727273 832.029545455 145.186363636 832.029545455 c 0
 134.576590909 832.029545455 134.018181818 828.120681818 134.018181818 778.422272727 c 0
 134.018181818 732.074318182 132.901363636 724.815 124.525227273 722.581363636 c 0
 116.149090909 720.347727273 114.473863636 713.088409091 114.473863636 679.583863636 c 0
 114.473863636 642.170454545 113.357045455 639.378409091 102.188863636 637.703181818 c 0
 89.9038636364 636.027954545 89.3454545455 633.235909091 89.3454545455 591.355227273 c 0
 89.3454545455 555.617045455 87.6702272727 547.240909091 80.9693181818 547.240909091 c 0
 76.5020454545 547.240909091 72.5931818182 542.215227273 72.5931818182 536.072727273 c 0
 72.5931818182 526.021363636 68.6843181818 524.904545455 36.2965909091 524.904545455 c 2
 0 524.904545455 l 1
 0 547.240909091 l 2
 0 566.785227273 1.67522727273 569.577272727 12.8434090909 569.577272727 c 0
 24.57 569.577272727 25.1284090909 571.2525 22.8947727273 614.808409091 c 0
 21.2195454545 656.689090909 21.7779545455 660.039545455 32.9461363636 662.831590909 c 0
 43.5559090909 665.623636364 44.6727272727 669.5325 44.6727272727 706.945909091 c 0
 44.6727272727 744.359318182 45.7895454545 748.268181818 55.8409090909 748.268181818 c 0
 65.8922727273 748.268181818 67.0090909091 752.177045455 67.0090909091 792.940909091 c 0
 67.0090909091 828.679090909 68.6843181818 837.613636364 75.3852272727 837.613636364 c 0
 82.0861363636 837.613636364 83.7613636364 847.665 83.7613636364 893.454545455 c 2
 83.7613636364 949.295454545 l 1
 97.7215909091 949.295454545 l 1
 111.681818182 949.295454545 l 1
 111.681818182 1019.09659091 l 2
 111.681818182 1077.17113636 112.798636364 1088.89772727 120.057954545 1088.89772727 c 0
 126.758863636 1088.89772727 128.434090909 1099.5075 128.434090909 1153.11477273 c 2
 128.434090909 1217.33181818 l 1
 142.394318182 1217.33181818 l 2
 156.354545455 1217.33181818 156.354545455 1217.89022727 156.354545455 1262.00454545 c 0
383.627045455 973.865454545 m 0
 390.327954545 980.007954545 399.2625 973.865454545 400.937727273 961.580454545 c 0
 402.612954545 950.970681818 406.521818182 949.295454545 427.741363636 949.295454545 c 0
 445.610454545 949.295454545 452.311363636 947.061818182 452.311363636 940.919318182 c 0
 452.311363636 936.452045455 456.220227273 932.543181818 460.6875 932.543181818 c 0
 466.83 932.543181818 469.063636364 925.842272727 469.063636364 907.414772727 c 0
 469.063636364 886.195227273 470.738863636 882.286363636 480.231818182 882.286363636 c 0
 490.841590909 882.286363636 491.4 878.3775 491.4 801.317045455 c 0
 491.4 724.256590909 490.841590909 720.347727273 480.231818182 720.347727273 c 0
 470.180454545 720.347727273 469.063636364 716.438863636 469.063636364 689.635227273 c 0
 469.063636364 666.182045455 466.83 658.922727273 460.6875 658.922727273 c 0
 453.986590909 658.922727273 452.311363636 645.520909091 451.194545455 582.420681818 c 0
 449.519318182 507.035454545 448.960909091 505.360227273 437.234318182 503.685 c 0
 428.858181818 502.568181818 424.390909091 498.100909091 424.390909091 490.841590909 c 0
 424.390909091 483.023863636 420.482045455 480.231818182 410.430681818 480.231818182 c 0
 400.379318182 480.231818182 396.470454545 483.023863636 396.470454545 490.841590909 c 0
 396.470454545 496.425681818 392.561590909 502.568181818 388.094318182 504.801818182 c 0
 375.809318182 509.269090909 375.809318182 664.506818182 387.535909091 664.506818182 c 0
 393.678409091 664.506818182 396.470454545 672.882954545 397.587272727 694.1025 c 0
 399.2625 719.230909091 400.937727273 723.139772727 412.105909091 724.815 c 0
 424.390909091 726.490227273 424.390909091 728.165454545 424.390909091 801.875454545 c 2
 424.390909091 876.702272727 l 1
 410.430681818 876.702272727 l 2
 399.2625 876.702272727 396.470454545 879.494318182 396.470454545 890.6625 c 0
 396.470454545 907.973181818 386.9775 909.09 384.185454545 892.337727273 c 0
 382.510227273 880.611136364 379.159772727 879.494318182 339.512727273 877.819090909 c 0
 306.008181818 876.702272727 295.956818182 874.468636364 295.956818182 868.326136364 c 0
 295.956818182 863.300454545 290.372727273 859.95 281.996590909 859.95 c 0
 270.828409091 859.95 268.036363636 857.157954545 268.036363636 845.989772727 c 0
 268.036363636 832.029545455 267.477954545 831.471136364 233.415 833.146363636 c 2
 198.235227273 834.821590909 l 1
 198.235227273 857.157954545 l 2
 198.235227273 876.143863636 199.910454545 879.494318182 211.078636364 881.169545455 c 0
 218.896363636 882.286363636 223.363636364 886.753636364 223.363636364 894.012954545 c 0
 223.363636364 899.597045455 227.2725 904.622727273 231.739772727 904.622727273 c 0
 236.765454545 904.622727273 240.115909091 909.648409091 240.115909091 918.582954545 c 0
 240.115909091 931.426363636 241.791136364 932.543181818 268.036363636 932.543181818 c 0
 289.255909091 932.543181818 295.956818182 934.776818182 295.956818182 940.919318182 c 0
 295.956818182 947.620227273 304.332954545 949.295454545 337.8375 949.295454545 c 0
 374.6925 949.295454545 379.718181818 950.412272727 379.718181818 959.346818182 c 0
 379.718181818 964.930909091 381.393409091 971.631818182 383.627045455 973.865454545 c 0
EndSplineSet
EndChar

StartChar: i
Encoding: 105 105 8
Width: 356
VWidth: 0
Flags: HW
LayerCount: 2
Fore
SplineSet
143.511136364 1185.5025 m 0
 145.186363636 1187.73613636 160.263409091 1189.41136364 177.015681818 1189.41136364 c 2
 206.611363636 1189.41136364 l 1
 206.611363636 1153.11477273 l 1
 206.611363636 1116.81818182 l 1
 181.482954545 1116.81818182 l 2
 160.263409091 1116.81818182 156.354545455 1118.49340909 156.354545455 1127.98636364 c 0
 156.354545455 1134.12886364 152.445681818 1139.15454545 147.978409091 1139.15454545 c 0
 141.835909091 1139.15454545 139.602272727 1145.29704545 139.602272727 1160.37409091 c 0
 139.602272727 1172.10068182 141.2775 1183.82727273 143.511136364 1185.5025 c 0
94.9295454545 949.295454545 m 0
 94.9295454545 956.554772727 98.8384090909 960.463636364 106.097727273 960.463636364 c 0
 113.357045455 960.463636364 117.265909091 956.554772727 117.265909091 949.295454545 c 0
 117.265909091 942.036136364 121.174772727 938.127272727 128.434090909 938.127272727 c 0
 137.927045455 938.127272727 139.602272727 934.218409091 139.602272727 912.998863636 c 0
 139.602272727 891.779318182 137.927045455 887.870454545 128.434090909 887.870454545 c 0
 118.382727273 887.870454545 117.265909091 883.961590909 117.265909091 854.365909091 c 0
 117.265909091 828.679090909 115.590681818 820.861363636 108.889772727 820.861363636 c 0
 102.747272727 820.861363636 100.513636364 810.81 99.3968181818 777.863863636 c 0
 97.7215909091 737.1 96.6047727273 734.307954545 84.8781818182 732.632727273 c 0
 72.5931818182 730.9575 72.0347727273 728.723863636 73.71 690.752045455 c 2
 75.3852272727 650.546590909 l 1
 96.6047727273 648.871363636 l 2
 116.149090909 647.196136364 117.265909091 646.079318182 117.265909091 627.651818182 c 0
 117.265909091 615.366818182 113.915454545 606.990681818 108.889772727 605.315454545 c 0
 104.4225 603.081818182 100.513636364 596.939318182 100.513636364 591.355227273 c 0
 100.513636364 581.862272727 96.0463636364 580.745454545 50.2568181818 580.745454545 c 2
 0 580.745454545 l 1
 1.11681818182 671.766136364 l 2
 2.79204545455 760.553181818 2.79204545455 762.228409091 15.0770454545 763.903636364 c 0
 26.2452272727 765.578863636 27.9204545455 768.929318182 27.9204545455 792.940909091 c 0
 27.9204545455 816.394090909 29.5956818182 820.302954545 40.2054545455 821.978181818 c 0
 51.3736363636 823.653409091 52.4904545455 826.445454545 50.8152272727 856.041136364 c 0
 49.6984090909 885.078409091 50.8152272727 888.987272727 60.8665909091 891.779318182 c 0
 70.3595454545 894.012954545 72.5931818182 899.038636364 72.5931818182 916.349318182 c 0
 72.5931818182 934.218409091 74.2684090909 938.127272727 83.7613636364 938.127272727 c 0
 91.0206818182 938.127272727 94.9295454545 942.036136364 94.9295454545 949.295454545 c 0
EndSplineSet
EndChar

StartChar: j
Encoding: 106 106 9
Width: 529
VWidth: 0
Flags: HW
LayerCount: 2
Fore
SplineSet
287.022272727 952.645909091 m 0
 289.255909091 958.23 299.865681818 960.463636364 323.877272727 960.463636364 c 2
 357.381818182 960.463636364 l 1
 357.381818182 932.543181818 l 1
 357.381818182 904.064318182 l 1
 322.760454545 905.739545455 l 1
 287.580681818 907.414772727 l 1
 285.905454545 925.842272727 l 2
 284.788636364 936.452045455 285.347045455 948.178636364 287.022272727 952.645909091 c 0
287.022272727 746.034545455 m 0
 289.255909091 751.618636364 300.424090909 753.852272727 323.877272727 753.852272727 c 2
 357.381818182 753.852272727 l 1
 357.381818182 723.139772727 l 2
 357.381818182 696.336136364 358.498636364 692.427272727 368.55 692.427272727 c 0
 379.159772727 692.427272727 379.718181818 688.518409091 379.718181818 586.329545455 c 0
 379.718181818 484.140681818 379.159772727 480.231818182 368.55 480.231818182 c 0
 357.940227273 480.231818182 357.381818182 476.322954545 357.381818182 416.014772727 c 0
 357.381818182 355.706590909 356.823409091 351.797727273 346.213636364 351.797727273 c 0
 336.162272727 351.797727273 335.045454545 347.888863636 335.045454545 309.917045455 c 0
 335.045454545 274.737272727 333.370227273 266.919545455 325.5525 263.569090909 c 0
 317.734772727 260.777045455 315.501136364 252.959318182 315.501136364 228.947727273 c 0
 315.501136364 201.585681818 314.384318182 198.235227273 303.216136364 196.56 c 0
 294.84 195.443181818 290.372727273 190.975909091 290.372727273 183.716590909 c 0
 290.372727273 177.574090909 286.463863636 171.431590909 281.996590909 169.756363636 c 0
 276.970909091 167.522727273 273.620454545 159.146590909 273.620454545 147.42 c 0
 273.620454545 130.667727273 271.945227273 128.434090909 259.660227273 128.434090909 c 0
 248.492045455 128.434090909 245.7 125.642045455 245.7 114.473863636 c 0
 245.7 105.539318182 242.349545455 100.513636364 237.323863636 100.513636364 c 0
 232.856590909 100.513636364 228.947727273 96.6047727273 228.947727273 92.1375 c 0
 228.947727273 87.1118181818 223.922045455 83.7613636364 214.9875 83.7613636364 c 0
 203.819318182 83.7613636364 201.027272727 80.9693181818 201.027272727 69.8011363636 c 0
 201.027272727 59.7497727273 198.235227273 55.8409090909 189.859090909 55.8409090909 c 0
 183.716590909 55.8409090909 178.690909091 51.9320454545 178.690909091 47.4647727273 c 0
 178.690909091 41.3222727273 172.548409091 39.0886363636 156.912954545 39.0886363636 c 0
 138.485454545 39.0886363636 134.576590909 36.855 132.901363636 26.2452272727 c 0
 131.784545455 16.1938636364 127.317272727 13.4018181818 110.565 12.285 c 0
 98.8384090909 11.1681818182 89.3454545455 8.37613636364 89.3454545455 5.02568181818 c 0
 89.3454545455 2.23363636364 74.2684090909 0 55.8409090909 0 c 0
 13.9602272727 0 -1.67522727273 11.1681818182 1.11681818182 39.6470454545 c 2
 2.79204545455 58.6329545455 l 1
 46.3479545455 60.3081818182 l 2
 84.8781818182 61.9834090909 89.3454545455 63.1002272727 89.3454545455 72.5931818182 c 0
 89.3454545455 79.8525 93.2543181818 83.7613636364 100.513636364 83.7613636364 c 0
 106.656136364 83.7613636364 111.681818182 87.6702272727 111.681818182 92.1375 c 0
 111.681818182 98.28 117.824318182 100.513636364 134.018181818 100.513636364 c 0
 154.120909091 100.513636364 156.354545455 102.188863636 156.354545455 114.473863636 c 0
 156.354545455 122.85 159.705 128.434090909 164.172272727 128.434090909 c 0
 168.639545455 128.434090909 173.106818182 134.018181818 174.223636364 141.2775 c 0
 175.340454545 149.095227273 180.366136364 154.120909091 188.183863636 155.237727273 c 0
 197.676818182 156.912954545 201.027272727 161.380227273 202.144090909 177.574090909 c 0
 203.260909091 194.326363636 206.611363636 198.793636364 216.662727273 199.910454545 c 0
 223.363636364 201.027272727 228.947727273 205.494545455 228.947727273 209.961818182 c 0
 228.947727273 214.429090909 232.856590909 217.779545455 237.323863636 217.779545455 c 0
 244.024772727 217.779545455 245.7 225.038863636 245.7 251.284090909 c 0
 245.7 280.879772727 246.816818182 284.788636364 256.868181818 284.788636364 c 0
 266.919545455 284.788636364 268.036363636 288.6975 268.036363636 318.293181818 c 0
 268.036363636 343.98 269.711590909 351.797727273 276.4125 351.797727273 c 0
 283.113409091 351.797727273 284.788636364 364.082727273 285.905454545 417.69 c 0
 287.580681818 480.790227273 288.139090909 483.023863636 300.424090909 484.699090909 c 0
 312.709090909 486.374318182 312.709090909 486.932727273 312.709090909 586.329545455 c 0
 312.709090909 685.726363636 312.709090909 686.284772727 300.424090909 687.96 c 0
 289.814318182 689.076818182 287.022272727 693.544090909 285.905454545 714.205227273 c 0
 284.788636364 727.607045455 285.347045455 742.125681818 287.022272727 746.034545455 c 0
EndSplineSet
EndChar

StartChar: k
Encoding: 107 107 10
Width: 624
VWidth: 0
Flags: HW
LayerCount: 2
Fore
SplineSet
168.081136364 1418.9175 m 0
 172.548409091 1421.70954545 183.716590909 1423.38477273 192.651136364 1422.82636364 c 0
 205.494545455 1421.70954545 209.961818182 1417.80068182 211.078636364 1408.86613636 c 0
 212.195454545 1401.60681818 216.662727273 1396.02272727 221.13 1396.02272727 c 0
 226.714090909 1396.02272727 228.947727273 1389.32181818 228.947727273 1373.68636364 c 0
 228.947727273 1357.4925 226.714090909 1351.35 220.571590909 1351.35 c 0
 213.312272727 1351.35 212.195454545 1339.065 212.195454545 1273.17272727 c 2
 212.195454545 1194.99545455 l 1
 198.235227273 1194.99545455 l 2
 184.833409091 1194.99545455 184.275 1193.32022727 184.275 1161.49090909 c 2
 184.275 1127.98636364 l 1
 203.819318182 1127.98636364 l 2
 219.454772727 1127.98636364 223.363636364 1130.22 223.363636364 1139.15454545 c 0
 223.363636364 1149.76431818 227.2725 1150.32272727 273.620454545 1150.32272727 c 0
 319.968409091 1150.32272727 323.877272727 1149.76431818 323.877272727 1139.15454545 c 0
 323.877272727 1133.01204545 327.786136364 1127.98636364 332.253409091 1127.98636364 c 0
 336.720681818 1127.98636364 340.629545455 1124.63590909 340.629545455 1120.16863636 c 0
 340.629545455 1115.70136364 346.213636364 1111.23409091 353.472954545 1110.11727273 c 0
 361.290681818 1109.00045455 366.316363636 1103.97477273 367.433181818 1096.15704545 c 0
 368.55 1088.89772727 373.017272727 1083.31363636 377.484545455 1083.31363636 c 0
 383.627045455 1083.31363636 385.302272727 1074.9375 385.302272727 1049.80909091 c 0
 385.302272727 1020.21340909 386.419090909 1016.30454545 396.470454545 1016.30454545 c 0
 406.521818182 1016.30454545 407.638636364 1012.39568182 407.638636364 982.8 c 0
 407.638636364 953.204318182 406.521818182 949.295454545 396.470454545 949.295454545 c 0
 386.419090909 949.295454545 385.302272727 945.386590909 385.302272727 915.790909091 c 0
 385.302272727 890.6625 383.627045455 882.286363636 377.484545455 882.286363636 c 0
 373.017272727 882.286363636 368.55 876.702272727 367.433181818 870.001363636 c 0
 366.316363636 859.391590909 361.849090909 856.599545455 345.096818182 855.482727273 c 0
 331.136590909 854.365909091 323.877272727 851.015454545 323.877272727 845.431363636 c 0
 323.877272727 839.288863636 315.501136364 837.613636364 288.6975 837.613636364 c 2
 253.517727273 837.613636364 l 1
 253.517727273 818.627727273 l 2
 253.517727273 804.6675 256.309772727 798.525 263.569090909 796.849772727 c 0
 269.153181818 795.174545455 273.620454545 789.032045455 273.620454545 782.331136364 c 0
 273.620454545 772.279772727 276.970909091 770.604545455 298.748863636 770.604545455 c 0
 319.968409091 770.604545455 323.877272727 768.929318182 323.877272727 759.436363636 c 0
 323.877272727 750.501818182 327.786136364 748.268181818 343.98 748.268181818 c 0
 359.057045455 748.268181818 364.641136364 745.476136364 366.874772727 737.1 c 0
 369.666818182 727.607045455 374.6925 725.931818182 402.612954545 725.931818182 c 0
 431.650227273 725.931818182 435.559090909 724.815 435.559090909 714.763636364 c 0
 435.559090909 705.829090909 439.467954545 703.595454545 455.103409091 703.595454545 c 2
 474.647727273 703.595454545 l 1
 474.647727273 670.090909091 l 1
 474.647727273 636.586363636 l 1
 443.376818182 636.586363636 l 2
 417.131590909 636.586363636 411.5475 638.261590909 409.313863636 647.754545455 c 0
 407.080227273 656.689090909 401.496136364 658.922727273 384.743863636 658.922727273 c 0
 366.874772727 658.922727273 362.965909091 660.597954545 362.965909091 670.090909091 c 0
 362.965909091 680.142272727 359.057045455 681.259090909 329.461363636 681.259090909 c 0
 303.216136364 681.259090909 295.956818182 682.934318182 295.956818182 689.635227273 c 0
 295.956818182 695.777727273 289.814318182 698.011363636 273.620454545 698.011363636 c 0
 253.517727273 698.011363636 251.284090909 699.686590909 251.284090909 711.971590909 c 0
 251.284090909 723.139772727 248.492045455 725.931818182 237.323863636 725.931818182 c 0
 228.389318182 725.931818182 223.363636364 729.282272727 223.363636364 734.307954545 c 0
 223.363636364 738.775227273 219.454772727 742.684090909 214.9875 742.684090909 c 0
 209.961818182 742.684090909 206.611363636 747.709772727 206.611363636 756.644318182 c 0
 206.611363636 766.695681818 203.819318182 770.604545455 195.443181818 770.604545455 c 0
 186.508636364 770.604545455 184.275 774.513409091 184.275 789.590454545 c 0
 184.275 804.109090909 181.482954545 809.134772727 172.548409091 811.368409091 c 0
 162.497045455 814.160454545 161.380227273 818.069318182 163.055454545 847.106590909 c 2
 164.730681818 879.494318182 l 1
 208.286590909 881.169545455 l 2
 241.232727273 882.286363636 251.284090909 884.52 251.284090909 890.6625 c 0
 251.284090909 897.363409091 259.101818182 899.038636364 284.788636364 899.038636364 c 2
 318.293181818 899.038636364 l 1
 318.293181818 924.725454545 l 2
 318.293181818 944.269772727 320.526818182 950.970681818 328.344545455 952.645909091 c 0
 335.603863636 954.879545455 337.8375 961.580454545 337.8375 982.8 c 0
 337.8375 1004.01954545 335.603863636 1010.72045455 328.344545455 1012.95409091 c 0
 320.526818182 1014.62931818 318.293181818 1020.77181818 318.293181818 1038.0825 c 0
 318.293181818 1056.51 316.617954545 1060.97727273 307.683409091 1060.97727273 c 0
 302.099318182 1060.97727273 295.956818182 1066.00295455 294.281590909 1072.70386364 c 0
 292.047954545 1081.63840909 287.580681818 1083.87204545 272.503636364 1082.19681818 c 0
 260.777045455 1081.08 254.076136364 1077.72954545 254.076136364 1072.14545455 c 0
 254.076136364 1066.56136364 247.375227273 1063.21090909 233.415 1062.09409091 c 0
 216.662727273 1060.41886364 212.195454545 1058.18522727 212.195454545 1049.25068182 c 0
 212.195454545 1041.43295455 208.286590909 1038.64090909 198.235227273 1038.64090909 c 0
 187.067045455 1038.64090909 184.275 1035.84886364 184.275 1024.68068182 c 0
 184.275 1015.74613636 180.924545455 1010.72045455 175.898863636 1010.72045455 c 0
 169.197954545 1010.72045455 167.522727273 1002.34431818 167.522727273 969.398181818 c 0
 167.522727273 930.309545455 166.964318182 927.5175 155.237727273 925.842272727 c 0
 142.952727273 924.167045455 142.394318182 921.375 140.719090909 867.209318182 c 0
 139.602272727 814.160454545 138.485454545 809.693181818 128.434090909 809.693181818 c 0
 118.382727273 809.693181818 117.265909091 805.784318182 117.265909091 776.188636364 c 0
 117.265909091 750.501818182 115.590681818 742.684090909 109.448181818 742.684090909 c 0
 103.864090909 742.684090909 100.513636364 735.424772727 99.3968181818 722.022954545 c 0
 98.28 704.712272727 95.4879545455 700.245 85.4365909091 699.128181818 c 0
 74.2684090909 697.452954545 72.5931818182 694.1025 72.5931818182 669.5325 c 0
 72.5931818182 649.988181818 70.3595454545 641.053636364 64.2170454545 638.82 c 0
 59.7497727273 636.586363636 55.8409090909 630.443863636 55.8409090909 624.859772727 c 0
 55.8409090909 615.925227273 51.3736363636 614.25 27.9204545455 614.25 c 2
 0 614.25 l 1
 0 658.922727273 l 2
 0 703.037045455 0 703.595454545 13.9602272727 703.595454545 c 0
 26.8036363636 703.595454545 27.9204545455 705.829090909 27.9204545455 725.931818182 c 0
 27.9204545455 744.359318182 29.5956818182 748.268181818 39.0886363636 748.268181818 c 0
 49.14 748.268181818 50.2568181818 752.177045455 50.2568181818 792.940909091 c 0
 50.2568181818 825.887045455 52.4904545455 838.172045455 58.0745454545 841.5225 c 0
 63.6586363636 844.872954545 67.0090909091 858.274772727 68.1259090909 885.078409091 c 0
 69.8011363636 920.816590909 70.9179545455 924.167045455 82.0861363636 925.842272727 c 0
 94.3711363636 927.5175 94.9295454545 929.192727273 94.9295454545 997.318636364 c 0
 94.9295454545 1054.27636364 96.6047727273 1066.56136364 103.305681818 1066.56136364 c 0
 109.448181818 1066.56136364 111.681818182 1077.17113636 112.798636364 1118.49340909 c 0
 114.473863636 1167.075 115.032272727 1169.86704545 127.317272727 1171.54227273 c 0
 139.602272727 1173.2175 139.602272727 1173.77590909 139.602272727 1276.52318182 c 2
 139.602272727 1379.27045455 l 1
 153.5625 1379.27045455 l 2
 165.8475 1379.27045455 166.964318182 1380.94568182 163.613863636 1396.58113636 c 0
 161.380227273 1408.30772727 163.055454545 1415.56704545 168.081136364 1418.9175 c 0
EndSplineSet
EndChar

StartChar: l
Encoding: 108 108 11
Width: 356
VWidth: 0
Flags: HW
LayerCount: 2
Fore
SplineSet
98.8384090909 1470.84954545 m 0
 104.980909091 1476.43363636 142.952727273 1472.52477273 140.719090909 1465.82386364 c 0
 139.602272727 1463.03181818 144.069545455 1459.12295455 150.212045455 1456.33090909 c 0
 160.263409091 1452.98045455 161.938636364 1447.39636364 161.938636364 1418.9175 c 0
 161.938636364 1393.23068182 159.705 1385.41295455 153.004090909 1383.73772727 c 0
 145.744772727 1382.0625 144.069545455 1370.33590909 143.511136364 1306.67727273 c 0
 142.394318182 1232.96727273 141.835909091 1231.29204545 130.109318182 1229.61681818 c 0
 117.824318182 1227.94159091 117.265909091 1226.26636364 117.265909091 1158.14045455 c 0
 117.265909091 1101.18272727 115.590681818 1088.89772727 108.889772727 1088.89772727 c 0
 102.188863636 1088.89772727 100.513636364 1075.49590909 99.3968181818 1012.39568182 c 0
 97.7215909091 937.010454545 97.1631818182 935.335227273 85.4365909091 933.66 c 0
 72.5931818182 931.984772727 72.5931818182 930.309545455 72.5931818182 848.781818182 c 0
 72.5931818182 767.254090909 72.5931818182 765.578863636 85.4365909091 763.903636364 c 0
 93.2543181818 762.786818182 98.28 757.761136364 99.3968181818 749.943409091 c 0
 100.513636364 742.684090909 103.305681818 737.1 106.097727273 737.1 c 0
 108.889772727 737.1 111.681818182 742.684090909 112.798636364 749.943409091 c 0
 113.915454545 757.761136364 118.941136364 762.786818182 127.317272727 763.903636364 c 0
 134.018181818 765.020454545 139.602272727 769.487727273 139.602272727 773.955 c 0
 139.602272727 779.539090909 146.303181818 781.772727273 161.938636364 781.772727273 c 0
 178.1325 781.772727273 184.275 779.539090909 184.275 773.396590909 c 0
 184.275 768.929318182 189.300681818 765.020454545 195.443181818 765.020454545 c 0
 204.936136364 765.020454545 206.611363636 761.111590909 206.611363636 739.892045455 c 0
 206.611363636 718.6725 204.936136364 714.763636364 195.443181818 714.763636364 c 0
 188.183863636 714.763636364 184.275 710.854772727 184.275 704.153863636 c 0
 184.275 695.219318182 179.807727273 692.985681818 163.613863636 691.310454545 c 0
 146.861590909 690.193636364 142.394318182 687.401590909 142.394318182 678.467045455 c 0
 142.394318182 668.974090909 138.485454545 667.298863636 120.057954545 667.298863636 c 0
 101.072045455 667.298863636 97.7215909091 668.974090909 96.0463636364 680.142272727 c 0
 94.3711363636 691.310454545 91.0206818182 692.427272727 60.8665909091 692.427272727 c 0
 31.8293181818 692.427272727 27.9204545455 693.544090909 27.9204545455 703.037045455 c 0
 27.9204545455 710.296363636 23.4531818182 714.763636364 15.6354545455 715.880454545 c 0
 2.79204545455 717.555681818 2.79204545455 717.555681818 2.79204545455 826.445454545 c 0
 2.79204545455 935.335227273 2.79204545455 935.335227273 15.6354545455 937.010454545 c 0
 27.9204545455 938.685681818 27.9204545455 940.360909091 27.9204545455 1016.86295455 c 2
 27.9204545455 1094.48181818 l 1
 42.4390909091 1094.48181818 l 1
 56.3993181818 1094.48181818 l 1
 55.2825 1159.25727273 l 2
 54.7240909091 1214.53977273 55.8409090909 1225.14954545 63.6586363636 1229.61681818 c 0
 70.9179545455 1234.08409091 72.5931818182 1246.36909091 72.5931818182 1309.46931818 c 0
 72.5931818182 1380.94568182 73.1515909091 1384.85454545 83.7613636364 1384.85454545 c 0
 93.8127272727 1384.85454545 94.9295454545 1388.76340909 94.9295454545 1425.61840909 c 0
 94.9295454545 1448.51318182 96.6047727273 1468.61590909 98.8384090909 1470.84954545 c 0
EndSplineSet
EndChar

StartChar: m
Encoding: 109 109 12
Width: 747
VWidth: 0
Flags: HW
LayerCount: 2
Fore
SplineSet
201.027272727 986.150454545 m 0
 201.027272727 1000.11068182 l 1
 258.543409091 998.435454545 l 2
 312.709090909 996.760227273 315.501136364 996.201818182 317.176363636 984.475227273 c 0
 318.293181818 977.215909091 322.760454545 971.631818182 327.227727273 971.631818182 c 0
 331.695 971.631818182 335.045454545 966.047727273 335.045454545 957.671590909 c 0
 335.045454545 947.620227273 337.8375 943.711363636 346.213636364 943.711363636 c 0
 355.148181818 943.711363636 357.381818182 939.8025 357.381818182 924.167045455 c 0
 357.381818182 910.206818182 359.615454545 904.622727273 365.757954545 904.622727273 c 0
 370.783636364 904.622727273 375.809318182 900.713863636 377.484545455 896.246590909 c 0
 379.718181818 891.779318182 385.860681818 887.870454545 391.444772727 887.870454545 c 0
 397.028863636 887.870454545 402.054545455 891.779318182 402.054545455 896.246590909 c 0
 402.054545455 900.713863636 407.080227273 904.622727273 413.222727273 904.622727273 c 0
 420.482045455 904.622727273 424.390909091 908.531590909 424.390909091 915.2325 c 0
 424.390909091 921.375 429.416590909 926.959090909 436.1175 928.634318182 c 0
 442.818409091 930.309545455 446.168863636 934.218409091 443.935227273 937.568863636 c 0
 441.701590909 941.477727273 446.168863636 943.711363636 454.545 943.711363636 c 0
 466.271590909 943.711363636 469.063636364 946.503409091 469.063636364 957.671590909 c 2
 469.063636364 971.631818182 l 1
 527.696590909 971.631818182 l 1
 586.329545455 971.631818182 l 1
 586.329545455 957.671590909 l 2
 586.329545455 949.853863636 589.121590909 943.711363636 591.913636364 943.711363636 c 0
 595.264090909 943.711363636 597.497727273 887.870454545 597.497727273 787.356818182 c 0
 597.497727273 686.843181818 595.264090909 631.002272727 591.913636364 631.002272727 c 0
 589.121590909 631.002272727 586.329545455 627.093409091 586.329545455 622.626136364 c 0
 586.329545455 617.600454545 581.303863636 614.25 572.369318182 614.25 c 0
 561.201136364 614.25 558.409090909 611.457954545 558.409090909 600.289772727 c 0
 558.409090909 591.355227273 555.058636364 586.329545455 550.032954545 586.329545455 c 0
 545.007272727 586.329545455 541.656818182 591.355227273 541.656818182 600.289772727 c 0
 541.656818182 611.457954545 538.864772727 614.25 527.696590909 614.25 c 0
 514.294772727 614.25 513.736363636 615.366818182 513.736363636 650.546590909 c 0
 513.736363636 685.726363636 514.294772727 686.843181818 527.696590909 686.843181818 c 2
 541.656818182 686.843181818 l 1
 541.656818182 792.940909091 l 1
 541.656818182 899.038636364 l 1
 519.320454545 899.038636364 l 2
 495.867272727 899.038636364 477.439772727 886.195227273 473.530909091 867.209318182 c 0
 472.414090909 861.625227273 466.271590909 856.599545455 459.012272727 855.482727273 c 0
 448.960909091 853.8075 446.727272727 849.898636364 446.727272727 834.263181818 c 0
 446.727272727 820.861363636 443.935227273 815.277272727 438.351136364 815.277272727 c 0
 432.208636364 815.277272727 429.975 809.134772727 429.975 792.940909091 c 0
 429.975 772.838181818 428.858181818 770.604545455 416.014772727 770.604545455 c 0
 404.846590909 770.604545455 402.054545455 767.8125 402.054545455 756.644318182 c 0
 402.054545455 746.592954545 399.2625 742.684090909 390.886363636 742.684090909 c 0
 381.951818182 742.684090909 379.718181818 738.775227273 379.718181818 723.698181818 c 0
 379.718181818 709.179545455 376.926136364 704.153863636 367.991590909 701.920227273 c 0
 358.498636364 699.128181818 356.823409091 695.219318182 358.498636364 680.142272727 c 0
 359.615454545 664.506818182 357.940227273 661.156363636 347.888863636 660.039545455 c 0
 336.720681818 658.364318182 335.603863636 654.455454545 333.928636364 623.742954545 c 2
 332.253409091 589.121590909 l 1
 301.540909091 589.121590909 l 1
 270.828409091 589.121590909 l 1
 269.153181818 635.469545455 l 2
 267.477954545 678.467045455 268.594772727 682.375909091 279.204545455 685.167954545 c 0
 288.6975 687.96 290.372727273 692.427272727 290.372727273 718.114090909 c 0
 290.372727273 744.359318182 291.489545455 748.268181818 301.540909091 748.268181818 c 0
 312.150681818 748.268181818 312.709090909 752.177045455 312.709090909 815.277272727 c 0
 312.709090909 877.819090909 312.150681818 882.286363636 302.099318182 882.286363636 c 0
 293.164772727 882.286363636 290.931136364 886.753636364 289.255909091 903.505909091 c 2
 287.580681818 924.167045455 l 1
 255.751363636 925.842272727 l 1
 223.363636364 927.5175 l 1
 223.363636364 907.973181818 l 2
 223.363636364 897.363409091 220.013181818 886.195227273 215.545909091 883.961590909 c 0
 211.078636364 881.727954545 207.169772727 874.468636364 206.052954545 868.326136364 c 0
 203.819318182 858.833181818 198.235227273 856.599545455 166.405909091 854.365909091 c 0
 130.109318182 851.573863636 128.9925 851.015454545 109.448181818 825.328636364 c 0
 91.0206818182 801.317045455 89.3454545455 795.732954545 89.3454545455 762.786818182 c 0
 89.3454545455 729.840681818 88.2286363636 725.931818182 78.1772727273 725.931818182 c 0
 70.9179545455 725.931818182 67.0090909091 722.022954545 67.0090909091 714.763636364 c 0
 67.0090909091 707.504318182 70.9179545455 703.595454545 78.1772727273 703.595454545 c 0
 87.6702272727 703.595454545 89.3454545455 699.686590909 89.3454545455 681.259090909 c 0
 89.3454545455 662.831590909 87.6702272727 658.922727273 78.1772727273 658.922727273 c 0
 68.6843181818 658.922727273 67.0090909091 655.013863636 67.0090909091 636.586363636 c 0
 67.0090909091 620.950909091 64.7754545455 614.25 59.1913636364 614.25 c 0
 54.7240909091 614.25 50.2568181818 608.665909091 49.14 601.965 c 0
 47.4647727273 590.796818182 44.1143181818 589.121590909 25.1284090909 589.121590909 c 2
 2.79204545455 589.121590909 l 1
 1.11681818182 657.805909091 l 2
 0 720.347727273 0.558409090909 727.048636364 9.49295454545 729.282272727 c 0
 18.4275 732.074318182 19.5443181818 739.892045455 19.5443181818 808.576363636 c 0
 19.5443181818 883.403181818 19.5443181818 885.078409091 32.3877272727 886.753636364 c 0
 44.1143181818 888.428863636 44.6727272727 891.220909091 44.6727272727 930.309545455 c 2
 44.6727272727 971.631818182 l 1
 80.9693181818 971.631818182 l 1
 117.265909091 971.631818182 l 1
 117.265909091 940.919318182 l 2
 117.265909091 911.882045455 125.083636364 900.155454545 131.784545455 918.582954545 c 0
 134.018181818 923.050227273 140.160681818 926.959090909 145.744772727 926.959090909 c 0
 151.328863636 926.959090909 156.354545455 930.867954545 156.354545455 935.335227273 c 0
 156.354545455 939.8025 159.705 943.711363636 164.172272727 943.711363636 c 0
 168.639545455 943.711363636 173.106818182 949.295454545 174.223636364 956.554772727 c 0
 175.340454545 964.3725 180.366136364 969.398181818 188.742272727 970.515 c 0
 197.676818182 972.190227273 201.027272727 976.099090909 201.027272727 986.150454545 c 0
EndSplineSet
EndChar

StartChar: n
Encoding: 110 110 13
Width: 596
VWidth: 0
Flags: HW
LayerCount: 2
Fore
SplineSet
268.036363636 1019.09659091 m 0
 268.036363636 1025.7975 277.529318182 1027.47272727 312.709090909 1027.47272727 c 0
 347.888863636 1027.47272727 357.381818182 1025.7975 357.381818182 1019.655 c 0
 357.381818182 1014.07090909 364.641136364 1010.72045455 378.601363636 1009.60363636 c 0
 395.353636364 1008.48681818 399.820909091 1005.69477273 400.937727273 995.643409091 c 0
 402.054545455 987.267272727 406.521818182 982.8 413.781136364 982.8 c 0
 421.040454545 982.8 424.390909091 978.891136364 424.390909091 971.073409091 c 0
 424.390909091 964.3725 428.858181818 958.23 435.559090909 956.554772727 c 0
 446.168863636 953.762727273 446.727272727 948.737045455 446.727272727 867.767727273 c 0
 446.727272727 785.681590909 446.168863636 781.772727273 435.559090909 781.772727273 c 0
 425.507727273 781.772727273 424.390909091 777.863863636 424.390909091 737.1 c 0
 424.390909091 696.336136364 423.274090909 692.427272727 413.222727273 692.427272727 c 0
 403.171363636 692.427272727 402.054545455 687.96 400.937727273 638.261590909 c 2
 399.2625 583.5375 l 1
 368.55 583.5375 l 1
 337.8375 583.5375 l 1
 336.162272727 638.261590909 l 2
 335.045454545 682.934318182 336.162272727 692.985681818 343.421590909 695.777727273 c 0
 350.1225 698.569772727 351.797727273 708.621136364 351.797727273 740.450454545 c 0
 351.797727273 780.655909091 352.356136364 781.772727273 365.757954545 781.772727273 c 2
 379.718181818 781.772727273 l 1
 379.718181818 859.95 l 2
 379.718181818 934.776818182 379.159772727 938.127272727 368.55 938.127272727 c 0
 362.4075 938.127272727 355.706590909 942.036136364 354.031363636 946.503409091 c 0
 351.239318182 952.645909091 340.629545455 954.879545455 309.358636364 954.879545455 c 0
 276.4125 954.879545455 268.036363636 953.204318182 268.036363636 946.503409091 c 0
 268.036363636 939.8025 260.777045455 938.127272727 234.531818182 938.127272727 c 0
 202.7025 938.127272727 201.027272727 937.568863636 201.027272727 924.167045455 c 0
 201.027272727 908.531590909 187.625454545 905.181136364 180.366136364 918.582954545 c 0
 176.457272727 925.283863636 171.431590909 925.842272727 154.679318182 920.816590909 c 0
 135.135 915.790909091 134.018181818 914.115681818 134.018181818 892.896136364 c 0
 134.018181818 877.260681818 131.226136364 869.442954545 124.525227273 866.650909091 c 0
 115.590681818 863.300454545 114.473863636 854.365909091 114.473863636 801.317045455 c 0
 114.473863636 742.125681818 113.915454545 739.892045455 102.188863636 738.216818182 c 0
 89.9038636364 736.541590909 89.3454545455 733.749545455 89.3454545455 689.076818182 c 0
 89.3454545455 651.663409091 87.6702272727 642.170454545 81.5277272727 642.170454545 c 0
 75.3852272727 642.170454545 72.5931818182 633.794318182 71.4763636364 613.133181818 c 2
 69.8011363636 583.5375 l 1
 35.1797727273 581.862272727 l 1
 0 580.187045455 l 1
 0 624.859772727 l 2
 0 666.740454545 0.558409090909 669.5325 12.8434090909 671.207727273 c 0
 24.0115909091 672.882954545 25.1284090909 675.675 25.6868181818 714.763636364 c 0
 26.2452272727 748.826590909 28.4788636364 757.202727273 35.7381818182 758.319545455 c 0
 43.5559090909 759.994772727 44.6727272727 770.046136364 44.6727272727 829.795909091 c 0
 44.6727272727 895.129772727 45.2311363636 899.038636364 55.8409090909 899.038636364 c 0
 65.8922727273 899.038636364 67.0090909091 903.505909091 68.1259090909 953.762727273 c 2
 69.8011363636 1007.92840909 l 1
 100.513636364 1007.92840909 l 1
 131.226136364 1007.92840909 l 1
 132.901363636 986.708863636 l 2
 134.576590909 966.606136364 135.135 966.047727273 146.861590909 974.423863636 c 0
 153.5625 978.891136364 163.055454545 982.8 168.639545455 982.8 c 0
 174.223636364 982.8 178.690909091 987.825681818 179.807727273 995.643409091 c 0
 181.482954545 1006.81159091 184.833409091 1007.92840909 225.038863636 1009.60363636 c 0
 257.985 1010.72045455 268.036363636 1012.95409091 268.036363636 1019.09659091 c 0
EndSplineSet
EndChar

StartChar: o
Encoding: 111 111 14
Width: 529
VWidth: 0
Flags: HW
LayerCount: 2
Fore
SplineSet
184.275 625.418181818 m 0
 184.275 636.027954545 188.183863636 636.586363636 251.284090909 636.586363636 c 0
 314.384318182 636.586363636 318.293181818 636.027954545 318.293181818 625.418181818 c 0
 318.293181818 618.158863636 322.202045455 614.25 329.461363636 614.25 c 0
 335.603863636 614.25 340.629545455 610.899545455 340.629545455 606.432272727 c 0
 340.629545455 601.965 346.213636364 597.497727273 353.472954545 596.380909091 c 0
 363.524318182 595.264090909 366.316363636 590.796818182 367.433181818 574.044545455 c 0
 368.55 562.317954545 371.342045455 552.825 374.6925 552.825 c 0
 377.484545455 552.825 379.718181818 514.294772727 379.718181818 460.6875 c 0
 379.718181818 403.171363636 377.484545455 368.55 374.134090909 368.55 c 0
 371.342045455 368.55 368.55 358.498636364 368.55 346.213636364 c 0
 368.55 326.110909091 367.433181818 323.877272727 354.589772727 323.877272727 c 0
 343.421590909 323.877272727 340.629545455 321.085227273 340.629545455 309.917045455 c 0
 340.629545455 300.9825 337.279090909 295.956818182 332.253409091 295.956818182 c 0
 321.643636364 295.956818182 301.540909091 275.854090909 301.540909091 265.244318182 c 0
 301.540909091 258.543409091 294.281590909 256.868181818 268.036363636 256.868181818 c 0
 240.674318182 256.868181818 233.973409091 255.192954545 228.947727273 245.7 c 0
 223.922045455 236.207045455 217.221136364 234.531818182 183.716590909 234.531818182 c 0
 149.095227273 234.531818182 144.069545455 235.648636364 141.2775 245.7 c 0
 138.485454545 255.192954545 133.459772727 256.868181818 105.539318182 256.868181818 c 0
 76.5020454545 256.868181818 72.5931818182 257.985 72.5931818182 268.036363636 c 0
 72.5931818182 274.737272727 68.6843181818 279.204545455 63.6586363636 279.204545455 c 0
 48.0231818182 279.204545455 27.9204545455 303.216136364 27.9204545455 322.202045455 c 0
 27.9204545455 336.162272727 25.1284090909 340.071136364 15.6354545455 341.746363636 c 0
 3.35045454545 343.421590909 2.79204545455 345.655227273 1.11681818182 419.923636364 c 2
 -0.558409090909 496.425681818 l 1
 34.6213636364 498.100909091 l 1
 69.8011363636 499.776136364 l 1
 71.4763636364 534.955909091 l 2
 73.1515909091 567.343636364 73.71 569.577272727 86.5534090909 569.577272727 c 0
 97.7215909091 569.577272727 99.9552272727 572.369318182 98.8384090909 582.420681818 c 0
 97.7215909091 592.472045455 100.513636364 595.264090909 117.265909091 596.380909091 c 0
 127.875681818 597.497727273 139.043863636 601.965 141.2775 606.432272727 c 0
 143.511136364 610.899545455 154.120909091 614.25 164.730681818 614.25 c 0
 180.366136364 614.25 184.275 616.483636364 184.275 625.418181818 c 0
295.956818182 544.448863636 m 0
 295.956818182 563.993181818 l 1
 251.8425 563.993181818 l 2
 217.779545455 563.993181818 207.169772727 562.317954545 204.377727273 555.617045455 c 0
 202.7025 550.591363636 193.767954545 547.240909091 181.482954545 547.240909091 c 0
 165.8475 547.240909091 161.938636364 545.007272727 161.938636364 536.072727273 c 0
 161.938636364 529.930227273 158.029772727 524.904545455 153.5625 524.904545455 c 0
 148.536818182 524.904545455 145.186363636 519.878863636 145.186363636 510.944318182 c 0
 145.186363636 497.5425 144.069545455 496.984090909 108.889772727 496.984090909 c 2
 72.5931818182 496.984090909 l 1
 72.5931818182 421.598863636 l 2
 72.5931818182 349.005681818 73.1515909091 346.213636364 84.3197727273 346.213636364 c 0
 91.0206818182 346.213636364 97.1631818182 341.746363636 98.8384090909 335.045454545 c 0
 101.072045455 326.110909091 106.656136364 323.877272727 123.408409091 323.877272727 c 0
 141.2775 323.877272727 145.186363636 322.202045455 145.186363636 312.709090909 c 0
 145.186363636 302.657727273 149.095227273 301.540909091 187.067045455 301.540909091 c 0
 225.038863636 301.540909091 228.947727273 302.657727273 228.947727273 312.150681818 c 0
 228.947727273 321.085227273 233.415 323.318863636 250.167272727 324.994090909 c 0
 264.1275 326.110909091 270.828409091 329.461363636 270.828409091 335.045454545 c 0
 270.828409091 339.512727273 276.4125 343.98 283.671818182 345.096818182 c 0
 291.489545455 346.213636364 295.956818182 350.680909091 295.956818182 357.940227273 c 0
 295.956818182 363.524318182 299.865681818 368.55 304.332954545 368.55 c 0
 311.592272727 368.55 312.709090909 380.835 312.709090909 446.727272727 c 0
 312.709090909 512.619545455 311.592272727 524.904545455 304.332954545 524.904545455 c 0
 298.748863636 524.904545455 295.956818182 531.047045455 295.956818182 544.448863636 c 0
EndSplineSet
EndChar

StartChar: p
Encoding: 112 112 15
Width: 686
VWidth: 0
Flags: HW
LayerCount: 2
Fore
SplineSet
316.617954545 716.997272727 m 0
 318.851590909 718.6725 359.615454545 719.789318182 407.080227273 719.230909091 c 0
 492.516818182 717.555681818 494.192045455 717.555681818 495.867272727 705.270681818 c 0
 496.984090909 698.011363636 501.451363636 692.427272727 505.918636364 692.427272727 c 0
 510.385909091 692.427272727 513.736363636 688.518409091 513.736363636 684.051136364 c 0
 513.736363636 679.583863636 518.762045455 675.675 524.904545455 675.675 c 0
 535.514318182 675.675 536.072727273 671.766136364 536.072727273 583.5375 c 0
 536.072727273 495.308863636 535.514318182 491.4 524.904545455 491.4 c 0
 516.528409091 491.4 513.736363636 487.491136364 513.736363636 477.439772727 c 0
 513.736363636 468.505227273 510.385909091 463.479545455 505.360227273 463.479545455 c 0
 500.892954545 463.479545455 496.984090909 459.570681818 496.984090909 455.103409091 c 0
 496.984090909 450.077727273 491.958409091 446.727272727 483.023863636 446.727272727 c 0
 471.855681818 446.727272727 469.063636364 443.935227273 469.063636364 432.767045455 c 0
 469.063636364 422.715681818 466.271590909 418.806818182 458.453863636 418.806818182 c 0
 452.869772727 418.806818182 446.727272727 414.897954545 444.493636364 410.430681818 c 0
 442.26 404.288181818 431.650227273 402.054545455 399.2625 402.054545455 c 0
 361.290681818 402.054545455 357.381818182 400.937727273 357.381818182 390.886363636 c 0
 357.381818182 380.276590909 353.472954545 379.718181818 260.218636364 379.718181818 c 2
 162.497045455 379.718181818 l 1
 160.821818182 359.057045455 l 2
 159.705 341.746363636 156.912954545 337.279090909 146.861590909 336.162272727 c 0
 134.576590909 334.487045455 134.018181818 332.253409091 134.018181818 278.646136364 c 0
 134.018181818 233.973409091 132.342954545 223.363636364 125.642045455 223.363636364 c 0
 120.057954545 223.363636364 117.265909091 214.429090909 116.149090909 188.183863636 c 0
 114.473863636 156.912954545 113.357045455 153.5625 102.188863636 151.887272727 c 0
 89.9038636364 150.212045455 89.3454545455 147.42 89.3454545455 108.331363636 c 0
 89.3454545455 75.3852272727 87.6702272727 67.0090909091 80.9693181818 67.0090909091 c 0
 74.8268181818 67.0090909091 72.5931818182 60.8665909091 72.5931818182 44.6727272727 c 0
 72.5931818182 24.57 71.4763636364 22.3363636364 58.6329545455 22.3363636364 c 0
 48.5815909091 22.3363636364 44.6727272727 19.5443181818 44.6727272727 11.1681818182 c 0
 44.6727272727 2.79204545455 40.7638636364 0 30.7125 0 c 0
 20.6611363636 0 16.7522727273 2.79204545455 16.7522727273 11.1681818182 c 0
 16.7522727273 17.3106818182 12.8434090909 22.3363636364 8.37613636364 22.3363636364 c 0
 1.67522727273 22.3363636364 0 30.1540909091 0 58.6329545455 c 0
 0 87.1118181818 1.67522727273 94.9295454545 8.37613636364 94.9295454545 c 0
 15.0770454545 94.9295454545 16.7522727273 103.305681818 16.7522727273 136.810227273 c 0
 16.7522727273 177.574090909 17.3106818182 178.690909091 30.7125 178.690909091 c 0
 44.1143181818 178.690909091 44.6727272727 179.807727273 44.6727272727 214.9875 c 0
 44.6727272727 250.167272727 45.2311363636 251.284090909 58.6329545455 251.284090909 c 2
 72.5931818182 251.284090909 l 1
 72.5931818182 307.125 l 2
 72.5931818182 352.914545455 74.2684090909 362.965909091 80.9693181818 362.965909091 c 0
 87.6702272727 362.965909091 89.3454545455 371.342045455 89.3454545455 404.846590909 c 0
 89.3454545455 442.818409091 90.4622727273 446.727272727 100.513636364 446.727272727 c 0
 110.565 446.727272727 111.681818182 450.636136364 111.681818182 480.231818182 c 0
 111.681818182 503.126590909 113.915454545 514.294772727 119.499545455 517.645227273 c 0
 124.525227273 520.437272727 128.434090909 533.280681818 129.550909091 550.032954545 c 0
 131.226136364 574.044545455 132.901363636 577.953409091 144.069545455 579.628636364 c 0
 155.237727273 581.303863636 156.354545455 584.654318182 156.354545455 614.808409091 c 0
 156.354545455 639.378409091 158.588181818 647.754545455 164.172272727 647.754545455 c 0
 168.639545455 647.754545455 173.106818182 653.338636364 174.223636364 660.597954545 c 0
 175.340454545 668.415681818 180.366136364 673.441363636 188.742272727 674.558181818 c 0
 198.793636364 676.233409091 201.027272727 673.999772727 201.027272727 662.273181818 c 0
 201.027272727 650.546590909 203.819318182 647.754545455 214.9875 647.754545455 c 0
 228.389318182 647.754545455 228.947727273 646.637727273 228.947727273 611.457954545 c 0
 228.947727273 576.278181818 228.389318182 575.161363636 214.9875 575.161363636 c 0
 201.585681818 575.161363636 201.027272727 573.486136364 201.027272727 544.448863636 c 0
 201.027272727 517.645227273 199.910454545 513.736363636 189.859090909 513.736363636 c 0
 179.807727273 513.736363636 178.690909091 509.8275 178.690909091 480.231818182 c 2
 178.690909091 446.727272727 l 1
 253.517727273 446.727272727 l 2
 323.318863636 446.727272727 328.344545455 447.285681818 331.136590909 457.895454545 c 0
 333.928636364 467.946818182 338.954318182 469.063636364 379.159772727 469.063636364 c 0
 420.482045455 469.063636364 424.390909091 470.180454545 424.390909091 480.231818182 c 0
 424.390909091 486.374318182 428.299772727 491.4 432.767045455 491.4 c 0
 437.792727273 491.4 441.143181818 496.425681818 441.143181818 505.360227273 c 0
 441.143181818 516.528409091 443.935227273 519.320454545 455.103409091 519.320454545 c 2
 469.063636364 519.320454545 l 1
 469.063636364 583.5375 l 1
 469.063636364 647.754545455 l 1
 402.612954545 647.754545455 l 2
 337.8375 647.754545455 335.603863636 647.196136364 333.928636364 635.469545455 c 0
 332.811818182 624.859772727 328.344545455 622.067727273 311.592272727 620.950909091 c 0
 297.632045455 619.834090909 290.372727273 616.483636364 290.372727273 610.899545455 c 0
 290.372727273 606.432272727 285.347045455 603.081818182 279.204545455 603.081818182 c 0
 273.062045455 603.081818182 268.036363636 606.990681818 268.036363636 611.457954545 c 0
 268.036363636 615.925227273 263.010681818 619.834090909 256.868181818 619.834090909 c 0
 247.375227273 619.834090909 245.7 623.742954545 245.7 647.754545455 c 0
 245.7 671.766136364 247.375227273 675.675 256.868181818 675.675 c 0
 263.010681818 675.675 268.036363636 679.583863636 268.036363636 684.051136364 c 0
 268.036363636 690.193636364 274.178863636 692.427272727 290.372727273 692.427272727 c 0
 308.241818182 692.427272727 312.709090909 694.660909091 312.709090909 702.478636364 c 0
 312.709090909 708.062727273 314.384318182 714.763636364 316.617954545 716.997272727 c 0
EndSplineSet
EndChar

StartChar: q
Encoding: 113 113 16
Width: 445
VWidth: 0
Flags: HW
LayerCount: 2
Fore
SplineSet
44.6727272727 787.915227273 m 0
 44.6727272727 797.408181818 49.6984090909 798.525 103.305681818 798.525 c 0
 158.029772727 798.525 161.938636364 797.966590909 161.938636364 787.356818182 c 0
 161.938636364 780.0975 165.8475 776.188636364 173.106818182 776.188636364 c 0
 179.249318182 776.188636364 184.275 772.838181818 184.275 768.370909091 c 0
 184.275 762.786818182 191.534318182 759.436363636 205.494545455 758.319545455 c 0
 222.246818182 757.202727273 226.714090909 754.410681818 227.830909091 744.359318182 c 0
 229.506136364 734.866363636 233.415 731.515909091 243.466363636 731.515909091 c 0
 255.192954545 731.515909091 256.868181818 729.282272727 256.868181818 709.179545455 c 0
 256.868181818 692.985681818 259.101818182 686.843181818 265.244318182 686.843181818 c 0
 270.27 686.843181818 273.620454545 681.8175 273.620454545 672.882954545 c 0
 273.620454545 662.831590909 276.4125 658.922727273 284.788636364 658.922727273 c 0
 294.281590909 658.922727273 295.956818182 655.013863636 295.956818182 636.586363636 c 2
 295.956818182 614.25 l 1
 262.452272727 614.25 l 2
 230.622954545 614.25 228.947727273 614.808409091 228.947727273 628.210227273 c 0
 228.947727273 639.378409091 226.155681818 642.170454545 214.9875 642.170454545 c 0
 206.052954545 642.170454545 201.027272727 645.520909091 201.027272727 650.546590909 c 0
 201.027272727 655.013863636 197.118409091 658.922727273 192.651136364 658.922727273 c 0
 187.625454545 658.922727273 184.275 663.948409091 184.275 672.882954545 c 0
 184.275 684.051136364 181.482954545 686.843181818 170.314772727 686.843181818 c 0
 161.380227273 686.843181818 156.354545455 690.193636364 156.354545455 695.219318182 c 0
 156.354545455 699.686590909 151.328863636 708.621136364 145.186363636 714.763636364 c 0
 131.784545455 728.165454545 100.513636364 729.840681818 100.513636364 717.555681818 c 0
 100.513636364 712.53 95.4879545455 709.179545455 86.5534090909 709.179545455 c 0
 73.71 709.179545455 72.5931818182 706.945909091 72.5931818182 684.051136364 c 0
 72.5931818182 662.831590909 70.9179545455 658.922727273 61.425 658.922727273 c 0
 52.4904545455 658.922727273 50.2568181818 655.013863636 50.2568181818 639.378409091 c 0
 50.2568181818 623.742954545 52.4904545455 619.834090909 61.425 619.834090909 c 0
 71.4763636364 619.834090909 72.5931818182 615.925227273 72.5931818182 589.121590909 c 0
 72.5931818182 560.084318182 73.1515909091 558.409090909 86.5534090909 558.409090909 c 0
 97.7215909091 558.409090909 100.513636364 555.617045455 100.513636364 544.448863636 c 0
 100.513636364 535.514318182 103.864090909 530.488636364 108.889772727 530.488636364 c 0
 113.357045455 530.488636364 117.265909091 525.462954545 117.265909091 519.320454545 c 0
 117.265909091 511.502727273 121.174772727 508.152272727 128.9925 508.152272727 c 0
 135.693409091 508.152272727 141.835909091 503.685 143.511136364 496.984090909 c 0
 147.978409091 480.790227273 171.431590909 482.465454545 187.625454545 500.334545455 c 0
 194.884772727 508.152272727 201.027272727 518.203636364 201.027272727 522.670909091 c 0
 201.027272727 527.138181818 206.611363636 530.488636364 214.9875 530.488636364 c 0
 226.155681818 530.488636364 228.947727273 533.280681818 228.947727273 544.448863636 c 0
 228.947727273 555.617045455 231.739772727 558.409090909 242.907954545 558.409090909 c 0
 254.076136364 558.409090909 256.868181818 555.617045455 256.868181818 544.448863636 c 0
 256.868181818 535.514318182 260.218636364 530.488636364 265.244318182 530.488636364 c 0
 272.503636364 530.488636364 273.620454545 509.269090909 273.620454545 374.134090909 c 0
 273.620454545 238.999090909 272.503636364 217.779545455 265.244318182 217.779545455 c 0
 258.543409091 217.779545455 256.868181818 210.520227273 256.868181818 184.275 c 0
 256.868181818 158.029772727 258.543409091 150.770454545 265.244318182 150.770454545 c 0
 271.945227273 150.770454545 273.620454545 143.511136364 273.620454545 117.265909091 c 0
 273.620454545 87.6702272727 274.737272727 83.7613636364 284.788636364 83.7613636364 c 0
 294.84 83.7613636364 295.956818182 79.8525 295.956818182 50.2568181818 c 2
 295.956818182 16.7522727273 l 1
 276.4125 16.7522727273 l 2
 265.802727273 16.7522727273 255.751363636 20.1027272727 252.959318182 24.57 c 0
 250.725681818 29.0372727273 238.440681818 33.5045454545 226.155681818 34.6213636364 c 2
 203.819318182 36.2965909091 l 1
 202.144090909 227.830909091 l 1
 201.027272727 418.806818182 l 1
 159.146590909 418.806818182 l 2
 121.174772727 418.806818182 117.265909091 419.923636364 117.265909091 429.975 c 0
 117.265909091 436.1175 113.357045455 441.143181818 108.889772727 441.143181818 c 0
 103.864090909 441.143181818 98.8384090909 445.052045455 97.1631818182 449.519318182 c 0
 94.9295454545 453.986590909 88.7870454545 457.895454545 83.2029545455 457.895454545 c 0
 75.3852272727 457.895454545 72.5931818182 461.804318182 72.5931818182 471.855681818 c 0
 72.5931818182 483.023863636 69.8011363636 485.815909091 58.6329545455 485.815909091 c 0
 49.6984090909 485.815909091 44.6727272727 489.166363636 44.6727272727 494.192045455 c 0
 44.6727272727 498.659318182 40.7638636364 502.568181818 36.2965909091 502.568181818 c 0
 31.2709090909 502.568181818 27.9204545455 507.593863636 27.9204545455 516.528409091 c 0
 27.9204545455 527.696590909 25.1284090909 530.488636364 13.9602272727 530.488636364 c 2
 0 530.488636364 l 1
 1.11681818182 629.885454545 l 2
 2.79204545455 727.607045455 2.79204545455 728.723863636 15.6354545455 730.399090909 c 0
 25.6868181818 732.074318182 27.9204545455 735.983181818 27.9204545455 751.618636364 c 0
 27.9204545455 763.903636364 31.2709090909 772.279772727 36.2965909091 773.955 c 0
 40.7638636364 776.188636364 44.6727272727 782.331136364 44.6727272727 787.915227273 c 0
228.947727273 429.975 m 0
 228.947727273 437.234318182 225.038863636 441.143181818 217.779545455 441.143181818 c 0
 210.520227273 441.143181818 206.611363636 437.234318182 206.611363636 429.975 c 0
 206.611363636 422.715681818 210.520227273 418.806818182 217.779545455 418.806818182 c 0
 225.038863636 418.806818182 228.947727273 422.715681818 228.947727273 429.975 c 0
EndSplineSet
EndChar

StartChar: r
Encoding: 114 114 17
Width: 641
VWidth: 0
Flags: HW
LayerCount: 2
Fore
SplineSet
295.956818182 865.534090909 m 0
 295.956818182 876.143863636 299.865681818 876.702272727 362.965909091 876.702272727 c 0
 426.066136364 876.702272727 429.975 876.143863636 429.975 865.534090909 c 0
 429.975 856.599545455 433.883863636 854.365909091 451.194545455 854.365909091 c 0
 481.348636364 854.365909091 491.4 840.405681818 491.4 798.525 c 2
 491.4 765.020454545 l 1
 457.895454545 765.020454545 l 1
 424.390909091 765.020454545 l 1
 424.390909091 784.564772727 l 1
 424.390909091 804.109090909 l 1
 360.173863636 804.109090909 l 2
 306.566590909 804.109090909 295.956818182 802.433863636 295.956818182 795.732954545 c 0
 295.956818182 790.148863636 289.814318182 787.356818182 276.4125 787.356818182 c 0
 260.777045455 787.356818182 256.868181818 785.123181818 256.868181818 776.188636364 c 0
 256.868181818 766.137272727 252.959318182 765.020454545 218.337954545 765.020454545 c 0
 180.366136364 765.020454545 139.602272727 753.293863636 139.602272727 742.684090909 c 0
 139.602272727 739.333636364 134.576590909 737.1 128.434090909 737.1 c 0
 117.824318182 737.1 117.265909091 733.191136364 117.265909091 672.882954545 c 0
 117.265909091 620.3925 115.590681818 608.665909091 108.889772727 608.665909091 c 0
 103.305681818 608.665909091 100.513636364 599.731363636 99.3968181818 574.044545455 c 0
 97.7215909091 542.215227273 96.6047727273 538.864772727 84.8781818182 537.189545455 c 0
 74.8268181818 535.514318182 72.5931818182 531.605454545 72.5931818182 515.97 c 0
 72.5931818182 503.685 69.8011363636 496.984090909 64.7754545455 496.984090909 c 0
 60.8665909091 496.984090909 55.8409090909 491.958409091 54.1656818182 485.815909091 c 0
 50.2568181818 471.297272727 35.7381818182 471.297272727 27.9204545455 485.815909091 c 0
 24.57 491.958409091 16.7522727273 496.984090909 11.1681818182 496.984090909 c 0
 1.67522727273 496.984090909 0 500.892954545 0 519.320454545 c 0
 0 539.423181818 1.67522727273 541.656818182 13.9602272727 541.656818182 c 0
 27.9204545455 541.656818182 27.9204545455 542.215227273 27.9204545455 589.121590909 c 0
 27.9204545455 632.6775 29.0372727273 636.586363636 39.0886363636 636.586363636 c 0
 49.6984090909 636.586363636 50.2568181818 640.495227273 50.2568181818 700.245 c 0
 50.2568181818 754.969090909 51.3736363636 764.462045455 59.1913636364 766.137272727 c 0
 66.4506818182 767.254090909 68.6843181818 775.071818182 69.2427272727 801.317045455 c 0
 69.8011363636 829.795909091 71.4763636364 834.821590909 80.9693181818 836.496818182 c 0
 87.1118181818 838.172045455 94.9295454545 843.197727273 98.8384090909 848.223409091 c 0
 105.539318182 856.599545455 106.656136364 856.599545455 113.915454545 847.665 c 0
 117.824318182 842.080909091 125.642045455 837.613636364 130.667727273 837.613636364 c 0
 137.368636364 837.613636364 139.602272727 832.587954545 139.602272727 817.510909091 c 0
 139.602272727 801.317045455 141.2775 797.966590909 148.536818182 800.758636364 c 0
 153.5625 802.433863636 163.613863636 805.784318182 170.873181818 807.459545455 c 0
 180.366136364 809.693181818 184.275 814.718863636 184.275 824.211818182 c 0
 184.275 835.938409091 187.067045455 837.613636364 203.260909091 837.613636364 c 0
 214.9875 837.613636364 223.363636364 840.964090909 225.597272727 845.989772727 c 0
 227.830909091 852.132272727 237.323863636 854.365909091 262.452272727 854.365909091 c 0
 292.047954545 854.365909091 295.956818182 855.482727273 295.956818182 865.534090909 c 0
EndSplineSet
EndChar

StartChar: s
Encoding: 115 115 18
Width: 574
VWidth: 0
Flags: HW
LayerCount: 2
Fore
SplineSet
184.275 988.384090909 m 0
 184.275 998.993863636 188.183863636 999.552272727 276.4125 999.552272727 c 0
 354.589772727 999.552272727 368.55 998.435454545 368.55 991.176136364 c 0
 368.55 980.566363636 386.9775 962.138863636 400.379318182 959.346818182 c 0
 405.963409091 958.23 410.989090909 952.0875 412.105909091 944.828181818 c 0
 413.222727273 938.127272727 416.573181818 932.543181818 419.365227273 932.543181818 c 0
 422.157272727 932.543181818 424.390909091 922.491818182 424.390909091 910.206818182 c 2
 424.390909091 887.870454545 l 1
 393.678409091 887.870454545 l 2
 366.874772727 887.870454545 362.965909091 888.987272727 362.965909091 899.038636364 c 0
 362.965909091 907.973181818 359.057045455 910.206818182 343.421590909 910.206818182 c 0
 330.019772727 910.206818182 323.877272727 912.998863636 323.877272727 918.024545455 c 0
 323.877272727 924.167045455 316.059545455 926.959090909 297.632045455 928.075909091 c 0
 274.737272727 929.751136364 270.828409091 931.426363636 269.153181818 942.594545455 c 0
 268.036363636 949.295454545 265.244318182 954.879545455 262.452272727 954.879545455 c 0
 259.660227273 954.879545455 256.868181818 949.295454545 255.751363636 942.594545455 c 0
 254.634545455 932.543181818 249.608863636 929.192727273 234.531818182 928.075909091 c 0
 223.922045455 926.959090909 212.753863636 922.491818182 210.520227273 918.024545455 c 0
 208.286590909 913.557272727 201.027272727 910.206818182 195.443181818 910.206818182 c 0
 188.183863636 910.206818182 184.275 906.297954545 184.275 899.038636364 c 0
 184.275 891.779318182 180.366136364 887.870454545 173.106818182 887.870454545 c 0
 163.613863636 887.870454545 161.938636364 883.961590909 161.938636364 865.534090909 c 2
 161.938636364 843.197727273 l 1
 195.443181818 843.197727273 l 2
 225.038863636 843.197727273 228.947727273 842.080909091 228.947727273 832.029545455 c 0
 228.947727273 821.978181818 232.856590909 820.861363636 276.4125 820.861363636 c 0
 314.942727273 820.861363636 323.877272727 819.186136364 323.877272727 812.485227273 c 0
 323.877272727 808.017954545 327.786136364 804.109090909 332.253409091 804.109090909 c 0
 337.279090909 804.109090909 340.629545455 799.083409091 340.629545455 790.148863636 c 0
 340.629545455 778.980681818 343.421590909 776.188636364 354.589772727 776.188636364 c 0
 368.55 776.188636364 368.55 775.630227273 368.55 731.515909091 c 0
 368.55 687.401590909 368.55 686.843181818 354.589772727 686.843181818 c 0
 343.421590909 686.843181818 340.629545455 684.051136364 340.629545455 672.882954545 c 0
 340.629545455 663.948409091 337.279090909 658.922727273 332.253409091 658.922727273 c 0
 327.786136364 658.922727273 323.877272727 655.013863636 323.877272727 650.546590909 c 0
 323.877272727 645.520909091 318.851590909 642.170454545 309.917045455 642.170454545 c 0
 299.865681818 642.170454545 295.956818182 639.378409091 295.956818182 631.002272727 c 0
 295.956818182 620.950909091 292.047954545 619.834090909 254.634545455 619.834090909 c 0
 218.337954545 619.834090909 213.312272727 618.717272727 210.520227273 608.665909091 c 0
 207.728181818 598.056136364 202.7025 597.497727273 120.616363636 597.497727273 c 0
 39.6470454545 597.497727273 33.5045454545 598.056136364 27.9204545455 608.665909091 c 0
 24.57 614.808409091 16.7522727273 619.834090909 11.1681818182 619.834090909 c 0
 1.67522727273 619.834090909 0 623.742954545 0 642.170454545 c 2
 0 664.506818182 l 1
 103.305681818 664.506818182 l 2
 202.7025 664.506818182 206.611363636 665.065227273 206.611363636 675.675 c 0
 206.611363636 685.726363636 210.520227273 686.843181818 236.765454545 686.843181818 c 0
 261.893863636 686.843181818 266.919545455 688.518409091 269.711590909 698.011363636 c 0
 271.386818182 704.712272727 277.529318182 709.179545455 284.230227273 709.179545455 c 0
 294.281590909 709.179545455 295.956818182 712.53 295.956818182 731.515909091 c 2
 295.956818182 753.852272727 l 1
 254.076136364 753.852272727 l 2
 223.922045455 753.852272727 211.637045455 756.085909091 208.286590909 761.67 c 0
 205.494545455 766.695681818 192.651136364 770.604545455 173.106818182 771.721363636 c 0
 146.303181818 773.396590909 142.394318182 775.071818182 140.719090909 786.24 c 0
 139.602272727 792.940909091 135.135 798.525 130.109318182 798.525 c 0
 125.642045455 798.525 115.590681818 804.109090909 108.331363636 811.368409091 c 0
 96.6047727273 821.978181818 94.9295454545 828.679090909 94.9295454545 864.975681818 c 0
 94.9295454545 899.597045455 96.6047727273 907.973181818 107.772954545 919.141363636 c 0
 114.473863636 926.400681818 124.525227273 932.543181818 130.109318182 932.543181818 c 0
 135.135 932.543181818 139.602272727 936.452045455 139.602272727 941.477727273 c 0
 139.602272727 953.762727273 162.497045455 977.215909091 174.782045455 977.215909091 c 0
 180.366136364 977.215909091 184.275 981.683181818 184.275 988.384090909 c 0
EndSplineSet
EndChar

StartChar: t
Encoding: 116 116 19
Width: 602
VWidth: 0
Flags: HW
LayerCount: 2
Fore
SplineSet
255.192954545 1386.52977273 m 0
 263.569090909 1395.46431818 273.620454545 1389.88022727 273.620454545 1376.47840909 c 0
 273.620454545 1365.31022727 276.4125 1362.51818182 287.580681818 1362.51818182 c 0
 302.099318182 1362.51818182 302.099318182 1362.51818182 300.424090909 1319.52068182 c 0
 298.748863636 1279.31522727 297.632045455 1275.96477273 286.463863636 1274.28954545 c 0
 274.178863636 1272.61431818 273.620454545 1269.82227273 273.620454545 1225.14954545 c 0
 273.620454545 1187.17772727 271.945227273 1178.24318182 265.244318182 1178.24318182 c 0
 258.543409091 1178.24318182 256.868181818 1167.63340909 256.868181818 1114.02613636 c 0
 256.868181818 1071.02863636 259.101818182 1049.80909091 263.010681818 1049.80909091 c 0
 266.361136364 1049.80909091 270.27 1054.83477273 271.945227273 1060.97727273 c 0
 274.178863636 1069.35340909 279.762954545 1072.14545455 293.723181818 1072.14545455 c 0
 308.800227273 1072.14545455 312.709090909 1074.37909091 312.709090909 1083.31363636 c 0
 312.709090909 1093.92340909 316.617954545 1094.48181818 382.510227273 1094.48181818 c 2
 452.311363636 1094.48181818 l 1
 452.311363636 1072.14545455 l 2
 452.311363636 1050.3675 451.752954545 1049.80909091 433.325454545 1049.80909091 c 0
 417.69 1049.80909091 413.781136364 1047.57545455 412.105909091 1037.52409091 c 0
 410.430681818 1025.7975 407.080227273 1024.68068182 375.809318182 1023.00545455 c 0
 349.564090909 1021.88863636 340.629545455 1019.09659091 340.629545455 1013.5125 c 0
 340.629545455 1007.37 333.928636364 1005.13636364 318.293181818 1005.13636364 c 0
 302.099318182 1005.13636364 295.956818182 1007.37 295.956818182 1013.5125 c 0
 295.956818182 1017.97977273 290.931136364 1021.88863636 284.788636364 1021.88863636 c 0
 278.646136364 1021.88863636 273.620454545 1017.97977273 273.620454545 1013.5125 c 0
 273.620454545 1007.37 267.477954545 1005.13636364 251.284090909 1005.13636364 c 0
 232.856590909 1005.13636364 228.947727273 1003.46113636 228.947727273 993.968181818 c 0
 228.947727273 986.708863636 225.038863636 982.8 217.779545455 982.8 c 0
 207.169772727 982.8 206.611363636 978.891136364 206.611363636 926.959090909 c 0
 206.611363636 878.935909091 205.494545455 870.001363636 197.118409091 866.650909091 c 0
 188.742272727 863.300454545 187.067045455 854.924318182 187.067045455 809.693181818 c 0
 187.067045455 758.877954545 186.508636364 756.644318182 174.782045455 754.969090909 c 0
 163.613863636 753.293863636 161.938636364 749.943409091 161.938636364 725.931818182 c 0
 161.938636364 701.920227273 163.613863636 698.569772727 174.782045455 696.894545455 c 0
 185.391818182 695.219318182 187.067045455 691.868863636 187.067045455 671.207727273 c 0
 187.067045455 647.754545455 187.067045455 647.754545455 207.169772727 647.754545455 c 0
 223.363636364 647.754545455 228.389318182 644.9625 230.622954545 636.027954545 c 0
 232.856590909 627.093409091 237.323863636 624.859772727 252.400909091 626.535 c 0
 269.153181818 628.210227273 270.828409091 629.885454545 270.828409091 647.754545455 c 2
 271.386818182 667.298863636 l 1
 306.008181818 668.974090909 l 1
 340.629545455 670.649318182 l 1
 340.629545455 633.794318182 l 2
 340.629545455 605.315454545 338.954318182 597.497727273 332.253409091 597.497727273 c 0
 321.643636364 597.497727273 301.540909091 577.395 301.540909091 566.785227273 c 0
 301.540909091 560.084318182 292.047954545 558.409090909 251.284090909 558.409090909 c 0
 204.936136364 558.409090909 201.027272727 558.9675 201.027272727 569.577272727 c 0
 201.027272727 578.511818182 197.118409091 580.745454545 183.716590909 580.745454545 c 0
 164.172272727 580.745454545 139.602272727 600.289772727 139.602272727 615.925227273 c 0
 139.602272727 621.509318182 135.135 625.418181818 128.434090909 625.418181818 c 0
 119.499545455 625.418181818 117.265909091 629.327045455 117.265909091 644.9625 c 0
 117.265909091 657.2475 113.915454545 665.623636364 107.772954545 669.5325 c 0
 99.3968181818 673.999772727 98.28 681.259090909 99.3968181818 716.997272727 c 0
 101.072045455 748.826590909 103.305681818 759.436363636 109.448181818 759.436363636 c 0
 115.590681818 759.436363636 117.265909091 769.487727273 117.265909091 806.901136364 c 0
 117.265909091 850.457045455 118.382727273 854.365909091 128.434090909 854.365909091 c 0
 139.043863636 854.365909091 139.602272727 858.274772727 139.602272727 918.582954545 c 0
 139.602272727 971.073409091 141.2775 982.8 147.978409091 982.8 c 0
 154.120909091 982.8 156.354545455 992.851363636 157.471363636 1026.35590909 c 0
 159.146590909 1066.00295455 160.263409091 1069.35340909 171.99 1071.02863636 c 0
 183.716590909 1072.70386364 184.275 1074.9375 184.275 1139.71295455 c 0
 184.275 1194.99545455 185.950227273 1206.16363636 192.651136364 1206.16363636 c 0
 199.352045455 1206.16363636 201.027272727 1215.09818182 201.027272727 1250.83636364 c 0
 201.027272727 1294.95068182 201.027272727 1295.50909091 214.9875 1295.50909091 c 0
 228.389318182 1295.50909091 228.947727273 1297.18431818 228.947727273 1329.01363636 c 0
 228.947727273 1358.60931818 230.064545455 1362.51818182 240.115909091 1362.51818182 c 0
 247.375227273 1362.51818182 251.284090909 1366.42704545 251.284090909 1372.56954545 c 0
 251.284090909 1378.15363636 252.959318182 1384.85454545 255.192954545 1386.52977273 c 0
29.5956818182 1060.97727273 m 0
 32.3877272727 1071.58704545 36.2965909091 1072.70386364 73.71 1071.02863636 c 2
 114.473863636 1069.35340909 l 1
 116.149090909 1036.96568182 l 1
 117.824318182 1004.57795455 l 1
 60.3081818182 1006.25318182 l 1
 2.79204545455 1007.92840909 l 1
 1.11681818182 1029.14795455 l 2
 -0.558409090909 1047.57545455 0.558409090909 1049.80909091 12.8434090909 1049.80909091 c 0
 21.7779545455 1049.80909091 27.3620454545 1053.71795455 29.5956818182 1060.97727273 c 0
EndSplineSet
EndChar

StartChar: u
Encoding: 117 117 20
Width: 529
VWidth: 0
Flags: HW
LayerCount: 2
Fore
SplineSet
54.1656818182 872.793409091 m 0
 62.5418181818 881.727954545 92.6959090909 876.143863636 104.980909091 863.300454545 c 0
 118.941136364 848.223409091 121.174772727 832.029545455 108.889772727 832.029545455 c 0
 102.747272727 832.029545455 100.513636364 820.861363636 99.3968181818 775.071818182 c 0
 97.7215909091 720.347727273 97.1631818182 717.555681818 85.4365909091 715.880454545 c 0
 73.71 714.205227273 72.5931818182 710.854772727 72.5931818182 684.051136364 c 0
 72.5931818182 657.2475 73.71 653.897045455 85.4365909091 652.221818182 c 0
 96.0463636364 650.546590909 97.7215909091 646.637727273 99.3968181818 622.626136364 c 0
 100.513636364 605.873863636 104.4225 593.030454545 109.448181818 590.238409091 c 0
 113.915454545 588.004772727 117.265909091 580.745454545 117.265909091 575.161363636 c 0
 117.265909091 565.668409091 121.174772727 563.993181818 142.394318182 563.993181818 c 0
 160.821818182 563.993181818 167.522727273 561.759545455 167.522727273 555.617045455 c 0
 167.522727273 550.032954545 173.665227273 547.240909091 187.067045455 547.240909091 c 0
 200.468863636 547.240909091 206.611363636 550.032954545 206.611363636 555.617045455 c 0
 206.611363636 560.084318182 209.961818182 563.993181818 214.429090909 563.993181818 c 0
 218.896363636 563.993181818 223.363636364 569.577272727 224.480454545 576.836590909 c 0
 225.597272727 584.654318182 230.622954545 589.68 238.999090909 590.796818182 c 0
 249.050454545 592.472045455 251.284090909 596.380909091 251.284090909 612.016363636 c 0
 251.284090909 625.418181818 254.076136364 631.002272727 259.660227273 631.002272727 c 0
 265.802727273 631.002272727 268.036363636 637.144772727 268.036363636 653.338636364 c 0
 268.036363636 673.441363636 269.711590909 675.675 281.996590909 675.675 c 0
 295.956818182 675.675 295.956818182 676.233409091 295.956818182 720.347727273 c 0
 295.956818182 761.111590909 297.073636364 765.020454545 307.125 765.020454545 c 0
 317.176363636 765.020454545 318.293181818 769.487727273 319.41 819.744545455 c 2
 321.085227273 873.910227273 l 1
 350.680909091 875.585454545 l 1
 379.718181818 877.260681818 l 1
 379.718181818 818.627727273 l 2
 379.718181818 782.889545455 377.484545455 759.436363636 374.134090909 759.436363636 c 0
 370.783636364 759.436363636 368.55 741.567272727 368.55 717.555681818 c 0
 368.55 676.791818182 367.991590909 675.675 354.589772727 675.675 c 0
 341.187954545 675.675 340.629545455 674.558181818 340.629545455 639.378409091 c 0
 340.629545455 610.899545455 338.954318182 603.081818182 332.253409091 603.081818182 c 0
 326.669318182 603.081818182 323.877272727 596.939318182 323.877272727 583.5375 c 0
 323.877272727 567.902045455 321.643636364 563.993181818 312.709090909 563.993181818 c 0
 307.125 563.993181818 299.307272727 558.9675 295.956818182 552.825 c 0
 292.606363636 546.6825 286.463863636 541.656818182 281.996590909 541.656818182 c 0
 277.529318182 541.656818182 273.620454545 536.631136364 273.620454545 531.047045455 c 0
 273.620454545 524.904545455 269.153181818 519.320454545 264.1275 518.203636364 c 0
 258.543409091 517.086818182 254.076136364 511.502727273 254.076136364 505.360227273 c 0
 254.076136364 494.750454545 250.167272727 494.192045455 161.938636364 494.192045455 c 0
 70.9179545455 494.192045455 69.8011363636 494.192045455 68.1259090909 507.035454545 c 0
 67.0090909091 513.736363636 62.5418181818 519.320454545 58.0745454545 519.320454545 c 0
 52.4904545455 519.320454545 50.2568181818 526.021363636 50.2568181818 541.656818182 c 0
 50.2568181818 560.084318182 48.5815909091 563.993181818 39.0886363636 563.993181818 c 0
 29.0372727273 563.993181818 27.9204545455 567.902045455 27.9204545455 597.497727273 c 0
 27.9204545455 629.327045455 27.3620454545 631.002272727 13.9602272727 631.002272727 c 0
 0 631.002272727 0 631.560681818 0 675.675 c 0
 0 719.789318182 0 720.347727273 13.9602272727 720.347727273 c 2
 27.9204545455 720.347727273 l 1
 27.9204545455 776.188636364 l 2
 27.9204545455 828.120681818 28.4788636364 832.029545455 39.0886363636 832.029545455 c 0
 48.0231818182 832.029545455 50.2568181818 835.938409091 50.2568181818 850.457045455 c 0
 50.2568181818 861.066818182 51.9320454545 871.118181818 54.1656818182 872.793409091 c 0
EndSplineSet
EndChar

StartChar: v
Encoding: 118 118 21
Width: 524
VWidth: 0
Flags: HW
LayerCount: 2
Fore
SplineSet
0 608.665909091 m 0
 0 642.728863636 l 1
 35.1797727273 641.053636364 l 1
 69.8011363636 639.378409091 l 1
 71.4763636364 619.834090909 l 2
 72.5931818182 609.224318182 77.0604545455 598.056136364 81.5277272727 595.8225 c 0
 87.1118181818 592.472045455 89.3454545455 580.745454545 89.3454545455 558.409090909 c 0
 89.3454545455 528.813409091 90.4622727273 524.904545455 100.513636364 524.904545455 c 0
 109.448181818 524.904545455 111.681818182 520.995681818 111.681818182 505.360227273 c 0
 111.681818182 488.049545455 113.357045455 485.815909091 125.642045455 485.815909091 c 0
 134.576590909 485.815909091 139.602272727 482.465454545 139.602272727 477.439772727 c 0
 139.602272727 472.9725 143.511136364 469.063636364 147.978409091 469.063636364 c 0
 154.120909091 469.063636364 156.354545455 462.921136364 156.354545455 446.727272727 c 0
 156.354545455 428.299772727 158.029772727 424.390909091 167.522727273 424.390909091 c 0
 173.665227273 424.390909091 178.690909091 428.299772727 178.690909091 432.767045455 c 0
 178.690909091 437.234318182 182.041363636 441.143181818 186.508636364 441.143181818 c 0
 190.975909091 441.143181818 195.443181818 446.727272727 196.56 453.986590909 c 0
 197.676818182 461.804318182 202.7025 466.83 210.520227273 467.946818182 c 0
 217.779545455 469.063636364 223.363636364 473.530909091 223.363636364 477.998181818 c 0
 223.363636364 482.465454545 227.2725 485.815909091 231.739772727 485.815909091 c 0
 236.207045455 485.815909091 240.115909091 490.841590909 240.115909091 496.425681818 c 0
 240.115909091 503.685 244.583181818 508.152272727 252.959318182 509.269090909 c 0
 263.010681818 510.385909091 265.802727273 514.853181818 266.919545455 532.163863636 c 0
 268.594772727 548.357727273 270.828409091 552.825 279.762954545 552.825 c 0
 286.463863636 552.825 290.372727273 556.733863636 290.372727273 563.993181818 c 0
 290.372727273 570.694090909 295.398409091 577.395 302.099318182 579.628636364 c 0
 308.241818182 582.420681818 313.2675 586.329545455 312.709090909 589.121590909 c 0
 312.709090909 592.472045455 317.176363636 595.264090909 323.318863636 596.380909091 c 0
 329.461363636 597.497727273 335.045454545 603.081818182 336.162272727 610.341136364 c 0
 338.395909091 626.535 354.031363636 625.976590909 356.265 610.341136364 c 0
 357.381818182 603.081818182 361.849090909 597.497727273 366.316363636 597.497727273 c 0
 371.900454545 597.497727273 374.134090909 590.796818182 374.134090909 575.161363636 c 0
 374.134090909 558.9675 371.900454545 552.825 365.757954545 552.825 c 0
 360.732272727 552.825 357.381818182 547.799318182 357.381818182 538.864772727 c 0
 357.381818182 530.488636364 354.031363636 524.904545455 349.564090909 524.904545455 c 0
 343.98 524.904545455 340.629545455 517.645227273 339.512727273 504.243409091 c 0
 338.395909091 486.932727273 335.603863636 482.465454545 325.5525 481.348636364 c 0
 318.293181818 480.231818182 312.709090909 475.764545455 312.709090909 471.297272727 c 0
 312.709090909 466.83 309.358636364 463.479545455 304.891363636 463.479545455 c 0
 300.424090909 463.479545455 295.956818182 457.895454545 294.84 451.194545455 c 0
 293.723181818 442.818409091 288.6975 437.792727273 280.879772727 436.675909091 c 0
 273.620454545 435.559090909 268.036363636 431.091818182 268.036363636 426.624545455 c 0
 268.036363636 422.157272727 263.010681818 418.806818182 256.868181818 418.806818182 c 0
 249.608863636 418.806818182 245.7 414.897954545 245.7 408.197045455 c 0
 245.7 402.054545455 241.232727273 396.470454545 236.207045455 395.353636364 c 0
 230.622954545 394.236818182 226.155681818 388.652727273 226.155681818 382.510227273 c 0
 226.155681818 375.250909091 221.688409091 370.783636364 213.870681818 369.666818182 c 0
 206.611363636 368.55 201.027272727 364.082727273 201.027272727 359.615454545 c 0
 201.027272727 355.148181818 197.676818182 351.797727273 193.209545455 351.797727273 c 0
 188.742272727 351.797727273 184.275 346.213636364 183.158181818 339.512727273 c 0
 181.482954545 327.786136364 178.1325 326.669318182 146.861590909 324.994090909 c 2
 111.681818182 323.318863636 l 1
 111.681818182 346.213636364 l 2
 111.681818182 366.316363636 110.565 368.55 97.7215909091 368.55 c 0
 84.3197727273 368.55 83.7613636364 370.225227273 83.7613636364 401.496136364 c 0
 83.7613636364 425.507727273 81.5277272727 435.000681818 75.3852272727 437.792727273 c 0
 70.9179545455 439.467954545 67.0090909091 445.610454545 67.0090909091 451.752954545 c 0
 67.0090909091 459.012272727 62.5418181818 463.479545455 54.7240909091 464.596363636 c 0
 43.5559090909 466.271590909 41.8806818182 470.180454545 40.2054545455 495.867272727 c 0
 39.0886363636 516.528409091 36.2965909091 524.904545455 30.1540909091 524.904545455 c 0
 24.57 524.904545455 22.3363636364 531.605454545 22.3363636364 550.032954545 c 0
 22.3363636364 571.2525 20.6611363636 575.161363636 11.1681818182 575.161363636 c 0
 1.11681818182 575.161363636 0 579.070227273 0 608.665909091 c 0
EndSplineSet
EndChar

StartChar: w
Encoding: 119 119 22
Width: 613
VWidth: 0
Flags: HW
LayerCount: 2
Fore
SplineSet
42.9975 548.916136364 m 0
 44.6727272727 551.149772727 56.3993181818 552.825 68.1259090909 552.825 c 0
 87.1118181818 552.825 89.3454545455 551.149772727 89.3454545455 538.864772727 c 0
 89.3454545455 528.813409091 92.1375 524.904545455 100.513636364 524.904545455 c 0
 106.656136364 524.904545455 111.681818182 520.995681818 111.681818182 516.528409091 c 0
 111.681818182 512.061136364 106.656136364 508.152272727 100.513636364 508.152272727 c 0
 90.4622727273 508.152272727 89.3454545455 504.243409091 89.3454545455 474.647727273 c 0
 89.3454545455 449.519318182 87.1118181818 440.026363636 80.9693181818 437.792727273 c 0
 74.8268181818 435.000681818 72.5931818182 426.066136364 72.5931818182 404.288181818 c 2
 72.5931818182 374.134090909 l 1
 105.539318182 374.134090909 l 2
 132.901363636 374.134090909 138.485454545 375.809318182 137.368636364 383.627045455 c 0
 136.810227273 390.327954545 142.394318182 394.236818182 156.354545455 396.470454545 c 0
 180.366136364 400.937727273 200.468863636 410.989090909 213.312272727 426.624545455 c 0
 220.571590909 435.559090909 222.805227273 448.960909091 223.363636364 481.907045455 c 0
 223.363636364 516.528409091 225.038863636 524.904545455 231.739772727 524.904545455 c 0
 236.765454545 524.904545455 240.115909091 529.930227273 240.115909091 538.864772727 c 0
 240.115909091 557.850681818 266.361136364 559.525909091 269.153181818 540.54 c 0
 270.27 532.163863636 275.295681818 527.138181818 283.671818182 526.021363636 c 0
 295.956818182 524.346136364 295.956818182 522.670909091 295.956818182 448.960909091 c 2
 295.956818182 374.134090909 l 1
 315.501136364 374.134090909 l 2
 331.136590909 374.134090909 335.045454545 376.367727273 335.045454545 385.302272727 c 0
 335.045454545 391.444772727 338.954318182 396.470454545 343.421590909 396.470454545 c 0
 348.447272727 396.470454545 351.797727273 401.496136364 351.797727273 410.430681818 c 0
 351.797727273 421.598863636 354.589772727 424.390909091 365.757954545 424.390909091 c 0
 378.601363636 424.390909091 379.718181818 426.624545455 379.718181818 446.727272727 c 0
 379.718181818 466.83 381.393409091 469.063636364 393.678409091 469.063636364 c 0
 406.521818182 469.063636364 407.638636364 470.738863636 407.638636364 496.984090909 c 2
 407.638636364 524.904545455 l 1
 435.559090909 524.904545455 l 1
 463.479545455 524.904545455 l 1
 463.479545455 480.231818182 l 2
 463.479545455 453.986590909 461.245909091 435.559090909 457.895454545 435.559090909 c 0
 454.545 435.559090909 452.311363636 420.482045455 452.311363636 402.054545455 c 0
 452.311363636 370.225227273 451.752954545 368.55 438.351136364 368.55 c 0
 429.416590909 368.55 424.390909091 365.199545455 424.390909091 360.173863636 c 0
 424.390909091 355.706590909 420.482045455 351.797727273 416.014772727 351.797727273 c 0
 410.989090909 351.797727273 407.638636364 346.772045455 407.638636364 337.8375 c 0
 407.638636364 324.994090909 405.405 323.877272727 383.068636364 323.877272727 c 0
 366.316363636 323.877272727 357.381818182 321.085227273 355.148181818 315.501136364 c 0
 351.239318182 304.332954545 298.190454545 303.774545455 292.047954545 314.942727273 c 0
 289.814318182 319.41 277.529318182 323.877272727 265.244318182 324.994090909 c 0
 246.816818182 326.110909091 242.349545455 328.902954545 241.232727273 339.512727273 c 0
 240.115909091 346.213636364 235.648636364 351.797727273 231.181363636 351.797727273 c 0
 226.155681818 351.797727273 223.363636364 357.940227273 223.363636364 369.666818182 c 0
 223.363636364 386.419090909 223.363636364 386.9775 212.195454545 376.926136364 c 0
 206.052954545 371.342045455 201.027272727 363.524318182 201.027272727 359.057045455 c 0
 201.027272727 355.148181818 197.676818182 351.797727273 193.209545455 351.797727273 c 0
 188.742272727 351.797727273 184.275 346.213636364 183.158181818 339.512727273 c 0
 182.041363636 331.136590909 177.015681818 326.110909091 169.197954545 324.994090909 c 0
 161.938636364 323.877272727 156.354545455 319.41 156.354545455 314.942727273 c 0
 156.354545455 308.800227273 145.744772727 307.125 102.747272727 307.125 c 0
 54.7240909091 307.125 47.4647727273 308.241818182 35.7381818182 319.968409091 c 0
 28.4788636364 326.669318182 22.3363636364 336.720681818 22.3363636364 342.304772727 c 0
 22.3363636364 347.888863636 17.8690909091 351.797727273 11.1681818182 351.797727273 c 0
 1.11681818182 351.797727273 0 355.706590909 0 396.470454545 c 0
 0 437.234318182 1.11681818182 441.143181818 11.1681818182 441.143181818 c 0
 21.2195454545 441.143181818 22.3363636364 445.052045455 22.3363636364 474.647727273 c 0
 22.3363636364 500.892954545 24.0115909091 508.152272727 30.7125 508.152272727 c 0
 36.2965909091 508.152272727 39.0886363636 513.736363636 39.0886363636 526.579772727 c 0
 39.0886363636 537.189545455 40.7638636364 547.240909091 42.9975 548.916136364 c 0
EndSplineSet
EndChar

StartChar: x
Encoding: 120 120 23
Width: 445
VWidth: 0
Flags: HW
LayerCount: 2
Fore
SplineSet
251.284090909 653.338636364 m 0
 251.284090909 662.831590909 255.192954545 664.506818182 273.620454545 664.506818182 c 2
 295.956818182 664.506818182 l 1
 295.956818182 619.834090909 l 2
 295.956818182 579.070227273 294.84 575.161363636 284.788636364 575.161363636 c 0
 275.295681818 575.161363636 273.620454545 571.2525 273.620454545 550.032954545 c 0
 273.620454545 531.605454545 271.386818182 524.904545455 265.244318182 524.904545455 c 0
 260.777045455 524.904545455 256.868181818 520.995681818 256.868181818 516.528409091 c 0
 256.868181818 511.502727273 251.8425 508.152272727 242.907954545 508.152272727 c 0
 230.622954545 508.152272727 228.947727273 505.918636364 228.947727273 485.815909091 c 0
 228.947727273 469.622045455 226.714090909 463.479545455 220.571590909 463.479545455 c 0
 216.104318182 463.479545455 212.195454545 458.453863636 212.195454545 452.311363636 c 0
 212.195454545 446.168863636 216.104318182 441.143181818 220.571590909 441.143181818 c 0
 225.038863636 441.143181818 228.947727273 437.234318182 228.947727273 432.767045455 c 0
 228.947727273 427.741363636 233.973409091 424.390909091 242.907954545 424.390909091 c 0
 254.076136364 424.390909091 256.868181818 421.598863636 256.868181818 410.430681818 c 0
 256.868181818 401.496136364 260.218636364 396.470454545 265.244318182 396.470454545 c 0
 271.386818182 396.470454545 273.620454545 390.327954545 273.620454545 374.134090909 c 0
 273.620454545 358.498636364 271.386818182 351.797727273 265.802727273 351.797727273 c 0
 261.335454545 351.797727273 256.868181818 346.213636364 255.751363636 339.512727273 c 0
 254.634545455 328.902954545 250.167272727 326.110909091 233.415 324.994090909 c 2
 212.195454545 323.318863636 l 1
 212.195454545 345.655227273 l 2
 212.195454545 366.316363636 211.078636364 368.55 198.235227273 368.55 c 0
 187.067045455 368.55 184.275 371.342045455 184.275 382.510227273 c 0
 184.275 393.678409091 181.482954545 396.470454545 170.314772727 396.470454545 c 0
 161.380227273 396.470454545 156.354545455 399.820909091 156.354545455 404.846590909 c 0
 156.354545455 415.456363636 137.927045455 433.883863636 124.525227273 436.675909091 c 0
 117.265909091 437.792727273 114.473863636 443.376818182 114.473863636 457.895454545 c 0
 114.473863636 471.297272727 111.123409091 478.556590909 104.980909091 481.348636364 c 0
 99.3968181818 483.582272727 94.9295454545 490.841590909 94.9295454545 496.984090909 c 0
 94.9295454545 504.243409091 91.0206818182 508.152272727 84.3197727273 508.152272727 c 0
 75.3852272727 508.152272727 73.1515909091 512.619545455 71.4763636364 529.371818182 c 0
 70.3595454545 546.124090909 67.5675 550.591363636 56.9577272727 551.708181818 c 0
 45.2311363636 553.383409091 44.1143181818 555.617045455 45.7895454545 588.004772727 c 2
 47.4647727273 622.626136364 l 1
 80.9693181818 622.626136364 l 1
 114.473863636 622.626136364 l 1
 116.149090909 601.965 l 2
 117.265909091 585.771136364 120.616363636 581.303863636 130.109318182 579.628636364 c 0
 140.719090909 577.953409091 142.394318182 574.044545455 144.069545455 551.708181818 c 0
 145.186363636 532.722272727 147.978409091 524.904545455 154.120909091 524.904545455 c 0
 158.029772727 524.904545455 161.938636364 520.995681818 161.938636364 516.528409091 c 0
 161.938636364 512.061136364 166.964318182 508.152272727 173.106818182 508.152272727 c 0
 179.249318182 508.152272727 184.275 511.502727273 184.275 515.97 c 0
 184.275 520.437272727 189.859090909 524.904545455 197.118409091 526.021363636 c 0
 208.286590909 527.696590909 209.403409091 531.047045455 209.961818182 561.201136364 c 0
 210.520227273 587.446363636 212.753863636 595.264090909 220.013181818 596.380909091 c 0
 226.155681818 598.056136364 228.947727273 604.198636364 228.947727273 620.3925 c 0
 228.947727273 638.261590909 230.622954545 642.170454545 240.115909091 642.170454545 c 0
 247.375227273 642.170454545 251.284090909 646.079318182 251.284090909 653.338636364 c 0
72.5931818182 410.430681818 m 0
 72.5931818182 423.274090909 74.8268181818 424.390909091 94.9295454545 424.390909091 c 2
 117.265909091 424.390909091 l 1
 117.265909091 388.094318182 l 2
 117.265909091 360.173863636 115.590681818 351.797727273 109.448181818 351.797727273 c 0
 104.980909091 351.797727273 100.513636364 346.213636364 99.3968181818 339.512727273 c 0
 98.28 331.136590909 93.2543181818 326.110909091 85.4365909091 324.994090909 c 0
 78.1772727273 323.877272727 72.5931818182 319.41 72.5931818182 314.942727273 c 0
 72.5931818182 310.475454545 67.5675 307.125 61.425 307.125 c 0
 54.1656818182 307.125 50.2568181818 303.216136364 50.2568181818 295.956818182 c 0
 50.2568181818 286.463863636 46.3479545455 284.788636364 25.1284090909 284.788636364 c 2
 0 284.788636364 l 1
 0 318.293181818 l 2
 0 350.1225 0.558409090909 351.797727273 13.9602272727 351.797727273 c 0
 22.8947727273 351.797727273 27.9204545455 355.148181818 27.9204545455 360.173863636 c 0
 27.9204545455 365.199545455 31.8293181818 370.225227273 36.2965909091 371.900454545 c 0
 40.7638636364 374.134090909 44.6727272727 380.276590909 44.6727272727 385.860681818 c 0
 44.6727272727 393.678409091 48.5815909091 396.470454545 58.6329545455 396.470454545 c 0
 69.8011363636 396.470454545 72.5931818182 399.2625 72.5931818182 410.430681818 c 0
EndSplineSet
EndChar

StartChar: y
Encoding: 121 121 24
Width: 557
VWidth: 0
Flags: HW
LayerCount: 2
Fore
SplineSet
366.874772727 622.067727273 m 0
 373.575681818 628.210227273 382.510227273 622.067727273 384.185454545 609.782727273 c 0
 385.302272727 601.965 390.327954545 597.497727273 397.028863636 597.497727273 c 0
 407.080227273 597.497727273 407.638636364 591.913636364 407.638636364 460.6875 c 0
 407.638636364 327.786136364 407.080227273 323.877272727 396.470454545 323.877272727 c 0
 385.860681818 323.877272727 385.302272727 319.968409091 385.302272727 259.660227273 c 0
 385.302272727 206.052954545 383.627045455 195.443181818 376.926136364 195.443181818 c 0
 370.225227273 195.443181818 368.55 188.183863636 368.55 161.938636364 c 0
 368.55 130.109318182 367.991590909 128.434090909 354.589772727 128.434090909 c 0
 342.304772727 128.434090909 340.629545455 126.200454545 340.629545455 106.097727273 c 0
 340.629545455 87.6702272727 338.954318182 83.7613636364 329.461363636 83.7613636364 c 0
 321.643636364 83.7613636364 318.293181818 79.8525 318.293181818 72.0347727273 c 0
 318.293181818 65.3338636364 313.825909091 59.1913636364 307.125 57.5161363636 c 0
 300.9825 55.8409090909 295.956818182 50.8152272727 295.956818182 46.9063636364 c 0
 295.956818182 42.4390909091 290.931136364 39.0886363636 285.347045455 39.0886363636 c 0
 278.087727273 39.0886363636 273.620454545 34.6213636364 272.503636364 26.2452272727 c 0
 270.828409091 15.6354545455 266.919545455 13.9602272727 241.791136364 12.285 c 0
 225.597272727 11.1681818182 212.195454545 8.37613636364 212.195454545 5.02568181818 c 0
 212.195454545 2.23363636364 182.599772727 0 142.394318182 0 c 0
 102.747272727 0 72.5931818182 2.23363636364 72.5931818182 5.02568181818 c 0
 72.5931818182 8.37613636364 63.1002272727 11.1681818182 51.9320454545 12.285 c 0
 34.6213636364 13.4018181818 30.1540909091 16.1938636364 29.0372727273 26.2452272727 c 0
 27.3620454545 35.7381818182 23.4531818182 39.0886363636 13.4018181818 39.0886363636 c 0
 0 39.0886363636 -0.558409090909 40.2054545455 1.11681818182 71.4763636364 c 2
 2.79204545455 103.305681818 l 1
 26.8036363636 104.980909091 l 2
 47.4647727273 106.656136364 51.3736363636 104.980909091 54.1656818182 95.4879545455 c 0
 56.3993181818 85.995 61.425 83.7613636364 78.7356818182 83.7613636364 c 0
 96.6047727273 83.7613636364 100.513636364 82.0861363636 100.513636364 72.5931818182 c 0
 100.513636364 61.9834090909 104.4225 61.425 153.5625 61.425 c 0
 202.7025 61.425 206.611363636 61.9834090909 206.611363636 72.5931818182 c 0
 206.611363636 82.0861363636 210.520227273 83.7613636364 228.947727273 83.7613636364 c 0
 245.141590909 83.7613636364 251.284090909 85.995 251.284090909 92.1375 c 0
 251.284090909 97.1631818182 255.192954545 102.188863636 259.660227273 103.864090909 c 0
 264.1275 106.097727273 268.036363636 112.240227273 268.036363636 117.824318182 c 0
 268.036363636 125.642045455 271.945227273 128.434090909 281.996590909 128.434090909 c 0
 295.398409091 128.434090909 295.956818182 130.109318182 295.956818182 161.938636364 c 0
 295.956818182 187.067045455 298.190454545 196.56 304.332954545 198.793636364 c 0
 311.033863636 201.585681818 312.709090909 215.545909091 312.709090909 276.4125 c 0
 312.709090909 349.564090909 312.709090909 351.239318182 325.5525 352.914545455 c 0
 337.8375 354.589772727 337.8375 354.589772727 339.512727273 476.322954545 c 0
 340.629545455 593.030454545 341.187954545 597.497727273 351.797727273 597.497727273 c 0
 359.057045455 597.497727273 362.965909091 601.406590909 362.965909091 607.549090909 c 0
 362.965909091 613.133181818 364.641136364 619.834090909 366.874772727 622.067727273 c 0
72.5931818182 563.993181818 m 0
 72.5931818182 597.497727273 l 1
 94.9295454545 597.497727273 l 2
 110.565 597.497727273 117.265909091 595.264090909 117.265909091 589.68 c 0
 117.265909091 585.212727273 122.85 580.745454545 130.109318182 579.628636364 c 0
 140.719090909 577.953409091 142.394318182 574.602954545 142.394318182 552.825 c 0
 142.394318182 531.047045455 140.719090909 527.696590909 130.109318182 526.021363636 c 0
 117.824318182 524.346136364 117.265909091 522.1125 117.265909091 460.129090909 c 2
 117.265909091 396.470454545 l 1
 139.602272727 396.470454545 l 2
 158.029772727 396.470454545 161.938636364 394.795227273 161.938636364 385.302272727 c 0
 161.938636364 375.250909091 165.8475 374.134090909 195.443181818 374.134090909 c 0
 224.480454545 374.134090909 228.947727273 375.250909091 227.830909091 384.185454545 c 0
 226.714090909 392.003181818 230.622954545 394.236818182 250.167272727 395.353636364 c 0
 270.828409091 397.028863636 273.620454545 395.912045455 273.620454545 385.860681818 c 0
 273.620454545 378.042954545 276.970909091 374.134090909 284.788636364 374.134090909 c 0
 292.047954545 374.134090909 295.956818182 370.225227273 295.956818182 362.965909091 c 0
 295.956818182 355.706590909 292.047954545 351.797727273 284.788636364 351.797727273 c 0
 278.087727273 351.797727273 273.620454545 347.888863636 273.620454545 342.863181818 c 0
 273.620454545 337.8375 268.036363636 327.786136364 261.335454545 320.526818182 c 0
 249.608863636 308.241818182 244.024772727 307.125 194.326363636 307.125 c 0
 150.212045455 307.125 139.602272727 308.800227273 139.602272727 314.942727273 c 0
 139.602272727 320.526818182 132.342954545 323.877272727 118.941136364 324.994090909 c 0
 101.630454545 326.110909091 97.1631818182 328.902954545 96.0463636364 339.512727273 c 0
 94.9295454545 347.330454545 90.4622727273 351.797727273 83.2029545455 351.797727273 c 0
 77.6188636364 351.797727273 72.5931818182 355.148181818 72.5931818182 359.615454545 c 0
 72.5931818182 364.082727273 68.6843181818 368.55 63.6586363636 369.666818182 c 0
 55.8409090909 371.342045455 54.7240909091 381.393409091 55.2825 446.727272727 c 0
 56.3993181818 505.918636364 58.0745454545 523.229318182 64.7754545455 526.579772727 c 0
 70.3595454545 529.930227273 72.5931818182 541.098409091 72.5931818182 563.993181818 c 0
EndSplineSet
EndChar

StartChar: z
Encoding: 122 122 25
Width: 619
VWidth: 0
Flags: HW
LayerCount: 2
Fore
SplineSet
89.3454545455 672.882954545 m 0
 89.3454545455 709.179545455 l 1
 259.660227273 709.179545455 l 1
 429.975 709.179545455 l 1
 429.975 672.882954545 l 2
 429.975 637.703181818 429.416590909 636.586363636 416.014772727 636.586363636 c 0
 407.080227273 636.586363636 402.054545455 633.235909091 402.054545455 628.210227273 c 0
 402.054545455 623.742954545 397.028863636 619.834090909 390.886363636 619.834090909 c 0
 381.951818182 619.834090909 379.718181818 615.925227273 379.718181818 600.289772727 c 0
 379.718181818 588.004772727 376.367727273 579.070227273 371.342045455 577.395 c 0
 366.874772727 575.161363636 362.965909091 569.018863636 362.965909091 563.434772727 c 0
 362.965909091 553.941818182 367.433181818 552.825 416.014772727 552.825 c 2
 469.063636364 552.825 l 1
 469.063636364 530.488636364 l 2
 469.063636364 512.061136364 467.388409091 508.152272727 457.895454545 508.152272727 c 0
 449.519318182 508.152272727 446.727272727 504.243409091 446.727272727 494.192045455 c 2
 446.727272727 480.231818182 l 1
 360.173863636 480.231818182 l 2
 287.022272727 480.231818182 273.620454545 479.115 273.620454545 471.855681818 c 0
 273.620454545 465.713181818 266.919545455 463.479545455 248.492045455 463.479545455 c 0
 228.389318182 463.479545455 223.363636364 461.804318182 223.363636364 453.986590909 c 0
 223.363636364 438.351136364 198.793636364 418.806818182 179.249318182 418.806818182 c 0
 165.8475 418.806818182 161.938636364 416.573181818 161.938636364 407.638636364 c 0
 161.938636364 398.145681818 165.8475 396.470454545 189.300681818 396.470454545 c 0
 213.870681818 396.470454545 217.221136364 398.145681818 218.896363636 409.313863636 c 0
 220.571590909 421.040454545 222.246818182 421.598863636 290.372727273 421.598863636 c 0
 358.498636364 421.598863636 360.173863636 421.040454545 361.849090909 409.313863636 c 0
 362.965909091 402.054545455 367.433181818 396.470454545 371.900454545 396.470454545 c 0
 377.484545455 396.470454545 379.718181818 389.769545455 379.718181818 374.134090909 c 2
 379.718181818 351.797727273 l 1
 279.204545455 351.797727273 l 1
 178.690909091 351.797727273 l 1
 178.690909091 337.8375 l 1
 178.690909091 323.877272727 l 1
 100.513636364 323.877272727 l 1
 22.3363636364 323.877272727 l 1
 22.3363636364 337.279090909 l 2
 22.3363636364 345.655227273 18.4275 351.797727273 11.1681818182 353.472954545 c 0
 -3.35045454545 357.381818182 -3.35045454545 368.55 11.1681818182 372.458863636 c 0
 17.3106818182 374.134090909 22.3363636364 380.276590909 22.3363636364 385.860681818 c 0
 22.3363636364 392.561590909 26.2452272727 396.470454545 33.5045454545 396.470454545 c 0
 40.2054545455 396.470454545 44.6727272727 400.379318182 44.6727272727 406.521818182 c 0
 44.6727272727 418.248409091 68.1259090909 441.143181818 79.8525 441.143181818 c 0
 84.8781818182 441.143181818 89.3454545455 446.727272727 90.4622727273 453.986590909 c 0
 91.5790909091 464.037954545 96.0463636364 466.83 113.357045455 467.946818182 c 0
 126.758863636 469.063636364 134.018181818 472.414090909 134.018181818 477.998181818 c 0
 134.018181818 483.582272727 140.719090909 485.815909091 156.354545455 485.815909091 c 0
 174.782045455 485.815909091 178.690909091 487.491136364 177.574090909 495.867272727 c 0
 176.457272727 502.009772727 179.807727273 505.918636364 188.742272727 507.035454545 c 0
 195.443181818 508.152272727 201.027272727 512.619545455 201.027272727 516.528409091 c 0
 201.027272727 521.554090909 208.845 524.904545455 222.246818182 526.021363636 c 0
 238.440681818 527.138181818 243.466363636 530.488636364 244.583181818 539.981590909 c 0
 245.7 547.799318182 250.725681818 552.825 258.543409091 553.941818182 c 0
 266.361136364 555.058636364 271.386818182 560.084318182 272.503636364 568.460454545 c 0
 273.620454545 575.161363636 278.087727273 580.745454545 282.555 580.745454545 c 0
 287.022272727 580.745454545 290.372727273 584.654318182 290.372727273 589.121590909 c 0
 290.372727273 593.588863636 295.398409091 597.497727273 301.540909091 597.497727273 c 0
 310.475454545 597.497727273 312.709090909 601.406590909 312.709090909 617.042045455 c 2
 312.709090909 636.586363636 l 1
 201.027272727 636.586363636 l 1
 89.3454545455 636.586363636 l 1
 89.3454545455 672.882954545 l 0
22.3363636364 567.343636364 m 0
 22.3363636364 580.745454545 l 1
 92.1375 580.745454545 l 1
 161.938636364 580.745454545 l 1
 161.938636364 544.448863636 l 1
 161.938636364 507.593863636 l 1
 82.0861363636 509.269090909 l 1
 2.79204545455 510.944318182 l 1
 1.11681818182 529.371818182 l 2
 -0.558409090909 544.448863636 1.67522727273 548.916136364 10.6097727273 551.149772727 c 0
 18.4275 552.825 22.3363636364 558.409090909 22.3363636364 567.343636364 c 0
EndSplineSet
EndChar

StartChar: A
Encoding: 65 65 26
Width: 702
VWidth: 0
Flags: HW
LayerCount: 2
Fore
SplineSet
472.9725 1107.88363636 m 0
 475.206136364 1110.11727273 484.699090909 1111.23409091 494.192045455 1110.11727273 c 0
 506.477045455 1109.00045455 511.502727273 1105.09159091 512.619545455 1096.15704545 c 0
 514.294772727 1086.66409091 518.203636364 1083.31363636 528.255 1083.31363636 c 0
 536.631136364 1083.31363636 541.656818182 1079.96318182 541.656818182 1074.9375 c 0
 541.656818182 1070.47022727 544.448863636 1066.56136364 547.240909091 1066.56136364 c 0
 551.149772727 1066.56136364 552.825 980.007954545 552.825 818.069318182 c 0
 552.825 656.130681818 551.149772727 569.577272727 547.240909091 569.577272727 c 0
 543.890454545 569.577272727 541.656818182 528.813409091 541.656818182 457.895454545 c 0
 541.656818182 350.680909091 541.098409091 346.213636364 530.488636364 346.213636364 c 0
 524.904545455 346.213636364 517.086818182 341.187954545 513.736363636 334.487045455 c 0
 508.710681818 326.110909091 503.126590909 323.877272727 489.724772727 324.994090909 c 2
 471.855681818 326.669318182 l 1
 470.180454545 456.220227273 l 1
 469.063636364 585.771136364 l 1
 481.348636364 587.446363636 l 2
 494.192045455 589.121590909 494.192045455 589.68 495.867272727 694.1025 c 0
 496.984090909 781.772727273 498.659318182 798.525 505.360227273 798.525 c 0
 512.619545455 798.525 513.736363636 811.926818182 513.736363636 882.286363636 c 0
 513.736363636 953.204318182 512.619545455 966.047727273 505.360227273 966.047727273 c 0
 498.659318182 966.047727273 496.984090909 958.788409091 496.984090909 935.335227273 c 0
 496.984090909 906.297954545 496.425681818 904.622727273 483.023863636 904.622727273 c 0
 470.180454545 904.622727273 469.063636364 902.389090909 469.063636364 879.494318182 c 0
 469.063636364 858.274772727 467.388409091 854.365909091 457.895454545 854.365909091 c 0
 448.4025 854.365909091 446.727272727 850.457045455 446.727272727 826.445454545 c 0
 446.727272727 808.576363636 443.935227273 797.408181818 438.909545455 794.616136364 c 0
 434.442272727 792.3825 429.975 781.214318182 428.858181818 770.604545455 c 0
 427.741363636 755.5275 424.390909091 750.501818182 414.897954545 749.385 c 0
 403.171363636 747.709772727 402.054545455 744.359318182 402.054545455 714.205227273 c 0
 402.054545455 689.076818182 400.379318182 681.259090909 394.236818182 681.259090909 c 0
 388.652727273 681.259090909 385.302272727 673.999772727 384.185454545 660.597954545 c 0
 383.068636364 643.287272727 380.276590909 638.82 370.225227273 637.703181818 c 0
 361.849090909 636.586363636 357.381818182 632.119090909 357.381818182 624.859772727 c 0
 357.381818182 615.366818182 361.290681818 614.25 393.678409091 614.25 c 2
 430.533409091 614.25 l 1
 428.858181818 579.628636364 l 1
 427.182954545 544.448863636 l 1
 382.510227273 542.773636364 l 2
 350.680909091 541.656818182 336.720681818 538.864772727 333.370227273 533.280681818 c 0
 330.578181818 527.696590909 319.41 524.904545455 301.540909091 524.904545455 c 0
 277.529318182 524.904545455 274.178863636 523.229318182 272.503636364 512.619545455 c 0
 271.386818182 504.243409091 266.361136364 499.217727273 258.543409091 498.100909091 c 0
 251.284090909 496.984090909 245.7 492.516818182 245.7 488.049545455 c 0
 245.7 483.582272727 241.791136364 480.231818182 237.323863636 480.231818182 c 0
 232.856590909 480.231818182 228.947727273 475.206136364 228.947727273 469.063636364 c 0
 228.947727273 460.6875 225.038863636 457.895454545 214.9875 457.895454545 c 0
 203.819318182 457.895454545 201.027272727 455.103409091 201.027272727 443.935227273 c 0
 201.027272727 433.883863636 198.235227273 429.975 189.859090909 429.975 c 0
 183.716590909 429.975 178.690909091 426.066136364 178.690909091 421.598863636 c 0
 178.690909091 417.131590909 175.340454545 413.222727273 170.873181818 413.222727273 c 0
 166.405909091 413.222727273 161.938636364 407.638636364 160.821818182 400.937727273 c 0
 159.705 392.561590909 154.679318182 387.535909091 146.861590909 386.419090909 c 0
 139.602272727 385.302272727 134.018181818 380.835 134.018181818 376.367727273 c 0
 134.018181818 371.900454545 130.109318182 368.55 125.642045455 368.55 c 0
 121.174772727 368.55 117.265909091 363.524318182 117.265909091 357.381818182 c 0
 117.265909091 347.888863636 113.357045455 346.213636364 95.4879545455 346.213636364 c 0
 78.7356818182 346.213636364 73.1515909091 343.98 70.9179545455 335.045454545 c 0
 69.2427272727 328.344545455 63.1002272727 323.877272727 56.3993181818 323.877272727 c 0
 48.5815909091 323.877272727 44.6727272727 320.526818182 44.6727272727 312.709090909 c 0
 44.6727272727 303.216136364 40.7638636364 301.540909091 22.3363636364 301.540909091 c 2
 0 301.540909091 l 1
 0 333.928636364 l 2
 0 360.173863636 2.79204545455 367.991590909 13.4018181818 378.042954545 c 0
 20.6611363636 385.302272727 30.7125 390.886363636 35.7381818182 390.886363636 c 0
 40.7638636364 390.886363636 44.6727272727 395.353636364 44.6727272727 402.054545455 c 0
 44.6727272727 410.989090909 48.5815909091 413.222727273 64.7754545455 413.222727273 c 0
 79.8525 413.222727273 85.4365909091 416.014772727 87.6702272727 424.390909091 c 0
 89.3454545455 430.533409091 95.4879545455 435.559090909 101.072045455 435.559090909 c 0
 107.772954545 435.559090909 111.681818182 439.467954545 111.681818182 446.727272727 c 0
 111.681818182 452.869772727 115.032272727 457.895454545 119.499545455 457.895454545 c 0
 123.966818182 457.895454545 128.434090909 463.479545455 129.550909091 470.738863636 c 0
 130.667727273 478.556590909 135.693409091 483.582272727 144.069545455 484.699090909 c 0
 150.770454545 485.815909091 156.354545455 490.283181818 156.354545455 494.750454545 c 0
 156.354545455 499.217727273 159.705 502.568181818 164.172272727 502.568181818 c 0
 168.639545455 502.568181818 173.106818182 508.152272727 174.223636364 515.411590909 c 0
 175.340454545 523.229318182 180.366136364 528.255 188.742272727 529.371818182 c 0
 195.443181818 530.488636364 201.027272727 534.955909091 201.027272727 539.423181818 c 0
 201.027272727 543.890454545 206.611363636 547.240909091 213.870681818 547.240909091 c 0
 225.038863636 547.240909091 226.714090909 549.474545455 224.480454545 566.226818182 c 0
 222.805227273 581.303863636 224.480454545 585.212727273 233.973409091 588.004772727 c 0
 241.232727273 589.68 245.7 595.264090909 245.7 602.523409091 c 0
 245.7 610.341136364 249.050454545 614.25 256.868181818 614.25 c 0
 264.1275 614.25 268.036363636 618.158863636 268.036363636 625.418181818 c 0
 268.036363636 631.002272727 271.386818182 638.261590909 275.854090909 640.495227273 c 0
 280.321363636 642.728863636 284.788636364 653.897045455 285.905454545 664.506818182 c 0
 287.022272727 677.908636364 290.931136364 684.609545455 297.632045455 685.726363636 c 0
 319.41 690.193636364 329.461363636 707.504318182 329.461363636 739.892045455 c 0
 329.461363636 768.929318182 330.019772727 770.604545455 343.421590909 770.604545455 c 0
 356.265 770.604545455 357.381818182 772.838181818 357.381818182 792.940909091 c 0
 357.381818182 811.368409091 359.057045455 815.277272727 368.55 815.277272727 c 0
 377.484545455 815.277272727 379.718181818 819.186136364 379.718181818 834.821590909 c 0
 379.718181818 848.781818182 382.510227273 856.041136364 389.769545455 858.833181818 c 0
 397.028863636 861.625227273 399.2625 869.442954545 399.2625 893.454545455 c 0
 399.2625 920.816590909 400.379318182 924.167045455 412.105909091 925.842272727 c 0
 423.274090909 927.5175 424.390909091 930.867954545 424.390909091 961.022045455 c 0
 424.390909091 986.150454545 426.066136364 993.968181818 432.767045455 993.968181818 c 0
 438.351136364 993.968181818 441.143181818 1002.90272727 442.26 1029.14795455 c 0
 443.935227273 1060.41886364 445.052045455 1063.76931818 456.778636364 1065.44454545 c 0
 466.83 1067.11977273 469.063636364 1071.02863636 469.063636364 1085.54727273 c 0
 469.063636364 1095.59863636 470.738863636 1105.65 472.9725 1107.88363636 c 0
EndSplineSet
EndChar

StartChar: B
Encoding: 66 66 27
Width: 702
VWidth: 0
Flags: HW
LayerCount: 2
Fore
SplineSet
225.038863636 1192.76181818 m 0
 231.739772727 1204.48840909 393.678409091 1204.48840909 400.379318182 1192.76181818 c 0
 402.612954545 1188.29454545 414.897954545 1183.82727273 427.182954545 1182.71045455 c 0
 445.610454545 1181.59363636 450.077727273 1178.80159091 451.194545455 1168.75022727 c 0
 452.869772727 1158.69886364 456.778636364 1155.90681818 470.738863636 1155.90681818 c 0
 495.867272727 1155.90681818 513.736363636 1135.24568182 513.736363636 1106.76681818 c 0
 513.736363636 1088.33931818 515.97 1083.87204545 525.462954545 1082.19681818 c 0
 536.072727273 1080.52159091 537.189545455 1077.17113636 537.189545455 1019.09659091 c 0
 537.189545455 961.022045455 536.072727273 957.671590909 525.462954545 955.996363636 c 0
 515.411590909 954.321136364 513.736363636 950.412272727 513.736363636 923.050227273 c 0
 513.736363636 898.480227273 510.944318182 889.545681818 501.451363636 878.935909091 c 0
 494.192045455 871.676590909 484.140681818 865.534090909 479.115 865.534090909 c 0
 472.9725 865.534090909 469.063636364 861.066818182 469.063636364 854.365909091 c 0
 469.063636364 848.223409091 465.713181818 843.197727273 461.245909091 843.197727273 c 0
 457.337045455 843.197727273 452.311363636 838.172045455 450.636136364 832.029545455 c 0
 448.960909091 825.328636364 442.818409091 820.861363636 436.1175 820.861363636 c 0
 428.299772727 820.861363636 424.390909091 817.510909091 424.390909091 809.693181818 c 0
 424.390909091 802.433863636 420.482045455 798.525 413.222727273 798.525 c 0
 405.963409091 798.525 402.054545455 794.616136364 402.054545455 787.356818182 c 0
 402.054545455 777.305454545 405.963409091 776.188636364 435.559090909 776.188636364 c 0
 461.245909091 776.188636364 469.063636364 774.513409091 469.063636364 768.370909091 c 0
 469.063636364 762.786818182 476.322954545 759.436363636 490.283181818 758.319545455 c 0
 507.035454545 757.202727273 511.502727273 754.410681818 512.619545455 744.359318182 c 0
 513.736363636 735.983181818 518.203636364 731.515909091 525.462954545 731.515909091 c 0
 531.047045455 731.515909091 536.072727273 727.607045455 536.072727273 723.139772727 c 0
 536.072727273 718.6725 539.981590909 714.763636364 544.448863636 714.763636364 c 0
 551.708181818 714.763636364 552.825 701.920227273 552.825 633.794318182 c 0
 552.825 563.993181818 551.708181818 552.825 543.890454545 552.825 c 0
 537.189545455 552.825 535.514318182 547.799318182 537.189545455 529.371818182 c 0
 538.306363636 508.152272727 537.189545455 505.360227273 526.021363636 503.685 c 0
 519.320454545 502.568181818 513.736363636 498.100909091 513.736363636 493.633636364 c 0
 513.736363636 489.166363636 510.385909091 485.815909091 505.918636364 485.815909091 c 0
 501.451363636 485.815909091 496.984090909 480.231818182 495.867272727 473.530909091 c 0
 494.750454545 465.154772727 489.724772727 460.129090909 481.907045455 459.012272727 c 0
 474.647727273 457.895454545 469.063636364 453.428181818 469.063636364 448.960909091 c 0
 469.063636364 444.493636364 465.154772727 441.143181818 460.6875 441.143181818 c 0
 456.220227273 441.143181818 452.311363636 436.1175 452.311363636 429.975 c 0
 452.311363636 420.482045455 448.4025 418.806818182 427.182954545 418.806818182 c 0
 408.197045455 418.806818182 402.054545455 416.573181818 402.054545455 410.430681818 c 0
 402.054545455 405.405 398.704090909 400.379318182 394.236818182 398.704090909 c 0
 389.769545455 397.028863636 385.302272727 390.886363636 383.627045455 384.743863636 c 0
 381.393409091 376.926136364 375.809318182 374.134090909 360.732272727 374.134090909 c 0
 342.863181818 374.134090909 340.629545455 372.458863636 340.629545455 360.173863636 c 0
 340.629545455 347.888863636 338.395909091 346.213636364 318.293181818 346.213636364 c 0
 302.099318182 346.213636364 295.956818182 343.98 295.956818182 337.8375 c 0
 295.956818182 331.695 289.255909091 329.461363636 271.386818182 329.461363636 c 0
 249.608863636 329.461363636 246.258409091 327.786136364 244.583181818 317.176363636 c 0
 242.907954545 305.449772727 239.5575 304.332954545 212.195454545 304.332954545 c 2
 181.482954545 304.332954545 l 1
 179.807727273 325.5525 l 2
 178.1325 343.421590909 179.807727273 347.330454545 189.859090909 350.1225 c 0
 196.56 351.797727273 200.468863636 356.823409091 199.910454545 362.4075 c 0
 198.793636364 367.991590909 202.7025 371.900454545 211.078636364 373.017272727 c 0
 220.013181818 374.6925 223.363636364 378.601363636 223.363636364 388.652727273 c 0
 223.363636364 401.496136364 225.038863636 402.054545455 259.660227273 402.054545455 c 0
 288.139090909 402.054545455 295.956818182 403.729772727 295.956818182 410.430681818 c 0
 295.956818182 414.897954545 299.865681818 418.806818182 304.332954545 418.806818182 c 0
 309.358636364 418.806818182 312.709090909 423.8325 312.709090909 432.767045455 c 0
 312.709090909 445.052045455 314.942727273 446.727272727 331.695 446.727272727 c 0
 343.421590909 446.727272727 351.797727273 450.077727273 354.031363636 455.103409091 c 0
 355.706590909 460.129090909 364.641136364 463.479545455 376.926136364 463.479545455 c 0
 392.561590909 463.479545455 396.470454545 465.713181818 396.470454545 474.647727273 c 0
 396.470454545 481.907045455 400.379318182 485.815909091 407.638636364 485.815909091 c 0
 413.222727273 485.815909091 421.040454545 490.841590909 424.390909091 496.984090909 c 0
 427.741363636 503.126590909 435.000681818 508.152272727 441.143181818 508.152272727 c 0
 448.4025 508.152272727 450.636136364 510.944318182 448.960909091 515.97 c 0
 447.285681818 520.437272727 450.636136364 526.579772727 457.337045455 530.488636364 c 0
 464.037954545 533.839090909 469.063636364 541.656818182 469.063636364 547.240909091 c 0
 469.063636364 554.500227273 472.9725 558.409090909 480.231818182 558.409090909 c 0
 490.841590909 558.409090909 491.4 562.317954545 491.4 622.626136364 c 2
 491.4 686.843181818 l 1
 468.505227273 686.843181818 l 2
 448.4025 686.843181818 445.610454545 687.96 448.4025 698.011363636 c 0
 451.194545455 708.062727273 448.4025 709.179545455 426.624545455 709.179545455 c 0
 409.872272727 709.179545455 400.937727273 711.971590909 398.704090909 717.555681818 c 0
 395.912045455 723.698181818 385.302272727 725.931818182 354.031363636 725.931818182 c 0
 321.085227273 725.931818182 312.709090909 724.256590909 312.709090909 717.555681818 c 0
 312.709090909 710.854772727 304.332954545 709.179545455 270.828409091 709.179545455 c 0
 232.856590909 709.179545455 228.947727273 708.062727273 228.947727273 698.011363636 c 0
 228.947727273 687.96 225.038863636 686.843181818 181.482954545 686.843181818 c 2
 134.018181818 686.843181818 l 1
 134.018181818 644.404090909 l 2
 134.018181818 608.665909091 132.342954545 601.406590909 123.966818182 599.172954545 c 0
 116.149090909 597.497727273 114.473863636 590.796818182 114.473863636 565.11 c 0
 114.473863636 536.072727273 113.357045455 533.280681818 102.188863636 531.605454545 c 0
 90.4622727273 529.930227273 89.3454545455 526.579772727 89.3454545455 496.984090909 c 2
 89.3454545455 464.037954545 l 1
 110.565 462.362727273 l 1
 131.226136364 460.6875 l 1
 132.901363636 431.091818182 l 2
 134.576590909 407.080227273 132.901363636 400.937727273 124.525227273 397.587272727 c 0
 117.265909091 394.795227273 114.473863636 387.535909091 114.473863636 371.342045455 c 0
 114.473863636 352.356136364 112.798636364 349.005681818 102.188863636 347.330454545 c 0
 94.9295454545 346.213636364 89.3454545455 341.746363636 89.3454545455 337.279090909 c 0
 89.3454545455 331.695 82.6445454545 329.461363636 67.5675 329.461363636 c 0
 49.14 329.461363636 45.2311363636 327.227727273 43.5559090909 317.176363636 c 0
 42.4390909091 306.566590909 37.9718181818 303.774545455 20.6611363636 302.657727273 c 2
 0 300.9825 l 1
 0 359.615454545 l 2
 0 414.897954545 0.558409090909 418.248409091 11.7265909091 419.923636364 c 0
 23.4531818182 421.598863636 24.0115909091 424.390909091 22.8947727273 472.9725 c 0
 21.7779545455 519.320454545 22.8947727273 524.904545455 32.9461363636 530.488636364 c 0
 42.9975 535.514318182 44.6727272727 541.656818182 44.6727272727 577.953409091 c 0
 44.6727272727 615.925227273 45.7895454545 619.834090909 55.8409090909 619.834090909 c 0
 65.8922727273 619.834090909 67.0090909091 623.742954545 67.0090909091 664.506818182 c 0
 67.0090909091 697.452954545 69.2427272727 709.737954545 75.3852272727 713.088409091 c 0
 80.9693181818 716.438863636 83.7613636364 731.515909091 84.8781818182 770.604545455 c 0
 86.5534090909 820.861363636 87.1118181818 823.653409091 99.3968181818 825.328636364 c 0
 111.123409091 827.003863636 111.681818182 829.795909091 111.681818182 877.260681818 c 0
 111.681818182 916.349318182 113.357045455 928.075909091 120.057954545 930.309545455 c 0
 126.758863636 933.101590909 128.434090909 946.503409091 128.434090909 1000.11068182 c 2
 128.434090909 1066.56136364 l 1
 142.394318182 1066.56136364 l 2
 155.796136364 1066.56136364 155.796136364 1067.11977273 157.471363636 1124.0775 c 2
 159.146590909 1181.03522727 l 1
 189.859090909 1182.71045455 l 2
 209.403409091 1183.82727273 222.246818182 1187.73613636 225.038863636 1192.76181818 c 0
337.279090909 1141.94659091 m 0
 335.045454545 1146.41386364 328.902954545 1150.32272727 323.318863636 1150.32272727 c 0
 317.734772727 1150.32272727 312.709090909 1146.41386364 312.709090909 1141.94659091 c 0
 312.709090909 1135.24568182 305.449772727 1133.57045455 279.204545455 1133.57045455 c 0
 249.608863636 1133.57045455 245.7 1132.45363636 245.7 1122.40227273 c 0
 245.7 1116.25977273 241.791136364 1111.23409091 237.323863636 1111.23409091 c 0
 231.181363636 1111.23409091 228.947727273 1105.09159091 228.947727273 1088.89772727 c 0
 228.947727273 1068.795 227.830909091 1066.56136364 214.9875 1066.56136364 c 2
 201.027272727 1066.56136364 l 1
 201.027272727 1010.72045455 l 2
 201.027272727 964.930909091 199.352045455 954.879545455 192.651136364 954.879545455 c 0
 185.391818182 954.879545455 184.275 942.594545455 184.275 876.702272727 c 2
 184.275 798.525 l 1
 170.314772727 798.525 l 2
 158.029772727 798.525 156.354545455 796.291363636 156.354545455 778.980681818 c 0
 156.354545455 759.994772727 156.912954545 759.436363636 178.690909091 759.436363636 c 0
 193.767954545 759.436363636 200.468863636 761.67 199.910454545 766.695681818 c 0
 198.793636364 770.604545455 206.052954545 773.955 219.454772727 775.071818182 c 0
 235.090227273 776.747045455 240.115909091 778.980681818 240.115909091 787.356818182 c 0
 240.115909091 795.732954545 245.141590909 797.966590909 266.919545455 799.641818182 c 0
 289.255909091 801.317045455 293.164772727 802.992272727 294.84 814.160454545 c 0
 296.515227273 824.211818182 300.424090909 826.445454545 316.059545455 826.445454545 c 0
 329.461363636 826.445454545 335.045454545 829.2375 335.045454545 834.821590909 c 0
 335.045454545 839.288863636 338.395909091 843.197727273 342.863181818 843.197727273 c 0
 347.330454545 843.197727273 351.797727273 848.781818182 352.914545455 856.041136364 c 0
 354.031363636 865.534090909 359.057045455 868.884545455 374.134090909 870.001363636 c 0
 384.743863636 871.118181818 395.912045455 875.585454545 398.145681818 880.052727273 c 0
 400.379318182 884.52 407.638636364 887.870454545 413.222727273 887.870454545 c 0
 420.482045455 887.870454545 424.390909091 891.779318182 424.390909091 898.480227273 c 0
 424.390909091 905.739545455 428.858181818 910.206818182 437.234318182 911.323636364 c 0
 447.285681818 912.440454545 448.960909091 915.790909091 447.844090909 930.867954545 c 0
 446.168863636 944.269772727 448.960909091 949.853863636 457.337045455 954.879545455 c 0
 467.946818182 960.463636364 469.063636364 966.047727273 469.063636364 1009.04522727 c 0
 469.063636364 1053.15954545 467.946818182 1058.18522727 454.545 1069.91181818 c 0
 446.727272727 1077.17113636 437.234318182 1083.31363636 432.767045455 1083.31363636 c 0
 428.858181818 1083.31363636 424.390909091 1088.89772727 423.274090909 1096.15704545 c 0
 422.157272727 1106.20840909 417.69 1109.00045455 400.937727273 1110.11727273 c 0
 384.185454545 1111.7925 379.718181818 1114.02613636 379.718181818 1122.96068182 c 0
 379.718181818 1131.33681818 375.809318182 1133.57045455 360.173863636 1133.57045455 c 0
 347.888863636 1133.57045455 338.954318182 1136.92090909 337.279090909 1141.94659091 c 0
EndSplineSet
EndChar

StartChar: C
Encoding: 67 67 28
Width: 641
VWidth: 0
Flags: HW
LayerCount: 2
Fore
SplineSet
160.263409091 1101.74113636 m 0
 161.938636364 1103.97477273 203.819318182 1105.65 252.400909091 1105.65 c 2
 340.629545455 1105.65 l 1
 340.629545455 1091.68977273 l 2
 340.629545455 1079.40477273 342.863181818 1077.72954545 362.965909091 1077.72954545 c 0
 383.068636364 1077.72954545 385.302272727 1076.61272727 385.302272727 1063.76931818 c 0
 385.302272727 1052.60113636 388.094318182 1049.80909091 399.2625 1049.80909091 c 0
 408.197045455 1049.80909091 413.222727273 1046.45863636 413.222727273 1041.43295455 c 0
 413.222727273 1036.96568182 417.131590909 1033.05681818 421.598863636 1033.05681818 c 0
 426.066136364 1033.05681818 429.975 1028.03113636 429.975 1022.44704545 c 0
 429.975 1015.18772727 434.442272727 1010.72045455 442.818409091 1009.60363636 c 0
 452.869772727 1008.48681818 455.103409091 1004.01954545 455.661818182 988.9425 c 0
 455.661818182 977.774318182 459.570681818 968.281363636 465.154772727 964.930909091 c 0
 472.414090909 961.022045455 474.647727273 952.0875 474.647727273 929.751136364 c 0
 474.647727273 906.297954545 476.881363636 899.038636364 483.023863636 899.038636364 c 0
 489.166363636 899.038636364 491.4 892.337727273 491.4 873.910227273 c 0
 491.4 856.041136364 489.166363636 848.781818182 483.582272727 848.781818182 c 0
 479.115 848.781818182 474.647727273 844.872954545 472.414090909 840.405681818 c 0
 468.505227273 829.795909091 452.311363636 829.2375 452.311363636 839.847272727 c 0
 452.311363636 844.314545455 446.727272727 848.781818182 440.026363636 849.898636364 c 0
 431.650227273 851.015454545 426.624545455 856.041136364 425.507727273 864.417272727 c 0
 424.390909091 871.118181818 419.923636364 876.702272727 415.456363636 876.702272727 c 0
 409.313863636 876.702272727 407.638636364 885.078409091 407.638636364 910.206818182 c 0
 407.638636364 939.8025 406.521818182 943.711363636 396.470454545 943.711363636 c 0
 386.9775 943.711363636 385.302272727 947.620227273 385.302272727 965.489318182 c 0
 385.302272727 982.8 383.068636364 987.825681818 373.575681818 990.059318182 c 0
 366.874772727 991.734545455 363.524318182 995.643409091 365.757954545 998.993863636 c 0
 367.991590909 1002.90272727 363.524318182 1005.13636364 355.148181818 1005.13636364 c 0
 343.421590909 1005.13636364 340.629545455 1007.92840909 340.629545455 1019.09659091 c 0
 340.629545455 1033.05681818 340.071136364 1033.05681818 295.956818182 1033.05681818 c 0
 260.218636364 1033.05681818 251.284090909 1034.73204545 251.284090909 1041.43295455 c 0
 251.284090909 1047.01704545 245.7 1049.80909091 232.298181818 1049.80909091 c 0
 211.078636364 1049.80909091 184.275 1029.70636364 184.275 1014.07090909 c 0
 184.275 1009.04522727 179.807727273 1005.13636364 173.106818182 1005.13636364 c 0
 164.172272727 1005.13636364 161.938636364 1001.2275 161.938636364 985.592045455 c 0
 161.938636364 973.307045455 158.588181818 964.3725 153.5625 962.697272727 c 0
 148.536818182 960.463636364 145.186363636 952.0875 145.186363636 940.360909091 c 0
 145.186363636 923.608636364 143.511136364 921.375 131.226136364 921.375 c 0
 117.824318182 921.375 117.265909091 920.258181818 117.265909091 885.078409091 c 0
 117.265909091 856.599545455 115.590681818 848.781818182 108.889772727 848.781818182 c 0
 103.305681818 848.781818182 100.513636364 843.197727273 100.513636364 829.795909091 c 0
 100.513636364 814.160454545 98.28 810.251590909 88.2286363636 808.576363636 c 0
 75.3852272727 806.901136364 75.3852272727 806.342727273 73.71 696.894545455 c 2
 72.5931818182 586.329545455 l 1
 86.5534090909 586.329545455 l 2
 99.9552272727 586.329545455 100.513636364 584.654318182 100.513636364 555.617045455 c 0
 100.513636364 532.163863636 102.188863636 524.904545455 108.889772727 524.904545455 c 0
 113.915454545 524.904545455 117.265909091 519.878863636 117.265909091 510.944318182 c 0
 117.265909091 498.659318182 119.499545455 496.984090909 139.602272727 496.984090909 c 0
 158.029772727 496.984090909 161.938636364 495.308863636 161.938636364 486.374318182 c 0
 161.938636364 477.439772727 166.405909091 475.206136364 183.158181818 473.530909091 c 0
 197.118409091 472.414090909 203.819318182 469.063636364 203.819318182 463.479545455 c 0
 203.819318182 456.778636364 214.429090909 454.545 257.426590909 453.428181818 c 0
 307.683409091 452.311363636 311.592272727 452.869772727 314.384318182 463.479545455 c 0
 316.617954545 472.414090909 321.643636364 474.647727273 342.304772727 474.647727273 c 0
 362.965909091 474.647727273 367.433181818 476.322954545 366.316363636 484.699090909 c 0
 365.757954545 491.958409091 370.783636364 494.750454545 386.9775 495.867272727 c 0
 400.937727273 496.984090909 407.638636364 500.334545455 407.638636364 506.477045455 c 0
 407.638636364 521.554090909 431.650227273 541.656818182 450.636136364 541.656818182 c 0
 464.596363636 541.656818182 468.505227273 544.448863636 470.180454545 553.941818182 c 0
 471.297272727 561.201136364 476.322954545 567.343636364 481.907045455 568.460454545 c 0
 490.283181818 570.135681818 491.4 565.668409091 491.4 533.839090909 c 0
 491.4 504.801818182 489.724772727 496.984090909 483.023863636 496.984090909 c 0
 478.556590909 496.984090909 474.647727273 493.075227273 474.647727273 488.049545455 c 0
 474.647727273 475.764545455 451.752954545 452.311363636 440.026363636 452.311363636 c 0
 434.442272727 452.311363636 429.975 447.285681818 428.858181818 440.026363636 c 0
 427.741363636 429.416590909 423.274090909 426.624545455 406.521818182 425.507727273 c 0
 392.561590909 424.390909091 385.302272727 421.040454545 385.302272727 415.456363636 c 0
 385.302272727 409.872272727 378.601363636 407.638636364 362.965909091 407.638636364 c 0
 344.538409091 407.638636364 340.629545455 405.963409091 340.629545455 396.470454545 c 0
 340.629545455 385.860681818 336.720681818 385.302272727 262.452272727 385.302272727 c 0
 188.183863636 385.302272727 184.275 385.860681818 184.275 396.470454545 c 0
 184.275 405.405 180.366136364 407.638636364 164.730681818 407.638636364 c 0
 154.120909091 407.638636364 143.511136364 410.989090909 141.2775 415.456363636 c 0
 139.043863636 419.923636364 127.875681818 424.390909091 117.265909091 425.507727273 c 0
 102.188863636 426.624545455 97.1631818182 429.975 96.0463636364 440.026363636 c 0
 94.9295454545 447.844090909 90.4622727273 452.311363636 83.2029545455 452.311363636 c 0
 77.6188636364 452.311363636 72.5931818182 456.220227273 72.5931818182 460.6875 c 0
 72.5931818182 465.713181818 67.5675 469.063636364 58.6329545455 469.063636364 c 0
 45.7895454545 469.063636364 44.6727272727 471.297272727 44.6727272727 493.633636364 c 0
 44.6727272727 510.385909091 41.8806818182 519.320454545 36.2965909091 521.554090909 c 0
 31.2709090909 523.229318182 27.9204545455 531.605454545 27.9204545455 543.890454545 c 0
 27.9204545455 559.525909091 25.6868181818 563.434772727 15.6354545455 565.11 c 2
 2.79204545455 566.785227273 l 1
 2.79204545455 686.843181818 l 1
 2.79204545455 806.901136364 l 1
 15.6354545455 808.576363636 l 2
 26.8036363636 810.251590909 27.9204545455 813.602045455 27.9204545455 843.756136364 c 0
 27.9204545455 869.442954545 29.5956818182 876.702272727 36.2965909091 876.702272727 c 0
 42.9975 876.702272727 44.6727272727 884.52 44.6727272727 912.998863636 c 0
 44.6727272727 948.178636364 45.2311363636 949.295454545 58.6329545455 949.295454545 c 0
 71.4763636364 949.295454545 72.5931818182 951.529090909 72.5931818182 971.631818182 c 0
 72.5931818182 990.059318182 74.2684090909 993.968181818 83.7613636364 993.968181818 c 0
 92.6959090909 993.968181818 94.9295454545 997.877045455 94.9295454545 1013.5125 c 0
 94.9295454545 1027.47272727 97.1631818182 1033.05681818 103.305681818 1033.05681818 c 0
 108.331363636 1033.05681818 113.357045455 1036.96568182 115.032272727 1041.43295455 c 0
 117.265909091 1045.90022727 123.408409091 1049.80909091 128.9925 1049.80909091 c 0
 136.810227273 1049.80909091 139.602272727 1053.71795455 139.602272727 1063.76931818 c 0
 139.602272727 1072.70386364 142.952727273 1077.72954545 147.978409091 1077.72954545 c 0
 152.445681818 1077.72954545 156.354545455 1082.19681818 156.354545455 1087.78090909 c 0
 156.354545455 1093.365 158.029772727 1100.06590909 160.263409091 1101.74113636 c 0
EndSplineSet
EndChar

StartChar: D
Encoding: 68 68 29
Width: 730
VWidth: 0
Flags: HW
LayerCount: 2
Fore
SplineSet
228.947727273 1175.45113636 m 0
 228.947727273 1182.15204545 241.791136364 1183.82727273 302.099318182 1183.82727273 c 0
 370.225227273 1183.82727273 376.367727273 1182.71045455 388.652727273 1171.54227273 c 0
 395.912045455 1164.28295455 402.054545455 1154.23159091 402.054545455 1149.20590909 c 0
 402.054545455 1140.82977273 407.638636364 1139.15454545 435.559090909 1139.15454545 c 0
 460.129090909 1139.15454545 469.063636364 1136.92090909 469.063636364 1131.33681818 c 0
 469.063636364 1127.42795455 474.089318182 1122.40227273 480.231818182 1120.72704545 c 0
 486.932727273 1119.05181818 491.4 1112.90931818 491.4 1106.20840909 c 0
 491.4 1098.39068182 494.750454545 1094.48181818 502.568181818 1094.48181818 c 0
 512.061136364 1094.48181818 513.736363636 1090.57295455 513.736363636 1072.14545455 c 0
 513.736363636 1052.04272727 515.411590909 1049.80909091 527.696590909 1049.80909091 c 0
 539.981590909 1049.80909091 541.656818182 1047.57545455 541.656818182 1030.82318182 c 0
 541.656818182 1019.09659091 545.007272727 1010.72045455 550.032954545 1008.48681818 c 0
 556.175454545 1006.25318182 558.409090909 996.760227273 558.409090909 971.631818182 c 0
 558.409090909 942.036136364 559.525909091 938.127272727 569.577272727 938.127272727 c 0
 580.187045455 938.127272727 580.745454545 934.218409091 580.745454545 859.95 c 0
 580.745454545 785.681590909 580.187045455 781.772727273 569.577272727 781.772727273 c 0
 558.9675 781.772727273 558.409090909 777.863863636 558.409090909 725.931818182 c 0
 558.409090909 680.142272727 556.733863636 670.090909091 550.032954545 670.090909091 c 0
 543.332045455 670.090909091 541.656818182 662.273181818 541.656818182 633.794318182 c 0
 541.656818182 598.614545455 541.098409091 597.497727273 527.696590909 597.497727273 c 0
 518.762045455 597.497727273 513.736363636 594.147272727 513.736363636 589.121590909 c 0
 513.736363636 584.654318182 508.710681818 580.745454545 503.126590909 580.745454545 c 0
 494.192045455 580.745454545 491.958409091 576.278181818 490.283181818 560.084318182 c 0
 488.607954545 539.981590909 487.491136364 538.864772727 467.946818182 537.189545455 c 0
 451.194545455 535.514318182 446.727272727 533.280681818 446.727272727 524.346136364 c 0
 446.727272727 518.762045455 442.818409091 513.736363636 438.351136364 513.736363636 c 0
 433.325454545 513.736363636 429.975 508.710681818 429.975 499.776136364 c 0
 429.975 488.607954545 427.182954545 485.815909091 416.014772727 485.815909091 c 0
 407.080227273 485.815909091 402.054545455 482.465454545 402.054545455 477.439772727 c 0
 402.054545455 470.738863636 394.795227273 469.063636364 369.108409091 469.063636364 c 0
 338.954318182 469.063636364 335.603863636 467.946818182 333.928636364 456.220227273 c 0
 332.253409091 445.610454545 328.344545455 443.935227273 304.332954545 442.26 c 0
 287.580681818 441.143181818 274.737272727 437.234318182 271.945227273 432.208636364 c 0
 269.153181818 427.741363636 259.101818182 424.390909091 248.492045455 424.390909091 c 0
 232.856590909 424.390909091 228.947727273 422.157272727 228.947727273 413.222727273 c 0
 228.947727273 403.171363636 225.038863636 402.054545455 192.651136364 402.054545455 c 2
 156.354545455 402.054545455 l 1
 156.354545455 435.559090909 l 1
 156.354545455 469.063636364 l 1
 190.4175 469.063636364 l 2
 219.454772727 469.063636364 225.038863636 470.738863636 227.2725 480.231818182 c 0
 228.947727273 486.374318182 233.973409091 491.4 237.882272727 491.4 c 0
 242.349545455 491.4 245.7 496.425681818 245.7 502.568181818 c 0
 245.7 512.619545455 249.608863636 513.736363636 287.580681818 513.736363636 c 0
 328.344545455 513.736363636 329.461363636 514.294772727 329.461363636 527.696590909 c 0
 329.461363636 540.54 331.695 541.656818182 354.031363636 541.656818182 c 0
 370.783636364 541.656818182 379.718181818 544.448863636 381.951818182 550.032954545 c 0
 383.627045455 554.500227273 388.652727273 558.409090909 393.678409091 558.409090909 c 0
 398.704090909 558.409090909 402.054545455 563.434772727 402.054545455 572.369318182 c 0
 402.054545455 581.303863636 405.405 586.329545455 410.430681818 586.329545455 c 0
 421.040454545 586.329545455 441.143181818 606.432272727 441.143181818 617.042045455 c 0
 441.143181818 622.067727273 446.168863636 625.418181818 455.103409091 625.418181818 c 0
 467.946818182 625.418181818 469.063636364 627.651818182 469.063636364 647.754545455 c 0
 469.063636364 663.39 471.297272727 670.090909091 477.439772727 670.090909091 c 0
 483.582272727 670.090909091 485.815909091 680.142272727 486.932727273 713.646818182 c 0
 488.607954545 753.293863636 489.724772727 756.644318182 501.451363636 758.319545455 c 0
 513.736363636 759.994772727 513.736363636 761.67 513.736363636 835.38 c 2
 513.736363636 910.206818182 l 1
 499.776136364 910.206818182 l 2
 486.374318182 910.206818182 485.815909091 911.882045455 485.815909091 943.152954545 c 0
 485.815909091 967.164545455 483.582272727 976.6575 477.439772727 979.449545455 c 0
 471.297272727 981.683181818 469.063636364 991.176136364 469.063636364 1016.30454545 c 0
 469.063636364 1048.13386364 468.505227273 1049.80909091 455.103409091 1049.80909091 c 0
 446.168863636 1049.80909091 441.143181818 1053.15954545 441.143181818 1058.18522727 c 0
 441.143181818 1063.76931818 435.559090909 1066.56136364 422.157272727 1066.56136364 c 0
 406.521818182 1066.56136364 402.612954545 1068.795 400.937727273 1079.40477273 c 0
 399.820909091 1089.45613636 395.353636364 1092.24818182 378.601363636 1093.365 c 0
 361.849090909 1095.04022727 357.381818182 1097.27386364 357.381818182 1106.20840909 c 0
 357.381818182 1116.25977273 352.914545455 1116.81818182 293.164772727 1116.81818182 c 0
 233.415 1116.81818182 228.947727273 1116.25977273 228.947727273 1106.20840909 c 0
 228.947727273 1098.94909091 224.480454545 1094.48181818 216.662727273 1093.365 c 0
 208.286590909 1092.24818182 203.260909091 1087.2225 202.144090909 1079.40477273 c 0
 201.027272727 1071.02863636 196.56 1066.56136364 189.300681818 1066.56136364 c 0
 179.249318182 1066.56136364 178.690909091 1062.09409091 178.690909091 1002.34431818 c 0
 178.690909091 949.853863636 177.015681818 938.127272727 170.314772727 938.127272727 c 0
 164.172272727 938.127272727 161.938636364 928.075909091 160.821818182 895.129772727 c 0
 159.146590909 854.924318182 158.029772727 851.573863636 146.861590909 849.898636364 c 0
 134.576590909 848.223409091 134.018181818 845.989772727 134.018181818 792.3825 c 0
 134.018181818 747.151363636 132.342954545 737.1 125.642045455 737.1 c 0
 118.382727273 737.1 117.265909091 725.373409091 117.265909091 667.298863636 c 2
 117.265909091 597.497727273 l 1
 103.305681818 597.497727273 l 1
 89.3454545455 597.497727273 l 1
 89.3454545455 519.320454545 l 2
 89.3454545455 445.052045455 88.7870454545 441.143181818 78.1772727273 441.143181818 c 0
 69.2427272727 441.143181818 67.0090909091 437.234318182 67.0090909091 421.598863636 c 2
 67.0090909091 402.054545455 l 1
 33.5045454545 402.054545455 l 1
 0 402.054545455 l 1
 0 435.559090909 l 2
 0 461.245909091 1.67522727273 469.063636364 8.37613636364 469.063636364 c 0
 15.0770454545 469.063636364 16.7522727273 481.348636364 17.8690909091 534.955909091 c 0
 19.5443181818 598.056136364 20.1027272727 600.289772727 31.8293181818 601.965 c 0
 44.1143181818 603.640227273 44.6727272727 605.873863636 44.6727272727 670.090909091 c 0
 44.6727272727 722.581363636 46.3479545455 737.658409091 53.0488636364 741.008863636 c 0
 58.6329545455 744.359318182 61.425 759.436363636 62.5418181818 798.525 c 0
 64.2170454545 848.781818182 64.7754545455 851.573863636 77.0604545455 853.249090909 c 0
 88.7870454545 854.924318182 89.3454545455 857.716363636 89.3454545455 896.805 c 0
 89.3454545455 934.218409091 90.4622727273 938.127272727 100.513636364 938.127272727 c 0
 111.123409091 938.127272727 111.681818182 942.036136364 111.681818182 1013.5125 c 0
 111.681818182 1078.28795455 112.798636364 1088.89772727 121.174772727 1093.365 c 0
 126.758863636 1096.71545455 130.667727273 1106.20840909 130.667727273 1117.37659091 c 0
 131.226136364 1132.45363636 133.459772727 1136.92090909 143.511136364 1138.03772727 c 0
 151.328863636 1139.15454545 156.354545455 1144.18022727 157.471363636 1151.99795455 c 0
 159.146590909 1163.16613636 163.055454545 1164.28295455 194.326363636 1165.95818182 c 0
 220.013181818 1167.075 228.947727273 1169.86704545 228.947727273 1175.45113636 c 0
EndSplineSet
EndChar

StartChar: E
Encoding: 69 69 30
Width: 658
VWidth: 0
Flags: HW
LayerCount: 2
Fore
SplineSet
240.115909091 1109.00045455 m 0
 240.115909091 1115.70136364 261.335454545 1116.81818182 374.134090909 1116.81818182 c 2
 508.152272727 1116.81818182 l 1
 508.152272727 1080.52159091 l 1
 508.152272727 1044.225 l 1
 376.926136364 1044.225 l 1
 245.7 1044.225 l 1
 245.7 1024.68068182 l 2
 245.7 1014.07090909 242.349545455 1004.01954545 237.882272727 1001.2275 c 0
 232.856590909 998.435454545 228.947727273 985.592045455 227.830909091 968.839772727 c 0
 226.155681818 944.828181818 224.480454545 940.919318182 213.870681818 939.244090909 c 0
 201.585681818 937.568863636 201.027272727 934.776818182 201.027272727 892.896136364 c 0
 201.027272727 858.274772727 199.352045455 847.665 192.651136364 845.431363636 c 0
 185.950227273 842.639318182 184.275 830.912727273 184.275 789.590454545 c 2
 184.275 737.1 l 1
 212.195454545 737.1 l 2
 236.207045455 737.1 240.115909091 738.775227273 240.115909091 748.268181818 c 0
 240.115909091 758.877954545 244.024772727 759.436363636 290.372727273 759.436363636 c 0
 336.162272727 759.436363636 340.629545455 758.319545455 340.629545455 748.826590909 c 0
 340.629545455 743.2425 344.538409091 736.541590909 349.564090909 734.866363636 c 0
 355.706590909 732.632727273 357.381818182 725.373409091 356.265 710.854772727 c 2
 354.589772727 689.635227273 l 1
 311.592272727 687.96 l 2
 278.087727273 686.843181818 268.036363636 684.609545455 268.036363636 678.467045455 c 0
 268.036363636 671.766136364 257.426590909 670.090909091 212.195454545 670.090909091 c 2
 156.354545455 670.090909091 l 1
 156.354545455 644.9625 l 2
 156.354545455 626.535 154.120909091 619.834090909 147.978409091 619.834090909 c 0
 141.835909091 619.834090909 139.602272727 609.782727273 138.485454545 576.836590909 c 0
 136.810227273 536.631136364 135.693409091 533.280681818 124.525227273 531.605454545 c 0
 112.240227273 529.930227273 111.681818182 527.138181818 111.681818182 488.049545455 c 0
 111.681818182 450.636136364 110.565 446.727272727 100.513636364 446.727272727 c 0
 90.4622727273 446.727272727 89.3454545455 442.818409091 89.3454545455 413.222727273 c 0
 89.3454545455 388.652727273 87.1118181818 379.718181818 81.5277272727 379.718181818 c 0
 77.6188636364 379.718181818 72.5931818182 374.6925 70.9179545455 368.55 c 0
 67.0090909091 352.356136364 27.9204545455 352.356136364 24.0115909091 368.55 c 0
 22.3363636364 374.6925 16.1938636364 379.718181818 10.6097727273 379.718181818 c 0
 2.79204545455 379.718181818 0 383.627045455 0 393.678409091 c 0
 0 403.729772727 2.79204545455 407.638636364 11.1681818182 407.638636364 c 0
 20.6611363636 407.638636364 22.3363636364 411.5475 22.3363636364 435.559090909 c 0
 22.3363636364 457.337045455 24.57 464.596363636 32.3877272727 467.946818182 c 0
 39.6470454545 470.738863636 41.8806818182 478.556590909 41.8806818182 502.568181818 c 0
 41.8806818182 529.930227273 42.9975 533.280681818 54.1656818182 534.955909091 c 0
 66.4506818182 536.631136364 67.0090909091 539.423181818 67.0090909091 578.511818182 c 0
 67.0090909091 610.899545455 68.6843181818 619.834090909 75.3852272727 619.834090909 c 0
 81.5277272727 619.834090909 83.7613636364 630.443863636 84.8781818182 668.974090909 c 0
 86.5534090909 714.763636364 87.1118181818 717.555681818 99.3968181818 719.230909091 c 0
 111.681818182 720.906136364 111.681818182 722.581363636 111.681818182 795.732954545 c 0
 111.681818182 868.884545455 111.681818182 870.559772727 124.525227273 872.235 c 0
 135.693409091 873.910227273 136.810227273 877.260681818 137.368636364 907.414772727 c 0
 137.927045455 933.66 140.160681818 941.477727273 147.42 942.594545455 c 0
 154.679318182 944.269772727 156.354545455 952.0875 156.354545455 986.150454545 c 0
 156.354545455 1023.56386364 157.471363636 1027.47272727 167.522727273 1027.47272727 c 0
 177.015681818 1027.47272727 178.690909091 1031.38159091 178.690909091 1049.80909091 c 0
 178.690909091 1065.44454545 180.924545455 1072.14545455 186.508636364 1072.14545455 c 0
 190.975909091 1072.14545455 195.443181818 1077.72954545 196.56 1084.98886364 c 0
 197.676818182 1095.04022727 202.144090909 1097.83227273 219.454772727 1098.94909091 c 0
 232.856590909 1100.06590909 240.115909091 1103.41636364 240.115909091 1109.00045455 c 0
139.043863636 423.274090909 m 0
 139.602272727 423.8325 222.805227273 424.390909091 323.877272727 424.390909091 c 2
 508.152272727 424.390909091 l 1
 508.152272727 390.886363636 l 1
 508.152272727 357.381818182 l 1
 332.253409091 357.381818182 l 2
 181.482954545 357.381818182 156.354545455 358.498636364 156.354545455 365.757954545 c 0
 156.354545455 370.225227273 151.887272727 376.367727273 146.303181818 379.159772727 c 0
 138.485454545 383.068636364 134.576590909 407.638636364 139.043863636 423.274090909 c 0
EndSplineSet
EndChar

StartChar: F
Encoding: 70 70 31
Width: 635
VWidth: 0
Flags: HW
LayerCount: 2
Fore
SplineSet
134.018181818 1064.32772727 m 0
 134.018181818 1071.02863636 163.613863636 1072.14545455 309.917045455 1072.14545455 c 2
 485.815909091 1072.14545455 l 1
 485.815909091 1049.80909091 l 2
 485.815909091 1037.52409091 483.582272727 1027.47272727 480.790227273 1027.47272727 c 0
 477.998181818 1027.47272727 474.647727273 1021.88863636 473.530909091 1015.18772727 c 2
 471.855681818 1002.34431818 l 1
 325.5525 1000.66909091 l 1
 178.690909091 999.552272727 l 1
 178.690909091 977.215909091 l 2
 178.690909091 961.022045455 176.457272727 954.879545455 170.314772727 954.879545455 c 0
 163.055454545 954.879545455 161.938636364 937.568863636 161.938636364 834.821590909 c 2
 161.938636364 714.763636364 l 1
 147.978409091 714.763636364 l 1
 134.018181818 714.763636364 l 1
 134.018181818 622.626136364 l 2
 134.018181818 544.448863636 132.901363636 530.488636364 125.642045455 530.488636364 c 0
 118.941136364 530.488636364 117.265909091 520.437272727 117.265909091 474.647727273 c 2
 117.265909091 418.806818182 l 1
 103.305681818 418.806818182 l 2
 89.3454545455 418.806818182 89.3454545455 418.806818182 89.3454545455 365.757954545 c 0
 89.3454545455 316.617954545 88.7870454545 312.709090909 78.1772727273 312.709090909 c 0
 70.9179545455 312.709090909 67.0090909091 308.800227273 67.0090909091 301.540909091 c 0
 67.0090909091 291.489545455 63.1002272727 290.372727273 33.5045454545 290.372727273 c 2
 0 290.372727273 l 1
 0 312.709090909 l 2
 0 328.344545455 2.23363636364 335.045454545 8.37613636364 335.045454545 c 0
 14.5186363636 335.045454545 16.7522727273 345.096818182 17.8690909091 378.601363636 c 0
 19.5443181818 418.248409091 20.6611363636 421.598863636 31.8293181818 423.274090909 c 0
 44.1143181818 424.949318182 44.6727272727 427.182954545 44.6727272727 480.790227273 c 0
 44.6727272727 526.021363636 46.3479545455 536.072727273 53.0488636364 536.072727273 c 0
 60.3081818182 536.072727273 61.425 549.474545455 61.425 625.418181818 c 2
 61.425 714.763636364 l 1
 75.3852272727 714.763636364 l 1
 89.3454545455 714.763636364 l 1
 89.3454545455 848.223409091 l 2
 89.3454545455 981.683181818 89.3454545455 982.241590909 101.630454545 983.916818182 c 0
 112.798636364 985.592045455 113.915454545 988.384090909 112.240227273 1017.97977273 c 0
 111.123409091 1047.01704545 112.240227273 1050.92590909 122.291590909 1053.71795455 c 0
 128.9925 1055.39318182 134.018181818 1060.41886364 134.018181818 1064.32772727 c 0
288.139090909 670.649318182 m 0
 289.814318182 673.441363636 306.008181818 675.675 324.435681818 675.675 c 2
 357.381818182 675.675 l 1
 357.381818182 639.378409091 l 1
 357.381818182 603.081818182 l 1
 323.877272727 603.081818182 l 2
 292.047954545 603.081818182 290.372727273 602.523409091 290.372727273 589.121590909 c 2
 290.372727273 575.161363636 l 1
 223.363636364 575.161363636 l 1
 156.354545455 575.161363636 l 1
 156.354545455 599.172954545 l 2
 156.354545455 616.483636364 159.705 625.976590909 169.756363636 635.469545455 c 0
 181.482954545 646.637727273 188.742272727 647.754545455 237.323863636 647.754545455 c 0
 284.788636364 647.754545455 290.931136364 648.871363636 288.139090909 656.689090909 c 0
 286.463863636 661.714772727 285.905454545 667.857272727 288.139090909 670.649318182 c 0
EndSplineSet
EndChar

StartChar: G
Encoding: 71 71 32
Width: 730
VWidth: 0
Flags: HW
LayerCount: 2
Fore
SplineSet
245.7 1024.68068182 m 0
 245.7 1031.94 257.985 1033.05681818 323.877272727 1033.05681818 c 0
 388.094318182 1033.05681818 402.054545455 1031.38159091 402.054545455 1025.23909091 c 0
 402.054545455 1019.655 409.313863636 1016.30454545 423.274090909 1015.18772727 c 0
 443.935227273 1013.5125 443.935227273 1013.5125 445.610454545 987.267272727 c 0
 447.285681818 965.489318182 449.519318182 960.463636364 457.337045455 960.463636364 c 0
 463.479545455 960.463636364 469.063636364 956.554772727 471.297272727 952.0875 c 0
 472.9725 947.620227273 477.998181818 943.711363636 483.023863636 943.711363636 c 0
 487.491136364 943.711363636 491.4 938.685681818 491.4 932.543181818 c 0
 491.4 925.283863636 495.308863636 921.375 502.568181818 921.375 c 0
 512.619545455 921.375 513.736363636 917.466136364 513.736363636 887.870454545 c 2
 513.736363636 853.8075 l 1
 479.115 855.482727273 l 1
 443.935227273 857.157954545 l 1
 442.26 878.3775 l 2
 441.143181818 891.779318182 437.792727273 899.038636364 432.208636364 899.038636364 c 0
 427.741363636 899.038636364 424.390909091 902.9475 424.390909091 907.414772727 c 0
 424.390909091 911.882045455 419.365227273 915.790909091 413.222727273 915.790909091 c 0
 406.521818182 915.790909091 402.054545455 919.699772727 402.054545455 924.725454545 c 0
 402.054545455 929.751136364 395.912045455 939.8025 387.535909091 947.061818182 c 0
 374.6925 959.346818182 369.108409091 960.463636364 309.358636364 960.463636364 c 0
 256.309772727 960.463636364 245.7 958.788409091 245.7 952.0875 c 0
 245.7 947.620227273 241.791136364 943.711363636 237.323863636 943.711363636 c 0
 232.298181818 943.711363636 228.947727273 938.685681818 228.947727273 929.751136364 c 0
 228.947727273 916.907727273 226.714090909 915.790909091 203.819318182 915.790909091 c 0
 185.391818182 915.790909091 178.690909091 913.557272727 178.690909091 907.414772727 c 0
 178.690909091 902.9475 175.340454545 899.038636364 170.873181818 899.038636364 c 0
 166.405909091 899.038636364 161.938636364 893.454545455 160.821818182 886.753636364 c 0
 159.705 878.3775 154.679318182 873.351818182 146.861590909 872.235 c 0
 139.602272727 871.118181818 134.018181818 866.650909091 134.018181818 862.183636364 c 0
 134.018181818 857.716363636 130.109318182 854.365909091 125.642045455 854.365909091 c 0
 119.499545455 854.365909091 117.265909091 847.665 117.265909091 829.2375 c 0
 117.265909091 806.342727273 116.149090909 804.109090909 103.305681818 804.109090909 c 0
 91.0206818182 804.109090909 89.3454545455 801.875454545 89.3454545455 781.772727273 c 0
 89.3454545455 763.345227273 87.6702272727 759.436363636 78.1772727273 759.436363636 c 0
 67.5675 759.436363636 67.0090909091 755.5275 67.0090909091 628.210227273 c 0
 67.0090909091 500.892954545 67.5675 496.984090909 78.1772727273 496.984090909 c 0
 87.6702272727 496.984090909 89.3454545455 493.075227273 89.3454545455 474.647727273 c 0
 89.3454545455 454.545 91.0206818182 452.311363636 103.305681818 452.311363636 c 0
 116.149090909 452.311363636 117.265909091 450.077727273 117.265909091 429.975 c 2
 117.265909091 407.638636364 l 1
 139.602272727 407.638636364 l 2
 158.029772727 407.638636364 161.938636364 405.405 161.938636364 397.028863636 c 0
 161.938636364 391.444772727 165.8475 385.302272727 170.314772727 383.068636364 c 0
 174.782045455 381.393409091 178.690909091 376.367727273 178.690909091 371.342045455 c 0
 178.690909091 364.082727273 190.975909091 362.965909091 265.244318182 362.965909091 c 0
 345.655227273 362.965909091 351.797727273 363.524318182 357.381818182 374.134090909 c 0
 361.849090909 381.951818182 369.108409091 385.302272727 382.510227273 385.302272727 c 0
 398.145681818 385.302272727 402.054545455 387.535909091 402.054545455 396.470454545 c 0
 402.054545455 404.846590909 405.963409091 407.638636364 416.014772727 407.638636364 c 0
 426.066136364 407.638636364 429.975 404.846590909 429.975 397.028863636 c 0
 429.975 391.444772727 433.883863636 385.302272727 438.351136364 383.068636364 c 0
 443.376818182 381.393409091 446.727272727 373.017272727 446.727272727 362.4075 c 0
 446.727272727 338.954318182 427.182954545 318.293181818 403.729772727 318.293181818 c 0
 389.211136364 318.293181818 385.302272727 316.059545455 385.302272727 307.125 c 0
 385.302272727 296.515227273 381.393409091 295.956818182 270.828409091 295.956818182 c 0
 160.263409091 295.956818182 156.354545455 296.515227273 156.354545455 307.125 c 0
 156.354545455 316.059545455 152.445681818 318.293181818 136.810227273 318.293181818 c 0
 124.525227273 318.293181818 115.590681818 321.643636364 113.915454545 326.669318182 c 0
 111.681818182 331.136590909 105.539318182 335.045454545 99.9552272727 335.045454545 c 0
 92.1375 335.045454545 89.3454545455 338.954318182 89.3454545455 349.005681818 c 0
 89.3454545455 360.173863636 86.5534090909 362.965909091 75.3852272727 362.965909091 c 0
 66.4506818182 362.965909091 61.425 366.316363636 61.425 371.342045455 c 0
 61.425 375.809318182 57.5161363636 379.718181818 53.0488636364 379.718181818 c 0
 46.9063636364 379.718181818 44.6727272727 386.419090909 44.6727272727 404.288181818 c 0
 44.6727272727 426.066136364 42.9975 429.416590909 32.3877272727 431.091818182 c 0
 21.7779545455 432.208636364 18.9859090909 436.675909091 17.8690909091 453.986590909 c 0
 16.7522727273 467.388409091 13.4018181818 474.647727273 7.81772727273 474.647727273 c 0
 1.11681818182 474.647727273 0 498.659318182 0 631.002272727 c 0
 0 766.137272727 1.11681818182 787.356818182 8.37613636364 787.356818182 c 0
 14.5186363636 787.356818182 16.7522727273 793.499318182 16.7522727273 809.693181818 c 0
 16.7522727273 829.795909091 18.4275 832.029545455 30.7125 832.029545455 c 0
 41.8806818182 832.029545455 44.6727272727 834.821590909 44.6727272727 845.989772727 c 0
 44.6727272727 854.365909091 48.0231818182 859.95 52.4904545455 859.95 c 0
 58.0745454545 859.95 61.425 867.209318182 62.5418181818 881.169545455 c 0
 63.6586363636 897.921818182 66.4506818182 902.389090909 76.5020454545 903.505909091 c 0
 83.7613636364 904.622727273 89.3454545455 909.09 89.3454545455 913.557272727 c 0
 89.3454545455 918.024545455 94.3711363636 921.375 100.513636364 921.375 c 0
 107.772954545 921.375 111.681818182 925.283863636 111.681818182 932.543181818 c 0
 111.681818182 938.685681818 115.590681818 943.711363636 120.057954545 943.711363636 c 0
 125.083636364 943.711363636 130.109318182 947.620227273 131.784545455 952.0875 c 0
 134.018181818 956.554772727 140.160681818 960.463636364 145.744772727 960.463636364 c 0
 153.5625 960.463636364 156.354545455 964.3725 156.354545455 974.423863636 c 0
 156.354545455 987.267272727 158.588181818 988.384090909 178.690909091 988.384090909 c 0
 198.793636364 988.384090909 201.027272727 990.059318182 201.027272727 1002.34431818 c 0
 201.027272727 1015.18772727 203.260909091 1016.30454545 223.363636364 1016.30454545 c 0
 239.5575 1016.30454545 245.7 1018.53818182 245.7 1024.68068182 c 0
424.390909091 600.289772727 m 0
 424.390909091 606.990681818 436.1175 608.665909091 491.4 608.665909091 c 2
 558.409090909 608.665909091 l 1
 558.409090909 586.329545455 l 2
 558.409090909 567.902045455 560.084318182 563.993181818 569.577272727 563.993181818 c 0
 580.187045455 563.993181818 580.745454545 560.084318182 580.745454545 505.360227273 c 0
 580.745454545 450.636136364 580.187045455 446.727272727 569.577272727 446.727272727 c 0
 558.9675 446.727272727 558.409090909 442.818409091 558.409090909 335.045454545 c 2
 558.409090909 223.363636364 l 1
 522.1125 223.363636364 l 1
 485.815909091 223.363636364 l 1
 485.815909091 337.8375 l 1
 485.815909091 452.311363636 l 1
 499.776136364 452.311363636 l 2
 513.177954545 452.311363636 513.736363636 453.428181818 513.736363636 494.192045455 c 2
 513.736363636 536.072727273 l 1
 471.855681818 536.072727273 l 2
 438.351136364 536.072727273 429.975 534.3975 429.975 527.696590909 c 0
 429.975 520.437272727 417.131590909 519.320454545 349.005681818 519.320454545 c 2
 268.036363636 519.320454545 l 1
 268.036363636 541.656818182 l 2
 268.036363636 557.292272727 270.27 563.993181818 275.854090909 563.993181818 c 0
 280.321363636 563.993181818 284.788636364 569.577272727 285.905454545 576.836590909 c 0
 287.580681818 588.563181818 289.814318182 589.121590909 356.265 590.796818182 c 0
 411.5475 591.913636364 424.390909091 593.588863636 424.390909091 600.289772727 c 0
EndSplineSet
EndChar

